<svg width="1080" height="180" xmlns="http://www.w3.org/2000/svg"><defs><linearGradient x1="50%" y1="7.291%" x2="19.994%" y2="77.523%" id="a"><stop stop-color="#FFF" stop-opacity=".64" offset="0%"/><stop stop-color="#FFF" stop-opacity="0" offset="100%"/></linearGradient></defs><g fill="none" fill-rule="evenodd"><path fill="url(#a)" d="M952.427.652l220.921 93.775-93.775 220.921-220.921-93.775z" transform="translate(0 -74)"/><path d="M1070.763 38.846c-.215.725-.438-.049-.996.008.119-.628.986-.51.996-.008zm3.994 1.96c-.147.676-1.242.42-1.985.512.148-.677 1.242-.423 1.985-.513zm-8.924 4.049c-.599 1.055-1.908 1.41-2.968 2.013l-.013-1.493c1 .162 1.557-.114 1.486-1.006.402.26.811.513 1.495.486zm-29.85.232c-.15.676-1.243.422-1.987.512.149-.676 1.242-.421 1.986-.512zm-18.4 1.137l.007.995-.996.008-.007-.996.995-.007zm43.812 3.64l-1.493.012c-.282-1.101.944-.716.984-1.5.583.074.425.904.509 1.489zm-6.433 4.529c2.581-1.268 1.7-2.91 4.446-4.015-.427 2.376-2.01 3.614-4.446 4.015zm-5.457 2.032c.17-.655.869-.79.983-1.5 1.24.192.045 1.93-.983 1.5zm-40.8-.181c-.215.726-.438-.047-.996.009.12-.627.986-.51.995-.01zm25.87-.2c.346.34-1.952 1.386-1.489.509.071-.137 1.064-.93 1.49-.509zm17.428 1.855c.444-.871 1.099-1.925 1.983-1.01-.323.67-1.056.934-1.983 1.01zm2.515 3.463c-.55 1.602-1.424-.469-1.006-1.485.717.107.185 1.483 1.006 1.485zm17.93 2.348c-.075.585-.903.426-1.488.508.075-.582.903-.426 1.488-.508zm-3.476 1.021c-.075.584-.903.427-1.488.51.076-.584.904-.425 1.488-.51zm5.991 2.443c-1.801-.884.679-1.566.98-1.998 1.644.728-.835 1.411-.98 1.998zm-8.466-.93c-.076.584-.903.427-1.488.509.075-.584.903-.426 1.488-.51zm-97.004 2.246c-.357.888-.904.08-1.493.012.358-.89.904-.08 1.493-.012zm7.478 1.933c.402-1.745 2.272-2.043 4.462-2.025.003 2.041-2.687 3.289-4.462 2.025zm96.017-1.244c-.075.584-.903.426-1.488.51.075-.584.903-.427 1.488-.51zm-42.274 2.319c-.963.205-.744-2.26.487-1.496-.26.401-.514.81-.487 1.496zm36.817-.286c-.888-.357-.079-.904-.012-1.492.89.357.08.903.012 1.492zm-.992.504c-.549 1.603-1.423-.468-1.006-1.484.718.107.186 1.484 1.006 1.484zm2.994.972c-.111-.85.838-1.295-.012-1.492.691-2.19 2.067 2.323.012 1.492zm-108.448 2.336c-.075.583-.903.427-1.488.509.075-.584.903-.427 1.488-.51zm16.923.863c.213-.614.63-1.027 1.485-1.006-.212.613-.628 1.026-1.485 1.006zm11.444-.088c.189-.193-1.504-.521-1.497-.486-.146-.79 2.682-.719 1.497.486zm34.344 1.723l.007.996-.995.008-.007-.997.995-.007zm24.378-.19c2.387-.44-2.337 3.216.004.498.03-.036-.038-.49-.004-.499zm-1.489.51c-.075.583-.903.426-1.488.51.076-.584.903-.429 1.488-.51zm15.926.374c-.216.724-.439-.048-.996.007.118-.627.985-.509.996-.007zm-14.908 2.603l.007.995c-.33.004-.662.006-.994.008l-.007-.995.994-.008zm13.438.393l.007.995c-.331.003-.664.005-.995.009l-.007-.997.995-.007zm-4.965 1.53c-.075.585-.903.427-1.488.51.076-.584.904-.426 1.488-.51zm-12.93.598c.346.343-1.953 1.388-1.49.51.072-.136 1.064-.929 1.49-.51zm31.848.748c.213-.613.628-1.026 1.485-1.006-.213.614-.628 1.027-1.485 1.006zm-21.39.665c-.075.583-.903.426-1.488.509.075-.584.904-.426 1.489-.509zm4.004 2.954c-.358.888-.904.08-1.493.012.358-.89.904-.08 1.493-.012zm-7.93 4.042l-.995.008c.261-.402.513-.812.487-1.496 1.036.27 1.06.768.509 1.488zm7.46-.556c-.077.584-.903.428-1.49.51.076-.584.905-.426 1.49-.51zm-32.809 3.737c-.215.726-.438-.047-.996.008.12-.626.986-.51.996-.008zm18.909.353c.496-.829 2.11-.558 2.977-1.02-.29 2.042-1.359 1.007-2.977 1.02zm1.505 1.48c.001.331.004.663.007.995l-.996.008-.007-.996.996-.008zm-5.936 4.523c.346.343-1.953 1.388-1.49.508.073-.135 1.064-.926 1.49-.508zm-1.451 5.486c.383-.446.527-1.128.483-1.995.877-.166.91 2.78-.483 1.995zm-5.977-.95c.402.26.811.514 1.496.487-.091.403-.496.5-.49.998l-.995.009-.011-1.494zm3.032 5.947c-.077.584-.905.427-1.49.51.076-.584.905-.427 1.49-.51zm-2.476 1.513c2.385-.441-2.339 3.215.003.497.03-.036-.038-.49-.003-.497zm-41.758 4.802c-.668.493-.983 1.335-1.477 2.001-1.354-.965 1.436-3.798 2.469-2.507-.172.572-.867 1.268-.992.506zm33.844 1.23c2.385-.442-2.338 3.216.003.498.03-.036-.039-.493-.003-.498zm6.64-106.03c-1.02-.69.474-1.718-.522-2.98 2.343.44.802 1.561.521 2.98zm-10.954-.91c-1.252-.203.82-1.078 1.484-1.006-.36.467-.898.761-1.484 1.005zm6.012 5.426c-.196-.575-2.42-.556-.995.008.304.025.59.07.502.494-.5.002-.589.408-.99.505-.002-.277-.408-.561-.498.003.884.915 1.54-.14 1.981-1.01zm2.005 1.975c-.42.952-.298-.536-.998-.49-1.542-.633 1.424-.666.998.49zm-35.801 2.766c-.04 1.762-1.653-1.045-1.488.509-1.463-1.121.626-.943 1.488-.51zm-13.795 17.521c-.892.07-1.054-.6-1.995-.481.84-.709 2.512.421 1.972-2.505 1.702 1.04.198 1.444.023 2.986zm98.034 2.224c.775.034.334-1.449-.004-.497-.995.45.238 2.176.505.99-.302-.025-.59-.07-.5-.493zm-11.443.089c1.265-.267 1.923-.864 1.998.98-1.264.266-1.923.863-1.998-.98zm-32.292 6.222c-.788-1.763 1.687-.314 1.48-1.506 1.054.147-.509 1.733-1.48 1.506zm21.93 4.805c-1.241-.194-.045-1.93.983-1.5-.32.508-1.14.522-.983 1.5zm-2.94 5.993c-.203 1.252-1.077-.82-1.006-1.485.467.361.761.899 1.006 1.485zM1027.24 72.52c-.65.25-.237-2.468.98-1.998.373 1.355-.981 1.009-.98 1.998zm42.327 4.646c-.42.953-.3-.535-.998-.49-1.542-.633 1.423-.666.998.49zm-53.222 1.906c.807-1.158 3.34.143.497-.004.073 1.231-.603.85-.497.004zm28.439 10.228c-1.443-.268.758-.782.486-1.496 1.653.473-.548.986-.486 1.496zm10.464 1.909c-.092.402-.496.501-.49.997l-.995.009c-.096-.42.19-.47.493-.501-.017-.483-.612-.381-.999-.49.316-1.492 1.068.468 1.991-.015zm11.97 3.888c-1.028.564-1.048.544-.5-.495 1.031-.273 1.069 1.933.5.495zm-37.656 20.193c-.282-1.101.945-.715.983-1.5.89-.154.047 1.93-.983 1.5z" fill="#FFF" opacity=".56"/></g></svg>