<svg width="1792" height="1004" xmlns="http://www.w3.org/2000/svg"><g fill="none" fill-rule="evenodd"><path fill="#E6E6FD" d="M1136 545h240v240h-240z"/><path fill="#FFDEE7" d="M341.644 362.825l203.531-127.181 127.181 203.531-203.531 127.181z"/><path d="M377.5 292a1.5 1.5 0 1 1-.001 3.001A1.5 1.5 0 0 1 377.5 292zm16 0a1.5 1.5 0 1 1-.001 3.001A1.5 1.5 0 0 1 393.5 292zm-8 0a1.5 1.5 0 1 1-.001 3.001A1.5 1.5 0 0 1 385.5 292zm16 0a1.5 1.5 0 1 1-.001 3.001A1.5 1.5 0 0 1 401.5 292zm16 0a1.5 1.5 0 1 1-.001 3.001A1.5 1.5 0 0 1 417.5 292zm-8 0a1.5 1.5 0 1 1-.001 3.001A1.5 1.5 0 0 1 409.5 292zm16 0a1.5 1.5 0 1 1-.001 3.001A1.5 1.5 0 0 1 425.5 292zm16 0a1.5 1.5 0 1 1-.001 3.001A1.5 1.5 0 0 1 441.5 292zm-8 0a1.5 1.5 0 1 1-.001 3.001A1.5 1.5 0 0 1 433.5 292zm16 0a1.5 1.5 0 1 1-.001 3.001A1.5 1.5 0 0 1 449.5 292zm16 0a1.5 1.5 0 1 1-.001 3.001A1.5 1.5 0 0 1 465.5 292zm-8 0a1.5 1.5 0 1 1-.001 3.001A1.5 1.5 0 0 1 457.5 292zm16 0a1.5 1.5 0 1 1-.001 3.001A1.5 1.5 0 0 1 473.5 292zm16 0a1.5 1.5 0 1 1-.001 3.001A1.5 1.5 0 0 1 489.5 292zm-8 0a1.5 1.5 0 1 1-.001 3.001A1.5 1.5 0 0 1 481.5 292zm16 0a1.5 1.5 0 1 1-.001 3.001A1.5 1.5 0 0 1 497.5 292zm16 0a1.5 1.5 0 1 1-.001 3.001A1.5 1.5 0 0 1 513.5 292zm-8 0a1.5 1.5 0 1 1-.001 3.001A1.5 1.5 0 0 1 505.5 292zm16 0a1.5 1.5 0 1 1-.001 3.001A1.5 1.5 0 0 1 521.5 292zm16 0a1.5 1.5 0 1 1-.001 3.001A1.5 1.5 0 0 1 537.5 292zm-8 0a1.5 1.5 0 1 1-.001 3.001A1.5 1.5 0 0 1 529.5 292zm16 0a1.5 1.5 0 1 1-.001 3.001A1.5 1.5 0 0 1 545.5 292zm16 0a1.5 1.5 0 1 1-.001 3.001A1.5 1.5 0 0 1 561.5 292zm-8 0a1.5 1.5 0 1 1-.001 3.001A1.5 1.5 0 0 1 553.5 292zm16 0a1.5 1.5 0 1 1-.001 3.001A1.5 1.5 0 0 1 569.5 292zm8 0a1.5 1.5 0 1 1-.001 3.001A1.5 1.5 0 0 1 577.5 292zm-68 8a1.5 1.5 0 1 1-.001 3.001A1.5 1.5 0 0 1 509.5 300zm-8 0a1.5 1.5 0 1 1-.001 3.001A1.5 1.5 0 0 1 501.5 300zm16 0a1.5 1.5 0 1 1-.001 3.001A1.5 1.5 0 0 1 517.5 300zm16 0a1.5 1.5 0 1 1-.001 3.001A1.5 1.5 0 0 1 533.5 300zm-8 0a1.5 1.5 0 1 1-.001 3.001A1.5 1.5 0 0 1 525.5 300zm16 0a1.5 1.5 0 1 1-.001 3.001A1.5 1.5 0 0 1 541.5 300zm16 0a1.5 1.5 0 1 1-.001 3.001A1.5 1.5 0 0 1 557.5 300zm-8 0a1.5 1.5 0 1 1-.001 3.001A1.5 1.5 0 0 1 549.5 300zm16 0a1.5 1.5 0 1 1-.001 3.001A1.5 1.5 0 0 1 565.5 300zm8 0a1.5 1.5 0 1 1-.001 3.001A1.5 1.5 0 0 1 573.5 300zm-192 0a1.5 1.5 0 1 1-.001 3.001A1.5 1.5 0 0 1 381.5 300zm16 0a1.5 1.5 0 1 1-.001 3.001A1.5 1.5 0 0 1 397.5 300zm-8 0a1.5 1.5 0 1 1-.001 3.001A1.5 1.5 0 0 1 389.5 300zm16 0a1.5 1.5 0 1 1-.001 3.001A1.5 1.5 0 0 1 405.5 300zm16 0a1.5 1.5 0 1 1-.001 3.001A1.5 1.5 0 0 1 421.5 300zm-8 0a1.5 1.5 0 1 1-.001 3.001A1.5 1.5 0 0 1 413.5 300zm16 0a1.5 1.5 0 1 1-.001 3.001A1.5 1.5 0 0 1 429.5 300zm16 0a1.5 1.5 0 1 1-.001 3.001A1.5 1.5 0 0 1 445.5 300zm-8 0a1.5 1.5 0 1 1-.001 3.001A1.5 1.5 0 0 1 437.5 300zm16 0a1.5 1.5 0 1 1-.001 3.001A1.5 1.5 0 0 1 453.5 300zm16 0a1.5 1.5 0 1 1-.001 3.001A1.5 1.5 0 0 1 469.5 300zm-8 0a1.5 1.5 0 1 1-.001 3.001A1.5 1.5 0 0 1 461.5 300zm16 0a1.5 1.5 0 1 1-.001 3.001A1.5 1.5 0 0 1 477.5 300zm16 0a1.5 1.5 0 1 1-.001 3.001A1.5 1.5 0 0 1 493.5 300zm-8 0a1.5 1.5 0 1 1-.001 3.001A1.5 1.5 0 0 1 485.5 300zm-108 8a1.5 1.5 0 1 1-.001 3.001A1.5 1.5 0 0 1 377.5 308zm16 0a1.5 1.5 0 1 1-.001 3.001A1.5 1.5 0 0 1 393.5 308zm-8 0a1.5 1.5 0 1 1-.001 3.001A1.5 1.5 0 0 1 385.5 308zm16 0a1.5 1.5 0 1 1-.001 3.001A1.5 1.5 0 0 1 401.5 308zm16 0a1.5 1.5 0 1 1-.001 3.001A1.5 1.5 0 0 1 417.5 308zm-8 0a1.5 1.5 0 1 1-.001 3.001A1.5 1.5 0 0 1 409.5 308zm16 0a1.5 1.5 0 1 1-.001 3.001A1.5 1.5 0 0 1 425.5 308zm16 0a1.5 1.5 0 1 1-.001 3.001A1.5 1.5 0 0 1 441.5 308zm-8 0a1.5 1.5 0 1 1-.001 3.001A1.5 1.5 0 0 1 433.5 308zm16 0a1.5 1.5 0 1 1-.001 3.001A1.5 1.5 0 0 1 449.5 308zm16 0a1.5 1.5 0 1 1-.001 3.001A1.5 1.5 0 0 1 465.5 308zm-8 0a1.5 1.5 0 1 1-.001 3.001A1.5 1.5 0 0 1 457.5 308zm16 0a1.5 1.5 0 1 1-.001 3.001A1.5 1.5 0 0 1 473.5 308zm16 0a1.5 1.5 0 1 1-.001 3.001A1.5 1.5 0 0 1 489.5 308zm-8 0a1.5 1.5 0 1 1-.001 3.001A1.5 1.5 0 0 1 481.5 308zm16 0a1.5 1.5 0 1 1-.001 3.001A1.5 1.5 0 0 1 497.5 308zm16 0a1.5 1.5 0 1 1-.001 3.001A1.5 1.5 0 0 1 513.5 308zm-8 0a1.5 1.5 0 1 1-.001 3.001A1.5 1.5 0 0 1 505.5 308zm16 0a1.5 1.5 0 1 1-.001 3.001A1.5 1.5 0 0 1 521.5 308zm16 0a1.5 1.5 0 1 1-.001 3.001A1.5 1.5 0 0 1 537.5 308zm-8 0a1.5 1.5 0 1 1-.001 3.001A1.5 1.5 0 0 1 529.5 308zm16 0a1.5 1.5 0 1 1-.001 3.001A1.5 1.5 0 0 1 545.5 308zm16 0a1.5 1.5 0 1 1-.001 3.001A1.5 1.5 0 0 1 561.5 308zm-8 0a1.5 1.5 0 1 1-.001 3.001A1.5 1.5 0 0 1 553.5 308zm16 0a1.5 1.5 0 1 1-.001 3.001A1.5 1.5 0 0 1 569.5 308zm8 0a1.5 1.5 0 1 1-.001 3.001A1.5 1.5 0 0 1 577.5 308zm-68 8a1.5 1.5 0 1 1-.001 3.001A1.5 1.5 0 0 1 509.5 316zm-8 0a1.5 1.5 0 1 1-.001 3.001A1.5 1.5 0 0 1 501.5 316zm16 0a1.5 1.5 0 1 1-.001 3.001A1.5 1.5 0 0 1 517.5 316zm16 0a1.5 1.5 0 1 1-.001 3.001A1.5 1.5 0 0 1 533.5 316zm-8 0a1.5 1.5 0 1 1-.001 3.001A1.5 1.5 0 0 1 525.5 316zm16 0a1.5 1.5 0 1 1-.001 3.001A1.5 1.5 0 0 1 541.5 316zm16 0a1.5 1.5 0 1 1-.001 3.001A1.5 1.5 0 0 1 557.5 316zm-8 0a1.5 1.5 0 1 1-.001 3.001A1.5 1.5 0 0 1 549.5 316zm16 0a1.5 1.5 0 1 1-.001 3.001A1.5 1.5 0 0 1 565.5 316zm8 0a1.5 1.5 0 1 1-.001 3.001A1.5 1.5 0 0 1 573.5 316zm-192 0a1.5 1.5 0 1 1-.001 3.001A1.5 1.5 0 0 1 381.5 316zm16 0a1.5 1.5 0 1 1-.001 3.001A1.5 1.5 0 0 1 397.5 316zm-8 0a1.5 1.5 0 1 1-.001 3.001A1.5 1.5 0 0 1 389.5 316zm16 0a1.5 1.5 0 1 1-.001 3.001A1.5 1.5 0 0 1 405.5 316zm16 0a1.5 1.5 0 1 1-.001 3.001A1.5 1.5 0 0 1 421.5 316zm-8 0a1.5 1.5 0 1 1-.001 3.001A1.5 1.5 0 0 1 413.5 316zm16 0a1.5 1.5 0 1 1-.001 3.001A1.5 1.5 0 0 1 429.5 316zm16 0a1.5 1.5 0 1 1-.001 3.001A1.5 1.5 0 0 1 445.5 316zm-8 0a1.5 1.5 0 1 1-.001 3.001A1.5 1.5 0 0 1 437.5 316zm16 0a1.5 1.5 0 1 1-.001 3.001A1.5 1.5 0 0 1 453.5 316zm16 0a1.5 1.5 0 1 1-.001 3.001A1.5 1.5 0 0 1 469.5 316zm-8 0a1.5 1.5 0 1 1-.001 3.001A1.5 1.5 0 0 1 461.5 316zm16 0a1.5 1.5 0 1 1-.001 3.001A1.5 1.5 0 0 1 477.5 316zm16 0a1.5 1.5 0 1 1-.001 3.001A1.5 1.5 0 0 1 493.5 316zm-8 0a1.5 1.5 0 1 1-.001 3.001A1.5 1.5 0 0 1 485.5 316zm-108 8a1.5 1.5 0 1 1-.001 3.001A1.5 1.5 0 0 1 377.5 324zm16 0a1.5 1.5 0 1 1-.001 3.001A1.5 1.5 0 0 1 393.5 324zm-8 0a1.5 1.5 0 1 1-.001 3.001A1.5 1.5 0 0 1 385.5 324zm16 0a1.5 1.5 0 1 1-.001 3.001A1.5 1.5 0 0 1 401.5 324zm16 0a1.5 1.5 0 1 1-.001 3.001A1.5 1.5 0 0 1 417.5 324zm-8 0a1.5 1.5 0 1 1-.001 3.001A1.5 1.5 0 0 1 409.5 324zm16 0a1.5 1.5 0 1 1-.001 3.001A1.5 1.5 0 0 1 425.5 324zm16 0a1.5 1.5 0 1 1-.001 3.001A1.5 1.5 0 0 1 441.5 324zm-8 0a1.5 1.5 0 1 1-.001 3.001A1.5 1.5 0 0 1 433.5 324zm16 0a1.5 1.5 0 1 1-.001 3.001A1.5 1.5 0 0 1 449.5 324zm16 0a1.5 1.5 0 1 1-.001 3.001A1.5 1.5 0 0 1 465.5 324zm-8 0a1.5 1.5 0 1 1-.001 3.001A1.5 1.5 0 0 1 457.5 324zm16 0a1.5 1.5 0 1 1-.001 3.001A1.5 1.5 0 0 1 473.5 324zm16 0a1.5 1.5 0 1 1-.001 3.001A1.5 1.5 0 0 1 489.5 324zm-8 0a1.5 1.5 0 1 1-.001 3.001A1.5 1.5 0 0 1 481.5 324zm16 0a1.5 1.5 0 1 1-.001 3.001A1.5 1.5 0 0 1 497.5 324zm16 0a1.5 1.5 0 1 1-.001 3.001A1.5 1.5 0 0 1 513.5 324zm-8 0a1.5 1.5 0 1 1-.001 3.001A1.5 1.5 0 0 1 505.5 324zm16 0a1.5 1.5 0 1 1-.001 3.001A1.5 1.5 0 0 1 521.5 324zm16 0a1.5 1.5 0 1 1-.001 3.001A1.5 1.5 0 0 1 537.5 324zm-8 0a1.5 1.5 0 1 1-.001 3.001A1.5 1.5 0 0 1 529.5 324zm16 0a1.5 1.5 0 1 1-.001 3.001A1.5 1.5 0 0 1 545.5 324zm16 0a1.5 1.5 0 1 1-.001 3.001A1.5 1.5 0 0 1 561.5 324zm-8 0a1.5 1.5 0 1 1-.001 3.001A1.5 1.5 0 0 1 553.5 324zm16 0a1.5 1.5 0 1 1-.001 3.001A1.5 1.5 0 0 1 569.5 324zm8 0a1.5 1.5 0 1 1-.001 3.001A1.5 1.5 0 0 1 577.5 324zm-68 8a1.5 1.5 0 1 1-.001 3.001A1.5 1.5 0 0 1 509.5 332zm-8 0a1.5 1.5 0 1 1-.001 3.001A1.5 1.5 0 0 1 501.5 332zm16 0a1.5 1.5 0 1 1-.001 3.001A1.5 1.5 0 0 1 517.5 332zm16 0a1.5 1.5 0 1 1-.001 3.001A1.5 1.5 0 0 1 533.5 332zm-8 0a1.5 1.5 0 1 1-.001 3.001A1.5 1.5 0 0 1 525.5 332zm16 0a1.5 1.5 0 1 1-.001 3.001A1.5 1.5 0 0 1 541.5 332zm16 0a1.5 1.5 0 1 1-.001 3.001A1.5 1.5 0 0 1 557.5 332zm-8 0a1.5 1.5 0 1 1-.001 3.001A1.5 1.5 0 0 1 549.5 332zm16 0a1.5 1.5 0 1 1-.001 3.001A1.5 1.5 0 0 1 565.5 332zm8 0a1.5 1.5 0 1 1-.001 3.001A1.5 1.5 0 0 1 573.5 332zm-192 0a1.5 1.5 0 1 1-.001 3.001A1.5 1.5 0 0 1 381.5 332zm16 0a1.5 1.5 0 1 1-.001 3.001A1.5 1.5 0 0 1 397.5 332zm-8 0a1.5 1.5 0 1 1-.001 3.001A1.5 1.5 0 0 1 389.5 332zm16 0a1.5 1.5 0 1 1-.001 3.001A1.5 1.5 0 0 1 405.5 332zm16 0a1.5 1.5 0 1 1-.001 3.001A1.5 1.5 0 0 1 421.5 332zm-8 0a1.5 1.5 0 1 1-.001 3.001A1.5 1.5 0 0 1 413.5 332zm16 0a1.5 1.5 0 1 1-.001 3.001A1.5 1.5 0 0 1 429.5 332zm16 0a1.5 1.5 0 1 1-.001 3.001A1.5 1.5 0 0 1 445.5 332zm-8 0a1.5 1.5 0 1 1-.001 3.001A1.5 1.5 0 0 1 437.5 332zm16 0a1.5 1.5 0 1 1-.001 3.001A1.5 1.5 0 0 1 453.5 332zm16 0a1.5 1.5 0 1 1-.001 3.001A1.5 1.5 0 0 1 469.5 332zm-8 0a1.5 1.5 0 1 1-.001 3.001A1.5 1.5 0 0 1 461.5 332zm16 0a1.5 1.5 0 1 1-.001 3.001A1.5 1.5 0 0 1 477.5 332zm16 0a1.5 1.5 0 1 1-.001 3.001A1.5 1.5 0 0 1 493.5 332zm-8 0a1.5 1.5 0 1 1-.001 3.001A1.5 1.5 0 0 1 485.5 332zm-108 8a1.5 1.5 0 1 1-.001 3.001A1.5 1.5 0 0 1 377.5 340zm16 0a1.5 1.5 0 1 1-.001 3.001A1.5 1.5 0 0 1 393.5 340zm-8 0a1.5 1.5 0 1 1-.001 3.001A1.5 1.5 0 0 1 385.5 340zm16 0a1.5 1.5 0 1 1-.001 3.001A1.5 1.5 0 0 1 401.5 340zm16 0a1.5 1.5 0 1 1-.001 3.001A1.5 1.5 0 0 1 417.5 340zm-8 0a1.5 1.5 0 1 1-.001 3.001A1.5 1.5 0 0 1 409.5 340zm16 0a1.5 1.5 0 1 1-.001 3.001A1.5 1.5 0 0 1 425.5 340zm16 0a1.5 1.5 0 1 1-.001 3.001A1.5 1.5 0 0 1 441.5 340zm-8 0a1.5 1.5 0 1 1-.001 3.001A1.5 1.5 0 0 1 433.5 340zm16 0a1.5 1.5 0 1 1-.001 3.001A1.5 1.5 0 0 1 449.5 340zm16 0a1.5 1.5 0 1 1-.001 3.001A1.5 1.5 0 0 1 465.5 340zm-8 0a1.5 1.5 0 1 1-.001 3.001A1.5 1.5 0 0 1 457.5 340zm16 0a1.5 1.5 0 1 1-.001 3.001A1.5 1.5 0 0 1 473.5 340zm16 0a1.5 1.5 0 1 1-.001 3.001A1.5 1.5 0 0 1 489.5 340zm-8 0a1.5 1.5 0 1 1-.001 3.001A1.5 1.5 0 0 1 481.5 340zm16 0a1.5 1.5 0 1 1-.001 3.001A1.5 1.5 0 0 1 497.5 340zm16 0a1.5 1.5 0 1 1-.001 3.001A1.5 1.5 0 0 1 513.5 340zm-8 0a1.5 1.5 0 1 1-.001 3.001A1.5 1.5 0 0 1 505.5 340zm16 0a1.5 1.5 0 1 1-.001 3.001A1.5 1.5 0 0 1 521.5 340zm16 0a1.5 1.5 0 1 1-.001 3.001A1.5 1.5 0 0 1 537.5 340zm-8 0a1.5 1.5 0 1 1-.001 3.001A1.5 1.5 0 0 1 529.5 340zm16 0a1.5 1.5 0 1 1-.001 3.001A1.5 1.5 0 0 1 545.5 340zm16 0a1.5 1.5 0 1 1-.001 3.001A1.5 1.5 0 0 1 561.5 340zm-8 0a1.5 1.5 0 1 1-.001 3.001A1.5 1.5 0 0 1 553.5 340zm16 0a1.5 1.5 0 1 1-.001 3.001A1.5 1.5 0 0 1 569.5 340zm8 0a1.5 1.5 0 1 1-.001 3.001A1.5 1.5 0 0 1 577.5 340zm-200 16a1.5 1.5 0 1 1-.001 3.001A1.5 1.5 0 0 1 377.5 356zm16 0a1.5 1.5 0 1 1-.001 3.001A1.5 1.5 0 0 1 393.5 356zm-8 0a1.5 1.5 0 1 1-.001 3.001A1.5 1.5 0 0 1 385.5 356zm16 0a1.5 1.5 0 1 1-.001 3.001A1.5 1.5 0 0 1 401.5 356zm16 0a1.5 1.5 0 1 1-.001 3.001A1.5 1.5 0 0 1 417.5 356zm-8 0a1.5 1.5 0 1 1-.001 3.001A1.5 1.5 0 0 1 409.5 356zm16 0a1.5 1.5 0 1 1-.001 3.001A1.5 1.5 0 0 1 425.5 356zm16 0a1.5 1.5 0 1 1-.001 3.001A1.5 1.5 0 0 1 441.5 356zm-8 0a1.5 1.5 0 1 1-.001 3.001A1.5 1.5 0 0 1 433.5 356zm16 0a1.5 1.5 0 1 1-.001 3.001A1.5 1.5 0 0 1 449.5 356zm16 0a1.5 1.5 0 1 1-.001 3.001A1.5 1.5 0 0 1 465.5 356zm-8 0a1.5 1.5 0 1 1-.001 3.001A1.5 1.5 0 0 1 457.5 356zm16 0a1.5 1.5 0 1 1-.001 3.001A1.5 1.5 0 0 1 473.5 356zm16 0a1.5 1.5 0 1 1-.001 3.001A1.5 1.5 0 0 1 489.5 356zm-8 0a1.5 1.5 0 1 1-.001 3.001A1.5 1.5 0 0 1 481.5 356zm16 0a1.5 1.5 0 1 1-.001 3.001A1.5 1.5 0 0 1 497.5 356zm16 0a1.5 1.5 0 1 1-.001 3.001A1.5 1.5 0 0 1 513.5 356zm-8 0a1.5 1.5 0 1 1-.001 3.001A1.5 1.5 0 0 1 505.5 356zm16 0a1.5 1.5 0 1 1-.001 3.001A1.5 1.5 0 0 1 521.5 356zm16 0a1.5 1.5 0 1 1-.001 3.001A1.5 1.5 0 0 1 537.5 356zm-8 0a1.5 1.5 0 1 1-.001 3.001A1.5 1.5 0 0 1 529.5 356zm16 0a1.5 1.5 0 1 1-.001 3.001A1.5 1.5 0 0 1 545.5 356zm16 0a1.5 1.5 0 1 1-.001 3.001A1.5 1.5 0 0 1 561.5 356zm-8 0a1.5 1.5 0 1 1-.001 3.001A1.5 1.5 0 0 1 553.5 356zm16 0a1.5 1.5 0 1 1-.001 3.001A1.5 1.5 0 0 1 569.5 356zm8 0a1.5 1.5 0 1 1-.001 3.001A1.5 1.5 0 0 1 577.5 356zm-68-8a1.5 1.5 0 1 1-.001 3.001A1.5 1.5 0 0 1 509.5 348zm-8 0a1.5 1.5 0 1 1-.001 3.001A1.5 1.5 0 0 1 501.5 348zm16 0a1.5 1.5 0 1 1-.001 3.001A1.5 1.5 0 0 1 517.5 348zm16 0a1.5 1.5 0 1 1-.001 3.001A1.5 1.5 0 0 1 533.5 348zm-8 0a1.5 1.5 0 1 1-.001 3.001A1.5 1.5 0 0 1 525.5 348zm16 0a1.5 1.5 0 1 1-.001 3.001A1.5 1.5 0 0 1 541.5 348zm16 0a1.5 1.5 0 1 1-.001 3.001A1.5 1.5 0 0 1 557.5 348zm-8 0a1.5 1.5 0 1 1-.001 3.001A1.5 1.5 0 0 1 549.5 348zm16 0a1.5 1.5 0 1 1-.001 3.001A1.5 1.5 0 0 1 565.5 348zm8 0a1.5 1.5 0 1 1-.001 3.001A1.5 1.5 0 0 1 573.5 348zm-192 0a1.5 1.5 0 1 1-.001 3.001A1.5 1.5 0 0 1 381.5 348zm16 0a1.5 1.5 0 1 1-.001 3.001A1.5 1.5 0 0 1 397.5 348zm-8 0a1.5 1.5 0 1 1-.001 3.001A1.5 1.5 0 0 1 389.5 348zm16 0a1.5 1.5 0 1 1-.001 3.001A1.5 1.5 0 0 1 405.5 348zm16 0a1.5 1.5 0 1 1-.001 3.001A1.5 1.5 0 0 1 421.5 348zm-8 0a1.5 1.5 0 1 1-.001 3.001A1.5 1.5 0 0 1 413.5 348zm16 0a1.5 1.5 0 1 1-.001 3.001A1.5 1.5 0 0 1 429.5 348zm16 0a1.5 1.5 0 1 1-.001 3.001A1.5 1.5 0 0 1 445.5 348zm-8 0a1.5 1.5 0 1 1-.001 3.001A1.5 1.5 0 0 1 437.5 348zm16 0a1.5 1.5 0 1 1-.001 3.001A1.5 1.5 0 0 1 453.5 348zm16 0a1.5 1.5 0 1 1-.001 3.001A1.5 1.5 0 0 1 469.5 348zm-8 0a1.5 1.5 0 1 1-.001 3.001A1.5 1.5 0 0 1 461.5 348zm16 0a1.5 1.5 0 1 1-.001 3.001A1.5 1.5 0 0 1 477.5 348zm16 0a1.5 1.5 0 1 1-.001 3.001A1.5 1.5 0 0 1 493.5 348zm-8 0a1.5 1.5 0 1 1-.001 3.001A1.5 1.5 0 0 1 485.5 348z" fill="#F47698"/><path d="M1240.56 677.907a1.5 1.5 0 1 1-1.028 2.82 1.5 1.5 0 0 1 1.028-2.82zm15.035 5.472a1.5 1.5 0 1 1-1.028 2.82 1.5 1.5 0 0 1 1.028-2.82zm-7.518-2.736a1.5 1.5 0 1 1-1.027 2.82 1.5 1.5 0 0 1 1.027-2.82zm15.035 5.472a1.5 1.5 0 1 1-1.027 2.82 1.5 1.5 0 0 1 1.027-2.82zm15.035 5.473a1.5 1.5 0 1 1-1.027 2.82 1.5 1.5 0 0 1 1.027-2.82zm-7.517-2.737a1.5 1.5 0 1 1-1.028 2.82 1.5 1.5 0 0 1 1.028-2.82zm15.035 5.473a1.5 1.5 0 1 1-1.027 2.82 1.5 1.5 0 0 1 1.027-2.82zm15.035 5.472a1.5 1.5 0 1 1-1.027 2.82 1.5 1.5 0 0 1 1.027-2.82zm-7.517-2.736a1.5 1.5 0 1 1-1.028 2.82 1.5 1.5 0 0 1 1.028-2.82zm15.035 5.472a1.5 1.5 0 1 1-1.028 2.82 1.5 1.5 0 0 1 1.028-2.82zm15.035 5.473a1.5 1.5 0 1 1-1.028 2.82 1.5 1.5 0 0 1 1.028-2.82zm-7.518-2.737a1.5 1.5 0 1 1-1.027 2.82 1.5 1.5 0 0 1 1.027-2.82zm15.035 5.473a1.5 1.5 0 1 1-1.027 2.82 1.5 1.5 0 0 1 1.027-2.82zm15.035 5.472a1.5 1.5 0 1 1-1.027 2.82 1.5 1.5 0 0 1 1.027-2.82zm-7.517-2.736a1.5 1.5 0 1 1-1.028 2.82 1.5 1.5 0 0 1 1.028-2.82zm-96.706-26.685a1.5 1.5 0 1 1-1.027 2.82 1.5 1.5 0 0 1 1.027-2.82zm15.035 5.473a1.5 1.5 0 1 1-1.027 2.82 1.5 1.5 0 0 1 1.027-2.82zm-7.517-2.736a1.5 1.5 0 1 1-1.028 2.82 1.5 1.5 0 0 1 1.028-2.82zm15.035 5.472a1.5 1.5 0 1 1-1.027 2.82 1.5 1.5 0 0 1 1.027-2.82zm15.035 5.472a1.5 1.5 0 1 1-1.027 2.82 1.5 1.5 0 0 1 1.027-2.82zm-7.517-2.736a1.5 1.5 0 1 1-1.028 2.82 1.5 1.5 0 0 1 1.028-2.82zm15.035 5.472a1.5 1.5 0 1 1-1.028 2.82 1.5 1.5 0 0 1 1.028-2.82zm15.035 5.473a1.5 1.5 0 1 1-1.028 2.82 1.5 1.5 0 0 1 1.028-2.82zm-7.518-2.736a1.5 1.5 0 1 1-1.027 2.82 1.5 1.5 0 0 1 1.027-2.82zm15.035 5.472a1.5 1.5 0 1 1-1.027 2.82 1.5 1.5 0 0 1 1.027-2.82zm15.035 5.472a1.5 1.5 0 1 1-1.027 2.82 1.5 1.5 0 0 1 1.027-2.82zm-7.517-2.736a1.5 1.5 0 1 1-1.028 2.82 1.5 1.5 0 0 1 1.028-2.82zm15.035 5.472a1.5 1.5 0 1 1-1.028 2.82 1.5 1.5 0 0 1 1.028-2.82zm15.035 5.473a1.5 1.5 0 1 1-1.028 2.82 1.5 1.5 0 0 1 1.028-2.82zm-7.518-2.736a1.5 1.5 0 1 1-1.027 2.82 1.5 1.5 0 0 1 1.027-2.82zm-104.223-29.421a1.5 1.5 0 1 1-1.027 2.82 1.5 1.5 0 0 1 1.027-2.82zm15.036 5.472a1.5 1.5 0 1 1-1.028 2.82 1.5 1.5 0 0 1 1.028-2.82zm-7.518-2.736a1.5 1.5 0 1 1-1.027 2.82 1.5 1.5 0 0 1 1.027-2.82zm15.035 5.472a1.5 1.5 0 1 1-1.027 2.82 1.5 1.5 0 0 1 1.027-2.82zm15.035 5.473a1.5 1.5 0 1 1-1.027 2.82 1.5 1.5 0 0 1 1.027-2.82zm-7.517-2.736a1.5 1.5 0 1 1-1.028 2.82 1.5 1.5 0 0 1 1.028-2.82zm15.035 5.472a1.5 1.5 0 1 1-1.028 2.82 1.5 1.5 0 0 1 1.028-2.82zm15.035 5.472a1.5 1.5 0 1 1-1.028 2.82 1.5 1.5 0 0 1 1.028-2.82zm-7.518-2.736a1.5 1.5 0 1 1-1.027 2.82 1.5 1.5 0 0 1 1.027-2.82zm15.035 5.472a1.5 1.5 0 1 1-1.027 2.82 1.5 1.5 0 0 1 1.027-2.82zm15.035 5.473a1.5 1.5 0 1 1-1.027 2.82 1.5 1.5 0 0 1 1.027-2.82zm-7.517-2.736a1.5 1.5 0 1 1-1.028 2.82 1.5 1.5 0 0 1 1.028-2.82zm15.035 5.472a1.5 1.5 0 1 1-1.028 2.82 1.5 1.5 0 0 1 1.028-2.82zm15.035 5.472a1.5 1.5 0 1 1-1.027 2.82 1.5 1.5 0 0 1 1.027-2.82zm-7.518-2.736a1.5 1.5 0 1 1-1.027 2.82 1.5 1.5 0 0 1 1.027-2.82zm-96.705-26.684a1.5 1.5 0 1 1-1.027 2.82 1.5 1.5 0 0 1 1.027-2.82zm15.035 5.472a1.5 1.5 0 1 1-1.027 2.82 1.5 1.5 0 0 1 1.027-2.82zm-7.517-2.736a1.5 1.5 0 1 1-1.028 2.82 1.5 1.5 0 0 1 1.028-2.82zm15.035 5.472a1.5 1.5 0 1 1-1.028 2.82 1.5 1.5 0 0 1 1.028-2.82zm15.035 5.472a1.5 1.5 0 1 1-1.028 2.82 1.5 1.5 0 0 1 1.028-2.82zm-7.518-2.736a1.5 1.5 0 1 1-1.027 2.82 1.5 1.5 0 0 1 1.027-2.82zm15.035 5.472a1.5 1.5 0 1 1-1.027 2.82 1.5 1.5 0 0 1 1.027-2.82zm15.035 5.473a1.5 1.5 0 1 1-1.027 2.82 1.5 1.5 0 0 1 1.027-2.82zm-7.517-2.736a1.5 1.5 0 1 1-1.028 2.82 1.5 1.5 0 0 1 1.028-2.82zm15.035 5.472a1.5 1.5 0 1 1-1.028 2.82 1.5 1.5 0 0 1 1.028-2.82zm15.035 5.472a1.5 1.5 0 1 1-1.027 2.82 1.5 1.5 0 0 1 1.027-2.82zm-7.518-2.736a1.5 1.5 0 1 1-1.027 2.82 1.5 1.5 0 0 1 1.027-2.82zm15.036 5.472a1.5 1.5 0 1 1-1.028 2.82 1.5 1.5 0 0 1 1.028-2.82zm15.035 5.473a1.5 1.5 0 1 1-1.028 2.82 1.5 1.5 0 0 1 1.028-2.82zm-7.518-2.736a1.5 1.5 0 1 1-1.027 2.82 1.5 1.5 0 0 1 1.027-2.82zm-104.223-29.421a1.5 1.5 0 1 1-1.027 2.82 1.5 1.5 0 0 1 1.027-2.82zm15.035 5.472a1.5 1.5 0 1 1-1.027 2.82 1.5 1.5 0 0 1 1.027-2.82zm-7.517-2.736a1.5 1.5 0 1 1-1.028 2.82 1.5 1.5 0 0 1 1.028-2.82zm15.035 5.472a1.5 1.5 0 1 1-1.028 2.82 1.5 1.5 0 0 1 1.028-2.82zm15.035 5.473a1.5 1.5 0 1 1-1.028 2.82 1.5 1.5 0 0 1 1.028-2.82zm-7.518-2.736a1.5 1.5 0 1 1-1.027 2.82 1.5 1.5 0 0 1 1.027-2.82zm15.035 5.472a1.5 1.5 0 1 1-1.027 2.82 1.5 1.5 0 0 1 1.027-2.82zm15.035 5.472a1.5 1.5 0 1 1-1.027 2.82 1.5 1.5 0 0 1 1.027-2.82zm-7.517-2.736a1.5 1.5 0 1 1-1.028 2.82 1.5 1.5 0 0 1 1.028-2.82zm15.035 5.472a1.5 1.5 0 1 1-1.027 2.82 1.5 1.5 0 0 1 1.027-2.82zm15.035 5.473a1.5 1.5 0 1 1-1.027 2.82 1.5 1.5 0 0 1 1.027-2.82zm-7.517-2.736a1.5 1.5 0 1 1-1.028 2.82 1.5 1.5 0 0 1 1.028-2.82zm15.035 5.472a1.5 1.5 0 1 1-1.028 2.82 1.5 1.5 0 0 1 1.028-2.82zm15.035 5.472a1.5 1.5 0 1 1-1.028 2.82 1.5 1.5 0 0 1 1.028-2.82zm-7.518-2.736a1.5 1.5 0 1 1-1.027 2.82 1.5 1.5 0 0 1 1.027-2.82zm-96.705-26.684a1.5 1.5 0 1 1-1.028 2.82 1.5 1.5 0 0 1 1.028-2.82zm15.035 5.472a1.5 1.5 0 1 1-1.028 2.82 1.5 1.5 0 0 1 1.028-2.82zm-7.518-2.736a1.5 1.5 0 1 1-1.027 2.82 1.5 1.5 0 0 1 1.027-2.82zm15.035 5.472a1.5 1.5 0 1 1-1.027 2.82 1.5 1.5 0 0 1 1.027-2.82zm15.035 5.472a1.5 1.5 0 1 1-1.027 2.82 1.5 1.5 0 0 1 1.027-2.82zm-7.517-2.736a1.5 1.5 0 1 1-1.028 2.82 1.5 1.5 0 0 1 1.028-2.82zm15.035 5.473a1.5 1.5 0 1 1-1.028 2.82 1.5 1.5 0 0 1 1.028-2.82zm15.035 5.472a1.5 1.5 0 1 1-1.027 2.82 1.5 1.5 0 0 1 1.027-2.82zm-7.518-2.736a1.5 1.5 0 1 1-1.027 2.82 1.5 1.5 0 0 1 1.027-2.82zm15.036 5.472a1.5 1.5 0 1 1-1.028 2.82 1.5 1.5 0 0 1 1.028-2.82zm15.035 5.472a1.5 1.5 0 1 1-1.028 2.82 1.5 1.5 0 0 1 1.028-2.82zm-7.518-2.736a1.5 1.5 0 1 1-1.027 2.82 1.5 1.5 0 0 1 1.027-2.82zm15.035 5.473a1.5 1.5 0 1 1-1.027 2.82 1.5 1.5 0 0 1 1.027-2.82zm15.035 5.472a1.5 1.5 0 1 1-1.027 2.82 1.5 1.5 0 0 1 1.027-2.82zm-7.517-2.736a1.5 1.5 0 1 1-1.028 2.82 1.5 1.5 0 0 1 1.028-2.82zm-104.223-29.42a1.5 1.5 0 1 1-1.028 2.819 1.5 1.5 0 0 1 1.028-2.82zm15.035 5.471a1.5 1.5 0 1 1-1.028 2.82 1.5 1.5 0 0 1 1.028-2.82zm-7.518-2.736a1.5 1.5 0 1 1-1.027 2.82 1.5 1.5 0 0 1 1.027-2.82zm15.035 5.473a1.5 1.5 0 1 1-1.027 2.82 1.5 1.5 0 0 1 1.027-2.82zm15.035 5.472a1.5 1.5 0 1 1-1.027 2.82 1.5 1.5 0 0 1 1.027-2.82zm-7.517-2.736a1.5 1.5 0 1 1-1.028 2.82 1.5 1.5 0 0 1 1.028-2.82zm15.035 5.472a1.5 1.5 0 1 1-1.027 2.82 1.5 1.5 0 0 1 1.027-2.82zm15.035 5.472a1.5 1.5 0 1 1-1.027 2.82 1.5 1.5 0 0 1 1.027-2.82zm-7.517-2.736a1.5 1.5 0 1 1-1.028 2.82 1.5 1.5 0 0 1 1.028-2.82zm15.035 5.473a1.5 1.5 0 1 1-1.028 2.82 1.5 1.5 0 0 1 1.028-2.82zm15.035 5.472a1.5 1.5 0 1 1-1.028 2.82 1.5 1.5 0 0 1 1.028-2.82zm-7.518-2.736a1.5 1.5 0 1 1-1.027 2.82 1.5 1.5 0 0 1 1.027-2.82zm15.035 5.472a1.5 1.5 0 1 1-1.027 2.82 1.5 1.5 0 0 1 1.027-2.82zm15.035 5.472a1.5 1.5 0 1 1-1.027 2.82 1.5 1.5 0 0 1 1.027-2.82zm-7.517-2.736a1.5 1.5 0 1 1-1.028 2.82 1.5 1.5 0 0 1 1.028-2.82zm-96.706-26.684a1.5 1.5 0 1 1-1.027 2.82 1.5 1.5 0 0 1 1.027-2.82zm15.035 5.472a1.5 1.5 0 1 1-1.027 2.82 1.5 1.5 0 0 1 1.027-2.82zm-7.517-2.736a1.5 1.5 0 1 1-1.028 2.82 1.5 1.5 0 0 1 1.028-2.82zm15.035 5.472a1.5 1.5 0 1 1-1.027 2.82 1.5 1.5 0 0 1 1.027-2.82zm15.035 5.472a1.5 1.5 0 1 1-1.027 2.82 1.5 1.5 0 0 1 1.027-2.82zm-7.517-2.736a1.5 1.5 0 1 1-1.028 2.82 1.5 1.5 0 0 1 1.028-2.82zm15.035 5.473a1.5 1.5 0 1 1-1.028 2.82 1.5 1.5 0 0 1 1.028-2.82zm15.035 5.472a1.5 1.5 0 1 1-1.028 2.82 1.5 1.5 0 0 1 1.028-2.82zm-7.518-2.736a1.5 1.5 0 1 1-1.027 2.82 1.5 1.5 0 0 1 1.027-2.82zm15.035 5.472a1.5 1.5 0 1 1-1.027 2.82 1.5 1.5 0 0 1 1.027-2.82zm15.035 5.472a1.5 1.5 0 1 1-1.027 2.82 1.5 1.5 0 0 1 1.027-2.82zm-7.517-2.736a1.5 1.5 0 1 1-1.028 2.82 1.5 1.5 0 0 1 1.028-2.82zm15.035 5.473a1.5 1.5 0 1 1-1.028 2.82 1.5 1.5 0 0 1 1.028-2.82zm15.035 5.472a1.5 1.5 0 1 1-1.028 2.82 1.5 1.5 0 0 1 1.028-2.82zm-7.518-2.736a1.5 1.5 0 1 1-1.027 2.82 1.5 1.5 0 0 1 1.027-2.82zm-104.223-29.42a1.5 1.5 0 1 1-1.027 2.819 1.5 1.5 0 0 1 1.027-2.82zm15.036 5.471a1.5 1.5 0 1 1-1.028 2.82 1.5 1.5 0 0 1 1.028-2.82zm-7.518-2.736a1.5 1.5 0 1 1-1.027 2.82 1.5 1.5 0 0 1 1.027-2.82zm15.035 5.473a1.5 1.5 0 1 1-1.027 2.82 1.5 1.5 0 0 1 1.027-2.82zm15.035 5.472a1.5 1.5 0 1 1-1.027 2.82 1.5 1.5 0 0 1 1.027-2.82zm-7.517-2.736a1.5 1.5 0 1 1-1.028 2.82 1.5 1.5 0 0 1 1.028-2.82zm15.035 5.472a1.5 1.5 0 1 1-1.028 2.82 1.5 1.5 0 0 1 1.028-2.82zm15.035 5.472a1.5 1.5 0 1 1-1.028 2.82 1.5 1.5 0 0 1 1.028-2.82zm-7.518-2.736a1.5 1.5 0 1 1-1.027 2.82 1.5 1.5 0 0 1 1.027-2.82zm15.035 5.473a1.5 1.5 0 1 1-1.027 2.82 1.5 1.5 0 0 1 1.027-2.82zm15.035 5.472a1.5 1.5 0 1 1-1.027 2.82 1.5 1.5 0 0 1 1.027-2.82zm-7.517-2.736a1.5 1.5 0 1 1-1.028 2.82 1.5 1.5 0 0 1 1.028-2.82zm15.035 5.472a1.5 1.5 0 1 1-1.028 2.82 1.5 1.5 0 0 1 1.028-2.82zm15.035 5.472a1.5 1.5 0 1 1-1.027 2.82 1.5 1.5 0 0 1 1.027-2.82zm-7.518-2.736a1.5 1.5 0 1 1-1.027 2.82 1.5 1.5 0 0 1 1.027-2.82zm-96.705-26.684a1.5 1.5 0 1 1-1.027 2.82 1.5 1.5 0 0 1 1.027-2.82zm15.035 5.472a1.5 1.5 0 1 1-1.027 2.82 1.5 1.5 0 0 1 1.027-2.82zm-7.517-2.736a1.5 1.5 0 1 1-1.028 2.82 1.5 1.5 0 0 1 1.028-2.82zm15.035 5.472a1.5 1.5 0 1 1-1.028 2.82 1.5 1.5 0 0 1 1.028-2.82zm15.035 5.473a1.5 1.5 0 1 1-1.028 2.82 1.5 1.5 0 0 1 1.028-2.82zm-7.518-2.737a1.5 1.5 0 1 1-1.027 2.82 1.5 1.5 0 0 1 1.027-2.82zm15.035 5.473a1.5 1.5 0 1 1-1.027 2.82 1.5 1.5 0 0 1 1.027-2.82zm15.035 5.472a1.5 1.5 0 1 1-1.027 2.82 1.5 1.5 0 0 1 1.027-2.82zm-7.517-2.736a1.5 1.5 0 1 1-1.028 2.82 1.5 1.5 0 0 1 1.028-2.82zm15.035 5.472a1.5 1.5 0 1 1-1.028 2.82 1.5 1.5 0 0 1 1.028-2.82zm15.035 5.473a1.5 1.5 0 1 1-1.027 2.82 1.5 1.5 0 0 1 1.027-2.82zm-7.518-2.737a1.5 1.5 0 1 1-1.027 2.82 1.5 1.5 0 0 1 1.027-2.82zm15.036 5.473a1.5 1.5 0 1 1-1.028 2.82 1.5 1.5 0 0 1 1.028-2.82zm15.035 5.472a1.5 1.5 0 1 1-1.028 2.82 1.5 1.5 0 0 1 1.028-2.82zm-7.518-2.736a1.5 1.5 0 1 1-1.027 2.82 1.5 1.5 0 0 1 1.027-2.82zm-104.223-29.42a1.5 1.5 0 1 1-1.027 2.819 1.5 1.5 0 0 1 1.027-2.82zm15.035 5.472a1.5 1.5 0 1 1-1.027 2.82 1.5 1.5 0 0 1 1.027-2.82zm-7.517-2.737a1.5 1.5 0 1 1-1.028 2.82 1.5 1.5 0 0 1 1.028-2.82zm15.035 5.473a1.5 1.5 0 1 1-1.028 2.82 1.5 1.5 0 0 1 1.028-2.82zm15.035 5.472a1.5 1.5 0 1 1-1.028 2.82 1.5 1.5 0 0 1 1.028-2.82zm-7.518-2.736a1.5 1.5 0 1 1-1.027 2.82 1.5 1.5 0 0 1 1.027-2.82zm15.035 5.472a1.5 1.5 0 1 1-1.027 2.82 1.5 1.5 0 0 1 1.027-2.82zm15.035 5.473a1.5 1.5 0 1 1-1.027 2.82 1.5 1.5 0 0 1 1.027-2.82zm-7.517-2.737a1.5 1.5 0 1 1-1.028 2.82 1.5 1.5 0 0 1 1.028-2.82zm15.035 5.473a1.5 1.5 0 1 1-1.027 2.82 1.5 1.5 0 0 1 1.027-2.82zm15.035 5.472a1.5 1.5 0 1 1-1.027 2.82 1.5 1.5 0 0 1 1.027-2.82zm-7.517-2.736a1.5 1.5 0 1 1-1.028 2.82 1.5 1.5 0 0 1 1.028-2.82zm15.035 5.472a1.5 1.5 0 1 1-1.028 2.82 1.5 1.5 0 0 1 1.028-2.82zm15.035 5.472a1.5 1.5 0 1 1-1.028 2.82 1.5 1.5 0 0 1 1.028-2.82zm-7.518-2.736a1.5 1.5 0 1 1-1.027 2.82 1.5 1.5 0 0 1 1.027-2.82zm-96.705-26.684a1.5 1.5 0 1 1-1.028 2.82 1.5 1.5 0 0 1 1.028-2.82zm15.035 5.472a1.5 1.5 0 1 1-1.028 2.82 1.5 1.5 0 0 1 1.028-2.82zm-7.518-2.736a1.5 1.5 0 1 1-1.027 2.82 1.5 1.5 0 0 1 1.027-2.82zm15.035 5.472a1.5 1.5 0 1 1-1.027 2.82 1.5 1.5 0 0 1 1.027-2.82zm15.035 5.473a1.5 1.5 0 1 1-1.027 2.82 1.5 1.5 0 0 1 1.027-2.82zm-7.517-2.737a1.5 1.5 0 1 1-1.028 2.82 1.5 1.5 0 0 1 1.028-2.82zm15.035 5.473a1.5 1.5 0 1 1-1.027 2.82 1.5 1.5 0 0 1 1.027-2.82zm15.035 5.472a1.5 1.5 0 1 1-1.027 2.82 1.5 1.5 0 0 1 1.027-2.82zm-7.517-2.736a1.5 1.5 0 1 1-1.028 2.82 1.5 1.5 0 0 1 1.028-2.82zm15.035 5.472a1.5 1.5 0 1 1-1.028 2.82 1.5 1.5 0 0 1 1.028-2.82zm15.035 5.473a1.5 1.5 0 1 1-1.028 2.82 1.5 1.5 0 0 1 1.028-2.82zm-7.518-2.737a1.5 1.5 0 1 1-1.027 2.82 1.5 1.5 0 0 1 1.027-2.82zm15.035 5.473a1.5 1.5 0 1 1-1.027 2.82 1.5 1.5 0 0 1 1.027-2.82zm15.035 5.472a1.5 1.5 0 1 1-1.027 2.82 1.5 1.5 0 0 1 1.027-2.82zm-7.517-2.736a1.5 1.5 0 1 1-1.028 2.82 1.5 1.5 0 0 1 1.028-2.82z" fill="#585BF2" opacity=".8"/></g></svg>