<svg width="1056" height="792" xmlns="http://www.w3.org/2000/svg"><g fill="none" fill-rule="evenodd"><path fill="#F8A5BB" d="M478 354h250v240H478z"/><path d="M678.099 190.38c-.47-.49-.575-1.059.062-1.718 1.179.129 2.397 1.142 3.526.866.374.536-.711 2.003-.897 2.162-.673-.464.013-.172.166-.601-1.051-.76-2.002-1.26-2.857-.71zm10.273 4.477c.895.882-.29 2.088-1.163 2.503-1.337-.862-1.503-1.662-2.192-2.261.144-.497.516-1.363 1.123-1.438 1.013.73 1.065 1.99 2.232 1.196zm18.027 17.6c-.365-.468-.221-.964.327-1.51-.722-.869-1.296.022-2.061-.636.12-.699.684-1.11 1.241-1.589.369.776 1.565.492 1.929 1.507-.696.736-.786 1.396.097 1.904-.534-.174-1.057.027-1.533.325zm-12.807-12.444l-.887 1.135c-.36-.708-1.084-1.03-1.778-1.389.47-.912.626-1.034 1.426-1.2.904.401.296 1.023 1.239 1.454zm-20.234-14.13l-1.967-1.536c-.066-.54.242-1.09.55-1.64.488.623 1.277 1.484 2.081 1.624-.144.497-.318 1.031-.664 1.552zm-7.398-7.923c.232.483.234 1.027-.234 1.626-.34-.266-.54.301-.906-.166-.074-.841.428-1.172 1.14-1.46zm16.777 14.65c.18.628 1.227 1.08 1.74.813.188-.707-1.233-1.696-1.74-.813zm-.92 3.354c-.49.47-.14.804-.735 1.253.285.649.643.502.599 1.26-.741.09-1.326.06-1.606 1.12-1.367-.824-.262-1.848-1.927-2.601 1.076-.987 1.508-2.477 2.844-3.017.188.695.001 1.402.825 1.985zm13.46 16.557c-1.07-1.202-1.313-2.061-2.761-2.157 1.247-2.376-1.473-4.196.515-6.663.623.06 1.271.323 1.937.173.674 1.319-.285 3.249-.949 4.254-.128 1.178 1.522 1.25 1.616 2.298.644-.045 1.23-.562 2.025.059-.272 1.127-1.578 1.63-2.383 2.036zm9.665 3.298c.402-.904 1.046-.95.85-1.712.322-.723.959.566 1.293-.33.366.469.626.915 1.02 1.346-.263 1.195-.915 2.574-1.816 3.027-.774-.726-.67-1.56-1.347-2.331zm-3.07-5.91c.403 1.045-1.057 2.524-1.967 2.91-.676-.773-1.758-.948-1.967-1.537 1.368-1.673 2.065-2.956 3.935-1.373zm-27.743-16.884c-.279-1.436-1.79-1.764-2.608-2.586-.604-1.02 1.133-2.465 1.968-2.91.824.583.092 2.144 1.479 1.46.314.612-.555 1.334-1.049 2.044.884-.04 1.741.812 2.08 1.626-.57.65-1.246-.121-1.87.366zm13.083 5.5c.427 1.247 1.345 2.878-.682 3.913-.857-.852-.793-1.167-1.73-1.839 1.074-.44 1.232-1.656 2.412-2.074zm59.19 49.126l-.795-.62c.17-.53.226-.367.61-1.092.856.307 1.063 1.133 2.045 1.357-.265 1.12-1.217.857-1.34 2.028-.268.031-.474-.25-.717-.018-.203-.52.064-1.095.197-1.655zm-5.707-6.02c.517.585-.814 1.354-.766 1.994-.65-.026-1.288-.223-1.935-.487.794-1.249 1.758-1.158 2.7-1.507zm-60.727-40.915c.675-.63.406-1.144 1.081-1.774.871.132 1.753 1.187 2 1.806.589.338.738-.398.928-.798.307-.003.594.098.913.47-.687.255-.492 1.565-.746 2.28-.514.268-1.088.612-1.719.484.49-.47.14-.803.735-1.253-.491-.384-.935.184-1.382.444-1.5-.808-.882-.508-1.81-1.659zm-16.493-15.505c-.64.352-.574.891-1.076.987-.693-.36.52-1.056.703-1.522.054.164.146.358.373.535zm24.811 23.522c.342-.281.212-.504.381-.799.986-.326 1.156-1.168 1.97-1.507 1.07 1.202-1.086 3.416-2.35 2.306zm-1.626-4.549c1.472.846 3.954 1.567 1.568 3.296-.235-.245-.942-.432-.369-.776-.349-.333-.519.509-.81.647-.633-.982-1.267-1.965-.389-3.167zm-16.598-13.068c-1.135 1.062-2.55-.166-3.777.155-.474-.796-.14-1.692.254-2.664 1.678-.821 1.885 2.812 3.268 1.822.13.223-.077.488.255.687zm31.29 23.348c-.877.655-.398 1.212-.631 1.822-.6-.713-.931-1.459-.281-2.291.281.342.51-.028.912.47zm-7.696 1.65c2.16-4.403 4.153.687 2.528 2.767-.922.011-1.4-1.093-1.512-1.729-.718-.561-1.273.772-2.058-.329.182 1.483-1.623 2.935-3.055 1.572.403-1.451 2.56-2.263 3.118-3.29.07.3-.052.691.558.924.143.05.27-.033.42.085zm-3.795-7.276c2.299 1.736.684 4.738-1.34 4.679-.482-1.412.011-3.524 1.34-4.679zm-21.348-12.05c-.613-.54-.966.77-1.566.056.07-1.102 1.17-1.887 1.71-2.5 2.719.418 1.914 2.774 1.708 4.44-.561.719-1.433-.815-2.062-.089-.236-.244.09-.66-.558-.923.262-.647.295-.378.768-.983zm-7.414-5.975c.05-1.545 1.694-.687 1.84-1.73.074.606.835.957 1.219.465.343 1.121-.713 2.55-1.67 2.838-.713-.801-.595-.952-1.39-1.573zm14.426 13.423c-1.008-.97-1.58-1.173-2.033-2.075.823-.82.778-1.464 1.504-2.237.608.78 1.661.446 2.582.983-.406 1.144-1.609 2.215-2.053 3.33zm7.39.175c.296 1.57 2.049.808 2.61 2.039-.754.263-1.404 1.096-2.075 2.033-.16-.186-.332-.199-.459-.115-.483-.317-.66-.637-.297-1.023-.437-.22-.716.293-1.178-.13.461-.98.262-2.596 1.4-2.804zm53.544 42.946c-.833.676-2.04-.508-2.32 1.02.347 1.116 2.708-.113 2.32-1.02zm7.186 5.88c-.743 1.107-.943 1.675-1.978 1.83-.555-.614-.005-1.63-1.246-1.757.311-1.022.819-1.048 1.526-1.64.71.494 1.353.996 1.698 1.567zm-43.783-33.98c.83-.205.797.928 1.626 1.27-.568.105-1.23.015-1.86-.66.216-.198.423-.462.234-.61zm-16.986-10.096c1.21.946 2.557 1.328 2.07 2.653-1.084.92-1.874.059-2.638 1.35-1.236-1.148-.218-2.607.568-4.003zm-19.172-14.78c1.24.907 1.17 2.01.966 3.13-.907.692-3.153-.332-3.386-1.671.966-.768 1.778-.56 2.42-1.46zm25.078 22.844c-.987-1.075.783-2.25 1.732-1.204.067.539-.714 1.148-1.122 1.437-.236-.244-.421-.085-.61-.233zm-20.556-15.798c.229-.917.621-1.342 1.359-1.74.587.885.845.477 1.623.963-.214 1.6-1.705 1.714-2.982.777zm11.635 5.976c-.582.824-1.24 1.042-1.81 1.693-.664-.397-.52-.894-.75-1.378.789-.542 1.623-.986 2.56-.315zm-23.124-16.647c-.404-.496-.63-.13-.911-.47-.673.86.496.689.91.47zm35.39 29.564c-.511 1.123-.417 2.171-.486 3.274-1.743-.265-1.752-1.734-2.913-2.275.78-.61.445-1.115.513-1.67 1.214-.697 1.718.062 2.887.67zm-14.405-6.25c-.231.062-.542-.241-.757-.044-1.025-1.105-.907-3.206.87-3.766.754.284-.073.796.18 1.175.432.46.771-.676 1.329.247-.974.701-1.093 1.4-1.622 2.388zm-19.99-14.954c-1.11-.684.273-1.675-1.124-1.913-.1-.809.55-1.641.826-2.461 1.19.503 2.255.543 2.189 1.954-1.369.27-.497 1.805-1.891 2.42zm79.382 61.412c-.852-.546-.104-1.347-.823-1.909.523-.435.472-.837.726-1.241 1 .359.389.906 1.023 1.342.399.19.623-.72.946-.587-.311 1.022-1.103 1.489-1.872 2.395zm-54.151-42.018c-.768-.965.08-2.13.487-3.274 1.022.25 2.35 1.045 2.003 2.114-.788.541-1.601.88-2.49 1.16zm13.876 8.841c-.196-.762-.22-1.511.056-2.332.301.784.556.069 1.215.706.058.472-.77 1.53-1.27 1.626zm1.936-.442l.492.384c-.355.454-.787-.006-1.112.41-.416-.325.448-.807.62-.794zm-48.247-33.234c-.234-1.027-.84-1.5-1.44-2.21.154-.12.166-.292.082-.418.95-.826 1.361 1.064 2.314 0l.53.413c.129 1.005.565 1.226 1.28 2.026-.755 1.278-1.951-.62-2.766.189zm35.055 29.835c-.56.171-1.178-.13-1.755-.093-.453-.902-.434-1.861.76-3 .962.874 2.237.957 2.033 2.076.45.047.801-.714 1.227-.869.294.17.184.388.336.506-.427.702-.886.588-1.37.818.858.305.823.583.78 1.34-.309.551-.809.1-1.113.41-.454-.354-1.253-.734-.898-1.188zm-35.226-26.647c.044-.99.986-1.34 1.117-2.443.9 1.186 4.81 1.407 2.79 3.446-.743-.219-1.515-.4-2.057.684-.182-.625-1.227-1.08-1.85-1.687zm29.969 20.721c.279-.164.595-.246.968-.17.566.99-1.241 1.588-1.696 1.78-.055-.164-.117-.395-.374-.535.157-.178.317-.374.49-.557-.648-.197-1.272-.567-1.803.043-.816-.515-.553-1.163-.754-1.685.481-.538.979-.941 1.506-1.382.689.6 1.109 1.232 2 1.806-.27.26-.285.477-.337.7zm-22.277-15.022c-.796-.073-.553.786-1.375 1.058-.039-1.431.254-2.664 1.936-3.726 1.252 1.283 2.545 2.902.648 4.161-.904-.402-.297-1.024-1.21-1.493zm47.974 34.311c-.304.311-.723-.321-1.027-.01-.185-.388-.124-1.011.318-1.031.513.279.225.725.709 1.041zm-38.108-29.179c.47.49-.246.783-.588 1.064.212-.504-.683-1.386-1.098-.31-.508-.518-.558-.923-1.182-.436-.773-.725-.589-2.287.073-2.744.324.13.214.35.067.539 2.002-1.238 2.024 2.008 2.728 1.887zm5.148 7.347c-.285-.649-.33-1.293-.278-1.983 1.049-.095 2.92.94 1.158 2.183-.286-.102-.623-.06-.88-.2zm-17.014-15.294c-.437-.22-.365-.468-.562-.683.164-.055.396-.117.535-.374l.53.414-.503.643zm1.417 8.192c.55-1.094 1.071-2.697-.237-3.049.793-.781 1.78.295 2.586-.66 2.071 2.106 1.428 3.553-.08 5.482-.724.225-1.98-.817-1.36-1.611-.302-.237-.543.306-.909-.162zm35.499 25.844c-1.391-1.026.63-1.274.746-2.28.934.364 2.113-.054 2.62 1.012-.716.293-.963 1.623-1.89 2.42-.358-.4-.616.008-.913-.469.098-.593.086-.968.735-1.253-.53-.413-.818.58-1.298.57zm-37.992-29.972c-2.715 1.838-4.459-1.778-2.632-3.336 2.265-1.885 2.205 2.089 2.632 3.336zm11.703 10.934c-2.626-.224-.574-3.007-1.826-4.29.547.002 1.128.273 1.596-.093.327.439.581 1.673 1.22.466.86 1.16-.503 2.592-.99 3.917zm9.078 3.019c-.343.828-1.597.64-2.232 2.155-1.308-.353-.908-.71-2.08-1.626.33-.656.759-.503 1.118-1.197.427-.702-.719-.562-.68-1.08.39-.73 1.022.799 1.453-.143.38 1.15 2.024.606 2.421 1.89zm6.415 4.884c.835 1.505-1.182 1.513-2.01 2.572-1.185-.744-.513-1.681-1.497-2.45.586-.516.394-.971.816-1.433.374-.012.736.149 1.065.04.273.274.171.56-.162.909.638.742 1.162-.006 1.788.362zm4.161 3.455c2.526-.037 1.953 2.256.914 3.82-.615.007-1.192.044-1.785-.054-.713-1.349-.643-2.452.871-3.766zm14.62 11.594c.698.12 1.548.357 1.167 1.156-.418.77-1.482.182-1.67-.513l.502-.643zm-54.747-42.518c.736.695.851 1.328 1.85 1.686-.428 1.172-1.019 2.942-2.057 3.336-.053-.946-1.142-1.736-.486-2.731-.303-.236-.542-.242-.755-.047.353-1.232.452-1.515 1.448-2.244zm66.278 54.783c-.399-.738-.5-.999-1.357-1.304.469-.912.94-.97 1.237-1.896.377.843.14 1.693 1.19 2.453-.291.685-.72.533-1.07.747zm13.914 10.962c-1.138-.648-.727-1.954-2.001-1.805.532-.368.532-.368.76-.973.638.197 1.408 1.16 1.978.822.412.563.118 1.72-.737 1.956zm5.437 2.717c.555.614 1.231.84 2.007.784-.102 1.065-.789 2.88-1.19 3.47-.477-1.337-2.181-1.885-1.963-3.1-.547.778-1.38.91-2.28 1.594-.297-1.257 1.4-1.559 1.603-2.364.877.203 1.343.386 1.823-.384zm-71.21-54.096c.228-.37.476-.298.691-.496.433.46.566.991.902 1.497-.721.533-.9-.642-1.593-1.001zm-1.29 2.966c.435-.635-.275-1.129.661-1.86.981-.086 1.638 1.646 2.247.477.206.283.21.59.415.872-.907.693-.466 1.22-.631 1.822-.905-.402-1.767-.467-2.692-1.311zm8.152 5.31c-.411-.564-.64.353-.994.26-.781-.793-.153-1.52.177-2.176 1.416-.721 2.441 2.333 3.685 1.599.633.982-.732 1.56-1.285 2.346-1.076-.962-1.459-1.017-1.583-2.028zm-21.635-14.119c-.392-.668-.24-1.331-.564-2.007 1.252-.59 2.258-.707 3.38.35-.448 1.277-1.726 1.665-2.816 1.657zm6.258 4.583c-.31-.851.256-1.81.59-2.706.734-.158 1.587.387 2.436 1.172.412 1.967-1.785 1.895-3.026 1.534zm12.88 7.554l.946.739c-.38.799-.902.452-1.448-.096l.502-.643zm8.364 5.917c.454.355-.14.804.68 1.08-.549.545-1.13.822-1.803.357.343-.828 1.378-.75.28-1.06.274-.273.527-.44.843-.377zm-26.913-11.659c-.914-1.871.53-5.434 2.703-4.162-.044.758.279 1.436.707 2.136-1.13.823-1.49 2.064-2.498 2.495-.298-.476-.526-.106-.912-.469zm15.514 6.576c2.296-.521.421 2.034 2.41 2.918-.413.53-.994.26-1.515-.087-.637.66-.802 1.261-1.2 1.925-.5-.451-.876.108-1.409-.613.09-.661.47-.913.584-1.371-.4-.19-.682.015-1.027-.011-.68-1.08 1.29-2.586 2.234-3.25.19.148-.026.346-.077.489zm47.656 37.816c.75 1.378-1.42 2.91-2.649 2.377.104-1.38-2.149-1.07-1.582-2.576.704-.12 1.198-.83 1.54-1.66.497.145 1.011-.123 1.638.244.5.452.405 1.353-.125 1.486.399.19.828.343 1.178.129zm-55.579-39.074c-.8-.38.019-.96-.443-1.381-.436-.768-.6.689-1.027-.011-.052-1.259.859-2.192 1.968-2.909 1.101.617 2.019.846 2.458 1.92-1.121.89-.656 1.62-.902 2.403-.71-.494-1.285.397-2.054-.022zm29.562 19.1c-.79 1.088-1.709 1.953-2.19 2.49-1.177-.675-.864-1.466-1.734-2.146-.858-.305-1.477 1.344-2.268 1.578-.404-.497-.214-.35-.833-.65.207-.265.3-.618.238-.85 1.188-.35 2.306-1.548 3.595-1.638.675-.63-.672-1.012-.094-1.596 2.165-.197 2.654 1.282 3.286 2.811zM666.603 224.3c.275-.82.864-2.431 1.891-2.42.916.776 1.13 1.673 1.764 2.108-1.01 1.526-3.063 2.907-3.655.312zm7.374 6.44c-.402-1.044-2.024-2.555-.578-3.314.01-.48-1.03-.865-1.02-1.345.96.019 2.277.439 2.544 1.5 2.198-.475.794 2.57-.037 3.322-.349-.334-.664-.397-.909-.162zm26.736 20.742c-.411-.565-.187-1.242-1.05-1.307.155-1.524 1.956-2.737 3.4-1-.22.438-.693 1.043-.67 1.793-.53.133-1.095.545-1.68.514zm-5.97-4.456c-1.085-.482-.581-1.672.24-1.944.153-.43-.878-.747-1.205-1.186.384-.492.884-.04 1.227-.869.774.179 1.117 1.3 2.014 1.087.437.22-.166.601.108.876-1.134.515-1.396 1.163-2.384 2.036zm-54.72-43.252c-.582-.034-.689-.6-.91-.471.273-1.052 1.09-1.318 1.267-2.325 1.225-.008 1.135.887 2.08 1.625-.086.657-.545 1.322-.43 1.955.585-.749 1.983-.2 1.978.821-.217.434-.566.1-.804.639 1.154 1.564 1.251 3.388-.742 4.302-.896-.88-1.582-.392-2.421-.565-.368-1.01.642-2.693 1.34-3.353.22-.672-1.22-.23-.262-.99-.857-.307-.848-.24-1.704-.547.359-.382.651-.756.609-1.091zm47.799 35.002c.81-.646 1.867.728 2.738.86.12 1.251-1.337 1.088-1.592 2.35-.574-1.057.738-2.347-1.146-3.21zm33.951 28.367c-.44.018-.851-.002-1.33-.557.207-.5.653-1.54-.062-2.339.255-.404.506-.57.765-.668.95.5.385 1.145 1.393 1.57-.153.664-.143 1.275-.766 1.994zm7.446 3.49c-.099.828-.33.889-.952 1.608-.614-.54-1.172-.916-1.743-1.121.215-.977.512-1.046.766-1.994.268-.031.634.436.871-.102.786.553-.05 1.468 1.058 1.61zm-14.115-10.412l.503-.643c-.525-.653-1.221.082-1.253-.735.819-1.127 1.754.64 2.165 1.204-.389.732-.86.79-1.415.174zm-81.429-60.352c-.584-.577.725-.46-.262-.99.794-.704.39-1.2.955-1.845.591.1.613.54 1.403.855-.358.926-1.177 1.974-2.096 1.98zm9.789 17.59c-.623-.578-.955-.742-1.737-1.583.082-1.275.867-2.124 1.552-3.234 2.843.153 2.362 2.789.754 4.49.272-.117.552-.184.826-.186.82.823.493 1.786 1.08 2.672-1.03 1.63-2.456.882-3.74.732-.312-1.03.349-2.226 1.265-2.89zm49.005 25.943c-.212.505-1.272.224-.958.836.3-.071 1.663-.102.958-.836zm-4.5 1.094c-.268-.514-.267-1.062.206-1.667.367-.08.82.276 1.187.196.347.88-.647 1.14-1.393 1.47zm22.222 14.755c-.136.564-.475 1.7-1.208 1.858-1.231-.84-.816-1.917-.267-3.01.472-.058.706.734 1.475 1.152zm-19.037-5.85c-1.058-1.376-2.048-2.759-1.556-4.324-1.153-.474-1.523-.702-1.97-1.844.607-.621 1.434.269 2.058-.218.386-1.04 1.334-1.395 2.227-1.915.356.948-1.94 2.016-1.396 3.112 2.77.276 3.652 3.28 1.022 4.697.144 1.452 1.969 2.39 2.783 3.453-1.414 1.576-3.133.659-4.94-.692.183-1.014 1.214-1.244 1.772-2.27zm5.618-3.915c-.376.56-.83.205-1.16.861-2.859-1.564.476-3.649 1.16-.86zm6.207 6.856c-.71-.494-.776-1.033-1.66-1.54.334-.35.465-.673.163-.91.384-.491.859-.242 1.23-.56.693.906 1.721 2.318.267 3.01zm-55.255-41.648c-.84-.718-.544-1.643.262-2.597 1.31-.195 1.303 1.14 1.844 1.928-.295.378-.649.285-.928.798-.504-.212.831-.752.318-1.031-.522.2-1.015.364-1.496.902zm10.175 3.969c-1.01.124-.111.766-.398 1.212-.926-.297-1.83-.7-1.698-1.57-.16-.186-.922.01-.535.373-1.192.044-.713-1.348-.248-2.021 1.047.453 2.094.905 2.879 2.006zm18.414 15.102c-.547-.002-1.103-.07-1.533.325-.837-.41-.394-.978-.97-1.489 1.042-.709 2.658-.36 2.503 1.164zm-7.389-4.891c-.27.58-.686.255-.89.827-.222-.417-.676-.772-.022-1.297.319.371.577-.036.912.47zm28.83 28.774c-1.877-.248-2.33-2.552-1.793-4.02 2.624-.63 3.241 2.167 1.793 4.02zm-41.679-35.144c2.741-.234 2.077 3.267-.154 4.874-.372-1.082-1.099-1.711-1.737-2.454.65-.832 1.708-1.406 1.891-2.42zm21.369 15.22c.196.763.499.999 1.286 1.005.394.977-1.168 2.742-2.124 3.03-.374-.535-.545-1.095-.476-1.65-1.2-.024-1.775-1.082-.977-2.104.746-.33 1.545.05 2.291-.28zm23.892 23.084c.53-4.032 5.241-1.874 3.041 1.097-1.57.296-1.61-1.136-3.041-1.097zm-30.805-24.047c-.479-.557-.82-.276-1.253-.736.086-.968-.472-1.89-.356-2.897.27-.58.657-.217.928-.798.745.217.981 1.863 1.703.783.463.422.76.898 1.02 1.345-.592 1.304-1.792 1.28-2.042 2.303zm41.296 29.855c-1.87 2.315-4.168-1.916-1.498-2.45.71.495 1.354.997 1.69 1.503-.339.589-1.046.402-.192.947zm-73.878-53.872c-1.521-1.25-4.436-2.743-2.824-5.04-.5-.45-.837.37-1.33-.013-.374-.534-.594-1.188-.067-1.862.512.28 1.016.492 1.442.102.32.37.304.78.452 1.137 1.715-.167 2.591 1.361 3.516 2.205-.517.74-1.21.38-1.749 1.225.119.394 1.204.097 1.554.973-.044.447-.357.926-.536 1.39 1.277.937.907 2.034 1.543 3.013-.163.054-.394.115-.531.369-.776.057-.447-.832-1.178-1.222-.683.25-1.36.806-2.198-.15.148-.969.904-2.247 1.906-2.127zm25.996 20.018c-1.972-.75-3.307-2.706-1.594-4.352.896.334 2.34.123 2.805 1.4-.435.634-.916 1.172-1.384 1.537-.018.413.751.831.173 1.415zm19.987 11.767c.345.026.695-.188 1.024-.296.079.366.42.632.528.96-1.301 2.212-2.47-.346-3.81-.113.297-.926.862-1.337 1.697-1.781.454.354.339.813.561 1.23zm32.7 27.899c-.676-.77-1.238-2.234-.217-2.762.82.822 1.506 1.659.821 2.691-.21-.043-.42-.087-.603.071zm-84.576-42.188c.215.38.515.76.83 1.152-.339.588-.78.608-1.227.868-.099.594.515 1.134.783 1.648-.367.627-.785.849-1.156 1.168.49.932 2.089 1.693 2.377 2.65-.655 1.071-1.392 1.47-2.146 1.733-.655-.877-3.45-.807-2.87-3.033-.668-.157-1.701-1.33-.668-2.106.559.375 1.084 1.03 1.585.933.132-.87-.968-2.035-1.797-2.378.438-1.191 1.136-2.966 2.04-3.73-.195.09-.383.233-.558.457.486-1.791-1.026-2.43-2.649-2.613.11-.998 1.596-1.887 1.72-2.513-.094-.737-1.06-1.372-.408-2.128-.475-.25-.731.936-1.218.857-.757-.591-.633-1.218-1.515-1.726.085-1.2 1.052-1.891 1.989-2.545.664.398 1.792.435 2.075 1.32-.246.47-.562 1.188-1.257 1.61.127.46 1.478.913 2.08 1.625-.179.463-.358.926-.805 1.42.103.804 1.367 1.37.828 2.214.387.363.735.152 1.061.046.434.459-.512 1.046-.126 1.408 1.115-.335 1.91.286 2.055 1.425-.234.3-.562-.138-.808.333a1.586 1.586 0 0 1-.215-.095zm-.484-.578c-.083-.216-.143-.44-.353-.632-.248-.01-.507-.037-.766-.027.446.253.64 1.016 1.119.66zm2.98-.93c1.518.919 3.716 1.745.854 4.339-1.288.09-1.357-1.304-2.539-1.74-.264-.799 1.37-2.186 1.575-2.622-.339-.069-.672-.097-.995.032-.676-.772-.291-1.264-1.356-1.304-.107-1.423 1.05-2.591 2.2-3.519 1.114.992.907 1.257 2.042 2.143-1.038 1.017-.084 1.823-.95 2.852-.278-.038-.556-.118-.83-.18zm89.912 47.988l-.498.636c-.91.073-1.585-1.48-.789-1.641.4.19 1.029.321 1.287 1.005zm-93.384-72.164c-.614.786-1.335 1.006-2.023.951-.61-.778.055-1.162-.827-1.67.136-.798.549-.235 1-.968.686.838 1.202.879 1.85 1.687zm41.807 36.905c-.416-.325-.738.398-1.112.41-1.56-.732-4.747-2.734-1.553-4.015.963.326.561 1.23 1.167 1.156.766.11 1.33-1.155 2.103-.977.335 1.054-.843 2.327-.605 3.426zm25.329 18.979c-.49.47-1.078.132-1.63-.176-.052-.712.135-1.419.898-2.162.803.688.97 1.488.732 2.338zm-42.171-30.23c-.584-.578.285-1.3.779-2.01.863.065 2.298.333 2.535 1.432-1.013 1.219-2.174.678-3.314.578zm-5.812-7.335c.912.469.86 1.16 1.242 1.762-.77.129-1.583-.08-2.436-.624.409-.29.826-.512 1.194-1.138zm26.606 22.332c-.337.041-.715-.255-1.064-.588.161-.362-.053-.711.31-1.098.758.044 1.564 1.039.754 1.686zm6.732 3.567c.458.115.83-.204 1.33.248-.207.264-.55.546-.352.76-.581.277-.975-.7-.978-1.008zm-18.703-13.667c-.736-.149-1.306.502-2.024-.06-.05-.403.275-.82.09-1.207.38-.252.793-.234 1.18-.419.441.528.276 1.13.754 1.686zm39.771 30.88l-.502.644c-.896-.335-.175-.868-.292-1.264.295-.378.74.457.794.62zm-49.876-38.977c.552-.238 1.046 1 1.253.736.129.77-1.083.372-1.634.063.005-.24.144-.496.38-.799zm-19.722-13.21c-.189-.148-.294-.17-.448-.05-.48-.555.428-1.172.877-1.123.416.325-.107.76-.429 1.172zm58.535 45.186c.849.785.402 2.994-.338 4.487-2.693-.764-3.423-3.65-.84-4.616.319.371 1.409.614 1.178.129zm3.37 6.854c.496-1.257 1.3-1.664 2.232-2.155.836.958.197 2.165 1.109 3.181-.498.403-.292.686-.617 1.102-1.364.03-1.985-1.124-2.724-2.128zm-11.391-11.753c1.49-.114 3.298 1.237 2.794 2.427-1.041 2.658-5.806.337-2.794-2.427zm-35.622-23.43c1.084-.92 1.356-2.048 2.649-2.378.786.553.532 1.269 1.086 1.884-.495 1.258-1.922 1.057-1.924 2.152-1.116.103-.89-1.122-1.811-1.659zm-11.404-8.43c-2.192-.86-1.758-2.896-.264-4.652.165-.055.476.249.72.014.323.678.237 1.646 1.213 1.8-.091 1.208-.505 1.738-1.67 2.838zm8.611 2.698c-1.517 1.007.295 2.118-.605 3.425l-1.097-.857c-.442.02-.801.714-1.194 1.138-.625-.914-.345-1.975-1.682-2.836.262-2.05 3.343-3.967 3.4-1 .457.663.7-.427 1.178.13zm35.283 28.216c.255.687.688 1.146 1.437 1.123.777-.916-.838-1.812-1.437-1.123zm-16.92-13.477c.424.393.616-.554 1.065.04.55.856-.113 1.861-.103 2.783-.605-.473-1.086.065-1.671.034-1.332-1.101-1.61-3.085.148-4.087.673-.083.204.83.561 1.23zm13.16 9.618c1.61.589 1.858 3.157.378 4.194-.941-.979-.9-2.044-1.871-2.985.431-.942 1.061-.267 1.493-1.21zm-19.74-15.48c-.838.684.18 1.175.785 1.647-.342.282-.212.505-.314.791-.733.159-.548.546-1.227.869-.723-.322-.339-.813-.292-1.264-.361-.16-.657.218-1.098-.31.158-.668.555-1.333.817-1.98.467.182.805-.407 1.33.247zm10.79 11.857c.532-.681.996-1.354 1.578-1.63 1.493.74 2.025 2.008.842 3.52-.89-.574-.96-1.42-2.42-1.89zm-45.3-35.61c-.396-.43-.521.978-.955.52-.512-.28.203-.807-.108-1.11.413-.762 1.087.246 1.483-.65.232.483.359.944 1.06 1.371-.462.904-.514 1.828-.508 2.677-.667-.16-.85-1.327-1.966-1.536.99.291.85-.542.994-1.273zm95.005 72.825a1.05 1.05 0 0 0-.532.368c-.559-.376-.602-.71-.146-1.138.4.19.606.472.678.77zm-36.451-26.94c1.55 1.211-1.01 2.073-.905 3.496-1.65.476-1.91-2.467-3.3-2.091-.773-.726-.805-1.543.107-2.475.601.165.828.342 1.134.886 1.006.116 2.032.674 2.964.183zm19.102 15.163c-.498.403-1.012.672-1.497.902-.092-.194-.184-.388-.373-.535.544-.307.99-.567 1.496-.902.324.13.147.358.374.535zm-13.895-10.269c.115.944-.48 1.94-1.508 1.93-1.5-.808-1.528-1.865-1.951-2.804 1.294-.877 2.164-.198 3.459.874zm4.31 4.092c.754.284.94.124 1.136.887-.577.036-.407 1.144-1.156 1.167-.487-.624-.503-1.306.02-2.054zm21.713 17.33c-.552.474-1.226-.535-1.744.206-.42-.63-.457-1.443.38-1.813.9.642 1.282.7 1.364 1.608zm-74.258-54.739c-2.223.273-3.35-3.897-.648-4.16.125 1.01 1.236 1.147 2.114 1.894.019.99-1.417 1.268-1.466 2.266zm59.144 43.803c-.31-.304.524-.748.011-1.027-.623-.06-.794 1.328-.01 1.027zm-72.18-56.765c-.15.426-.07.79-.123 1.17.738-.086.437.22.983.769-.725-.085-1.413-.14-2.118-.33.255-.403.203-.805.726-1.24-.517-.586-.877-.204-1.257.283-.555-.615.18-1.245.843-1.39.567.442.27.511.945.738zm26.57 21.99c-.762-.352-1.307.502-2.055-.022.338-.589.07-1.103.812-1.741.77-.129.887.814 1.49.432.491.385-.028.893-.248 1.33zm5.134 1.658c.69.6 1.85 1.14 1.394 1.88.534.174 1.015-.364 1.67.514-.47.912-1.15.38-1.615 1.053l-1.929-1.507c.562-.72-.632-1.53.48-1.94zm-14.4-7.679c-.764-.658.433-1.489.964-1.623l.492.385c-.486.777-.576 1.438-1.455 1.238zm-15.089-13.472l1.135.886c-.184.158-.196.33-.112.455-.54.302-1.149.067-1.754-.406-.106-.565.397-.352.731-.935zm19.665 19.81c.592.646 1.431 1.91.281 2.291.924.844 1.541 1.692 1.35 2.639-1.185.658-2.793.924-3.464-.635.524-.748.633-2.37 1.815-1.933-.201-.522-.604-1.02-.603-1.567-.33.656-.767.436-1.076.987-1.39-1.574-2.353-3.849.314-4.69.058.472.356.949 1.02 1.346.624-.487.297-.926.883-1.442 1.979-.038.408 2.207-.52 3.004zm39.017 27.695c3.305-.098 1.754 2.589.988 4.427-1.173-.916-1.908-1.613-2.643-2.309.153-.976 1.072-1.294 1.655-2.118zm19.853 18.006c.77.963 1.274-.15 1.86-.354.654 1.113-1.319 1.922-1.451 2.482-2.45-.528-2.472-3.62.089-4.09.619.845-.24 1.32-.498 1.962zm-52.67-43.4c2.403.902-.268 3.385-.918 4.217-.238-.552-.881-1.055-.514-1.681-1.74.59-1.385-1.813-.356-2.897.282.341 1.237.6 1.017 1.037.31.304.519-.508.772-.676zm24.14 23.601c.291-.685-.293-1.263.21-1.906-.647-.81-1.27-.87-1.701-1.877 1.812-.838 3.194.668 5.052 1.876-.136.564-.07 1.103.093 1.595-.75.571-1.546.498-2.25 1.166-.45-.595-.905-.402-1.405-.854zm22.206 15.328c-1.64-.551-.808-1.85-1.113-2.941.814-.887 1.95 0 2.2.927-.465.672-.592 1.303-1.087 2.014zm-40.612-34.273c.718 1.109 1.052 4.111-1.211 3.5-.836-.958-.544-3.592 1.211-3.5zm7.946 7.645c-.608.622-.07 1.103-.812 1.74-.524-1.2-1.76-1.8-2.078-2.719.435-.635 1.078-.132 1.496-.902.892.575.638 1.29 1.394 1.88zm7.026 4.996c.403.498.2 1.07-.205 1.667-1.334-.554-1.727-1.532-3.003-1.615.486-.777 1.08-.68 1.653-1.023.327.438-.116 1.006.443 1.382.383.055.705-.668 1.112-.41zm21.776 21.354c.6-.69.307-1.405 1.12-1.745.675 1.32-1.057 1.977-1.329 3.104-1.64-1.098-3.101-2.423-1.44-3.926 1.216.705.67 1.559.77 2.367.365.468.577-.036.88.2zm11.702 9.813c.405-.285 1 .903 1.363.282.483.317.17.796-.122 1.17-.802-.143-1.462-.78-1.241-1.452zm-38.096-23.954c.333.04.623.324.827.72-.406.597-.915.625-1.415.174-.062-.229.205-.498.021-.712-.414.055-.857-.046-1.275-.331-.559-.376-.098-1.356-1.087-1.337.527-.44.515-.816.735-1.253 1.344-.473 1.965.682 3.34 1.026-.155.822-.593 1.422-1.146 1.713zm31.908 20.077c-.698-.667-1.123-.512-1.774-1.082.556-.478.237-.85.735-1.253.584.578 1.127.272 1.703.783.096.501-.116 1.006-.664 1.552zm-29.082-22.243c.207-.265.464-.125.692-.495.31.851.95.499 1.64.55.798.929-.178 2.724-1.322 2.318-.436-.768-.97-1.489-1.01-2.373zm6.988 7.319c-.589-.338-.331-.746-.979-1.008.765-1.291 1.135-3.012 2.719-1.53-.077.487-.183 1.013-.096 1.447-.519.508-1.12.343-1.644 1.091zm-40.831-32.664c.195-.64.445-1.662 1.24-1.588.378.843.688 1.694.323 2.627-.342-1.12-1.2-.023-1.563-1.039zm14.337 8.324c.066.54.391.123.795.621-1.093.852-.551 1.64-1.769 2.03-.852-1.093-.306-2.493.974-2.65zm-7.126-4.708c-.641.352-1.318.128-1.9.404-.508-.519-.38-1.15.084-1.823.677.225 1.434.816 1.816 1.419zm38.013 34.742c-2.062-.636-3.17-2.415-3.166-4.057 1.825-1.01 3.036-.065 4.632 1.79-1.223.63-1.661.957-1.466 2.267zm3.546 2.013c2.446-1.805 4.155.14 2.536 1.433-.245.235-.326.416-.65.832l-1.93-1.507c.237-.303.204-.572.044-.758zm-11.456-8.052c.52.347.989-.019 1.522.702-.63 1.275-1.691-.407-2.442.164-1.58-1.722-.54-3.285-2.323-4.434 1.66-.41 3.442.74 4.546 2.211-.683.563-.536.921-1.303 1.357zm-39.463-29.147c-1.384-.411-2.99.162-4.14-1.406-.315-2.013 1.38-3.247 3.119-3.29.643.502.343 1.12 1.39 1.573-.146 1.044-.329 2.058-.369 3.123zm11.01 8.669c-1.594-1.002-.803-2.637.184-3.511 3.301-.405 2.585 3.786-.184 3.51zm54.17 38.73c.127.462.76 1.68 1.475 1.153.346.572-.084 1.2-.649 1.844-.6-.167-1.174-.134-1.714.168a2.408 2.408 0 0 0-1.286-1.005c.794-.705.824-2.069 2.174-2.16zm-62.091-44.121c.074-1.343.964-2.17 2.231-2.155.13.224.193.455-.043.758.374-.012.704-.668 1.104-.478.72 1.416.153 2.922.537 4.38-1.297-1.38-1.492-.74-2.587-.743-.651-.57-.225-1.271-1.242-1.762zm54.822 39.327c-.572 1.746.696 3.163 2.07 2.653.018-.96-.022-3.793-2.07-2.653zm-40-29.163c.133-.871 1.583-1.87.713-2.55 1.748.025 1.368 4.175-.712 2.55zm-46.948-37.826c.198.215-.208.5-.346.755-.399-.192-.366-.467-.526-.653.264-.336.618.302.872-.102zm8.272 7.758c-1.45 1.7-3.015-1.21-1.773-2.41-.09.895 1.824 1.486 1.773 2.41zm-7.754-6.058c-.24-.006-1.302.731-.58 1.054.265.207 1.314-.902.58-1.054zm65.44 50.243c-.447.807-1.354 3.45-3.117 3.29l-.606-.473c.757-1.358 1.198-2.78 2.925-3.198.265.207.584.579.799.381zm28.734 26.92c-.442-.525-.482-1.099-.215-1.674.698.666 1.512.638 2.499 1.168-.465.36-.673.861-1.038.938-.316-.609-.634-.435-1.246-.431zm2.42-.43l-.114-.088c.271-.27.934-.416.727-.698l-.614.786zm-85.329-46.796c1.41.432 1.765 1.65 3.286 1.596-.995.806-2.007 1.477-2.985 1.87-1.547-.903-.63-2.076-.965-3.13.133-.043.266-.088.423-.244a2.86 2.86 0 0 1-.144.043c-.816-.515-1.025-1.105-.396-1.832-.319-.371-.577.037-.912-.47.318-1.03 1.092-2.8 2.124-3.03 3.1 1.102 1.63 4.312-.43 5.197zm46.401 15.018c-.668-.704-1.513.768-.579 1.132.304-.311.04-.518.044-.758.18.08.34.266.488.077-.151-.118-.1-.261.047-.45zm16.582 16.981c-.125-.463.453-1.047.357-1.548 1.041-.71 2.38 1.554 3.312.516.377.843-1.097 1.092-.21 1.907-.965.22-2.133-.935-3.46-.875zm-7.857-6.72c.11-.765.802-1.26 1.389-1.777 1.114.444 1.92 1.44 2.339 2.62-.637.659-1.303.809-2.098.736-.6-.713-.6-1.26-1.63-1.578zm-59.53-46.034c.75-.258 1.59.46 2.322.067 1.145 1.497.2 2.084-1.156 3.195-.517-.585-.536-1.262-1.582-1.717.037-.515.11-1 .415-1.545zm22.592 15.056c.908.71-.389 2.681-1.4 2.805-.736-.149-.827-.89-1.508-1.422l1.153-1.475c.589.338 1.17.061 1.755.092zm3.648 6.69c.208-.812.072-2.197 1.282-2.653a8.757 8.757 0 0 1 1.885 2.265c-.79 1.088-.374 1.413-1.54 1.66-.34-.814-.93-.605-1.627-1.272zm28.742 20.118c-.49.47-1.098-.31-1.53.632-1.169-.609-.826-1.437-.28-2.29 1.212-.15 1.484.672 1.81 1.658zm18.513 14.596c.846-.07-.234-.792.517-1.363.718.562.523 1.201.164 1.895l-.681-.532zm7.484 5.604c-.454-.355-.166-.8.13-1.178l.642.502c-.182.467-.216.745-.772.676zm-58.595-43.87c.938.67 1.439-1.374.901-1.855-.877.654-.129 1.178-.9 1.854zm55.536 41.429c.62-.247.541.788 1.286 1.005 1.396-1.163-1.419-2.083-1.286-1.005zm-29.878-23.424c.042.337-.254.715-.587 1.064-.613-.54-.583-1.126.096-1.448l.491.384zm-23.742-18.55c.217.657 1.812 1.111.816 1.917-.429-.152-.802-.688-1.555-.972-.096-.5.447-.26.739-.945zm-29.953-20.769c-.48-.555-1.086-.246-1.097-.857.494-.398 1.027-.222 1.595.221l-.498.636zm88.454 72.23c-.67-1.247-1.156-.782-2.382-1.318-.32-2.24 1.996-3.022 3.796-1.194-.035 1.058-.608 1.635-1.414 2.512zm-17.092-11.945c.804-1.808 2.49-1.16 3.647-2.328 1.299.832.412 1.967.806 2.944-.544.306-.872.415-1.038 1.017-.378-.296-.698-.12-1.064-.588.337-.041.245-.235.355-.454-1.008-.97-1.835-.458-2.706-.59zm-9.707-8.324c-2.294-.027-1.978-3.861.194-3.991.736.696.662 1.492 1.465 2.18-.077.488-1.176.725-1.659 1.81zm5.66 5.344c-.768-.966-1.368-1.679-2.572-2.01-.578.584-.355 1.001-1 1.593-.676-1.319-3.319.271-3.339-2.12.347-.522.746-.331 1.038-1.017.686.292 1.426.748 2.052 1.116.37.228.666-.15.953-.596 1.597 1.309 2.651-1.522 4.235-.04-.515.815.19 1.549.32 2.32-.607.074-1.143.447-1.686.754zm12.284 7.95c.562-.719.273-1.675 1.27-1.627.539.482.588.886 1.287 1.005-.836.992.918 1.631-.292 2.635-1.047-.453-1.395-1.333-2.265-2.013zm-50.5-39.513c-.334.896.496.692 1.172 1.464-.848.617-1.84-.22-2.783-.103-.428-.7-.422-1.487-.858-2.254.242-3.04 4.364-1.22 3.197.975-.24-.005-.513-.28-.728-.082zm3.324 4.219c.697-.735.496-1.258 1.271-1.626.74.456 1.422.44 2.2.926-.137 1.111-1.078 2.082-2.08 2.273-1.01-.423-.478-1.104-1.39-1.573zm21.124 17.15c-.22-1.512-1.876-2.745.042-4.109.831 1.198 1.168 1.156 2.459 1.921-.52 1.056-1.461 2.026-2.501 2.188zm4.697.868l.385-.492c.433-.088.912.47 1.404.853-.503.643-1.179-.129-1.789-.361zm-55.492-42.441c-1.947 3.662-5.124-1.472-1.62-2.291.639.74.943 1.52 1.62 2.29zm-8.05-5.758c.312.303.56.376.756.047.27.512-.553 1.798-1.18.886.464-.36.057-.618.425-.933zm61.628 51.311c-.886.588-1.3-.832-2.237-1.503.298-1.473 2.296-.522 2.854.402.606-.075 1.209-.457 1.762-1.243.393 1.525-.86 2.74-1.832 4.295l-.492-.384c-.635-.435.01-1.028-.055-1.567zm18.152 13.62c.338-.588.743-.638 1.076-.987.349.334.495.692.68 1.08-.834-.103.054.164-.621.794-.404.05-1.085-.482-1.135-.887zm-40.214-29.22c.035-.826.363-2.336.86-2.74.534.722.67 1.56 1.848 2.236-.885.587-1.766.935-2.708.503zm49.215 36.116c.27-.58.123-.392.62-.795l.682.532c-.376.56-.81.647-1.302.263zm-14.598-11.406c-.31-.303-.015-.682.28-1.06l.53.414c-.258.408-.54.066-.81.646zm-40.7-30.246l.886-1.135c.588.339.465.73.68 1.08-.43.394-.962.528-1.567.055zm-26.082-17.95c-.978-.463.382-1.269.692-1.509.425.392.476.794.029 1.288-.182-.624-.559-.376-.72.221zm67.139 54.563c-.399-.738-.047-1.499.708-2.31 1.152.474 2.149 1.07 2.577 1.77-.423 1.01-1.749.522-1.692 1.541-.383-.055-.666-1.252-1.593-1.001zm-18.397-14.197c-.227-.177-.332-.199-.459-.115-.726-.629-.982-1.315-1.313-2.061 1.166-1.648 2.72-.129 4.155.14-.81.646-1.62 1.292-2.383 2.036zm25.934 17.48c-.59.757.233 1.34.855 1.947-.705.668-.803 1.261-.391 1.826-.342.282-.857-.852-1.146.141-.327-.439-.512-.826-1.138-1.194.318-1.03-.038-1.979.49-2.967.418-.222.839-.137 1.33.247zm5.578 6.151c.243-.232.389-.42.23-.604.69-.184 2.16.663 2.503 1.473l-.732.936c-.894-.337-1.458-1.019-2-1.805zm-25.913-21.903c.862.612 1.761 1.254 1.852 1.995-.65.832-.866 1.577-1.584 2.417-1.232-.84-.77-1.82-1.35-2.638.54-.613.946-1.21 1.082-1.774zm-54.882-37.363c.957-1.302.886-1.056 1.72-2.514 1.175.134 2.052.337 2.387 1.624-1.144.372-1.22 1.639-2.329 2.28-.853-.547-.872-1.224-1.778-1.39zm79.561 57.053l1.286 1.005c-.337.041-.417.222-.085.42-.434.088-1.96-.921-1.2-1.425zM632.6 253.815c.507-.883.523-2.15 1.589-2.658l1.588 1.242c-.006.787-1.087 2.561-2.01 2.572-.448-.595-.907-.71-1.167-1.156zm-26.092-20.847c.691-.183 1.618 1.204 2.206.217.609.234-.019.648.598.95-.762.429-.954.52-1.446 1.46-1.063-.588-1.352-.452-2.235-1.504l.877-1.123zm13.366 8.163c.335.505-.612.314-.74.945-.226-.177-.453-.354-.639-.195-.146-.358.023-.652.348-1.068.282-.206.727.628 1.03.318zm-20.35-11.558c.554-1.255 1.374-.433 2.017-1.257.234 1.026-.794.705-1.374 1.76l-.643-.503zm-.805-1.636c.38-.486.837-.37 1.252-.589.13.223.156.424-.078.723-.45-.593-.652.757-1.174-.134zm82.916 67.205c.617-1.101-2.212-1.301-.773-2.675 1.225.226 1.64 2.5 2.06 3.68-.893-.027-.036-1.124-1.287-1.005zm-64.453-51.773c.398.738 1.702-.619 1.037-1.016-.493.163-.389.731-1.037 1.016zm43.408 33.912c.766.111 1.461-.077 2.318.776.05.404-.469.912-.853 1.404-.75.023-.701-.974-1.368-.277-.479-.557-.389-1.217-.097-1.903zm7.66 5.3c.46.969.853.544 1.744 1.119-.527.44-.478.845-.706 1.215-.513-.279-1.178-.129-2.04-.741-.024-.75.125-1.486 1.001-1.594zm25.915 21.959c.54-.302 1.33 1.34 1.818.636.563-1.188-1.816-1.418-1.818-.636zm-66.759-52.82c.606-.074 1.237.6 1.755.093.333.198.223.417.563.683-.805.407-.687.255-.886 1.135-.78.061-2.478-.961-1.432-1.91zm43.5 36.21c-.15 1.283.946.738 1.32 1.273-.76 2.453-3.426 1.344-2.887-.671.49-.47 1.054-.335 1.568-.603zm6.965 5.88c.265.207.505.212.758.044.339.813-1.4 1.403-1.466 2.266-.332-.199-.23-.485-.563-.683 1.054-.335.63-.727 1.271-1.627zm-1.58-1.008l.68.532c-.552.238-1.034 1.324-1.718.484.325-.416.663-1.004 1.037-1.016zm8.448 7.768c-.831.752-.783 1.703-1.578 1.63-.95-1.046-.715-2.203.146-3.54.555.616.204 1.377 1.432 1.91zm-21.74-17.747c.61.233 1.071 1.202 1.286 1.005-.048.997-1.35 1.26-1.166 2.195-.421-.085-.842-.17-1.212-.399.586-.516.477-.845-.149-1.212.149-.737.722-1.08 1.241-1.589zm-53.335-39.885c-.413.763.189 1.474 1.018 1.037.338 1.048-.338 2.147-1.449 2.244-.404-.497-.003-1.088-.943-1.521.447-.495.574-1.36 1.374-1.76zm9.972 8.375l.621-.794c.424.392.79.86.174 1.415-.543-.241-.354-.094-.795-.62zm2.743 3.174c-.31-.304-.504-.212-.76-.351-.183.466.848.784 1.175 1.223-2.189-.005-1.579-1.721-1.155-3.278.357.4.58.818 1.139 1.194-.46.433.263.754-.399 1.212zm-20.531-15.859c1.006-.118 1.138 1.974 1.778 1.39.275.817-1.223 1.877-2.018 1.256.355-.688.88-.58 1.263-1.304-.421-.63-.784-.01-1.18-.44.599-.376-.48-.555.157-.902zm76.163 60.828c-.356-.948-1.607-.828-2.318-.775-.027.892 1.742 2.214 2.318.775zm-19.14-15.167c.395.43.002 1.402-.394 1.52l-.492-.385c.57-.651.275-.82.887-1.135zm-49.603-34.45c.466-1.143 1.262.021 1.823-.385.698.666.096 1.28-.537 1.39-.254-.923-1.112-.448-1.286-1.006zm42.451 37.076c-1.36-1.612-.873-2.937 1.023-3.648.781.793.649 1.664.622 2.557-.494.71-1.175.178-1.645 1.09zm6.607 4.474c4.389-2.967-2.894-3.236 0 0zm4.798 3.434c1.102.617 1.723 1.772 2.84 1.122.656-1.62-1.632-2.98-2.84-1.122zm14.286 11.212c-.457-.662-.375-1.938.476-2.247.77.418-.046 1.852 1.201 1.425.555.616.347 1.428-.39 1.826-.843-.17-.553-1.71-1.287-1.004zm7.908 3.847c.015.682-.616.554-.697 1.282-.308.004-.632-.127-.95-.498.337-.59.784-.85 1.155-1.168l.492.384zm-12.22-9.676c-.406.597-.866 1.03-1.342 1.327-.32-.371-.495-.691-.68-1.08.455-.192.977.155 1.34-.78l.681.533zm5.71 10.1c-.012-.375-.533-.721-.179-1.175.303.236.526.106.8.38l-.621.795zm-32.98-24.15c-.038-.576.271-1.127.815-1.433.23.485.595.953.75 1.378-.3.619-.652-.022-.923.558-.555-.068-.31-.85-.643-.502zm19.408 14.963c-.387-.363.14-.804.465-1.22l.492.384c-.295.379-.687.256-.957.836zm-12.993-12.009c.302.236.23.485.562.683-.16.362-.995.806-.347 1.069-.304.31-.644.045-1.06-.28.211-.505.306-1.406.845-1.472zm.845 3.895c.136-.564 1.162-.006.772-.676.29-.138.614-.007.909.162-.515.268-1.005 1.286-1.681.514zm.85 1.196c.892.575-.787 1.555.41 2.128-.523.435-.186.94-.76.973-.8-.926-1.906-1.85-.52-2.998.348.333.646.264.87-.103zm20.263 16.861c.197.215.24.55.409.802-.267.575-.62.48-.912.855-.445-.288-.823-.583-.866-.918.535-.607 1.25.193 1.369-.739zm-14.984-9.91c.053-.38-.132-.767.42-1.24.308.542.653 1.114.655 1.658-.353-.095-.633.108-1.075-.418zm1.389.585c-.05.141-.234.299-.083.417.243-.232-.215-.348-.211-.587.075.06.172.014.294.17zm-19.967-12.514c.562.138.414 1.107.945.739.148.356-.337.821-.39 1.201-.031-.506-.531-.957-1.242-1.452.269-.031.482-.226.687-.488zm6.202 6.376l.526-.673c.358.4.677.77.154 1.205l-.68-.532zm22.18 22.779c-.765-.658.682-2.12 1.332-2.094.294.17.156.423.345.571-.488.703-1.061 1.28-1.677 1.523zm-6.116-5.574c-.57-.205-.24-.55-.677-.77.146-.188 1.149-.067.911.47l-.234.3zM641.843 300.7c.173.557-.735 1.174.034 1.594.082-.418.733-1.718-.034-1.594zm-2.176.422l-.497.636c-.492-.384-.879-.746-.297-1.257l.794.621zm-6.73-3.461c-.24-.55.75-.802 1.107-.402-.217.433-.468.599-.766.668-.092-.193-.156-.424-.34-.266zm29.832 26.658c-.256 1.186-.666 3.036.627 3.564.621-1.263 1.151-3.5-.627-3.564zm13.792 14.399c-.703-.972.089-1.439.58-2.38.53.413.986-.014 1.55.668-.673.86-1.273 2.019-2.13 1.712zm-26.964-22.894c.57-.338 1.228-.246 1.9.22-.763 1.21.024 2.308-1.491 3.234-.52-1.129.676-2.425-.409-3.454zm-14.704-8.896c.405-.83.63-1.196 1.52-1.946.757.59.44 1.308.795 1.946-.628.414-.877 1.123-1.409 1.492-.328-.438-.11-1.653-.906-1.492zm-5.49-3.76l.496-.636c.382.058 1.106.924.37 1.555-.379-.296-.25-.617-.867-.918zm79.475-113.372c-.354.688-.875.341-1.218.857-.407-.258.162-.597-.073-.841.146-.187.466.183.76.353.003-.239.052-.924.531-.369zm-10.14 10.241c-.022.653.322 1.226 1.243 1.763-.342.28-.761-.351-1.065-.04.15.665.012.374-.28 1.06 1.177.676 2.236 1.503 1.808 2.753-.535.373-1.145.14-1.793-.122-.02-.442-.048-.952-.174-1.415-.795-.073-1.57-.252-2.502-1.163.76-1.051 1.851.593 2.628-.323-.054-.711-.42-.632-1.017-1.038.448-.807-.044-1.191-.325-1.533.38-.799.89-.827 1.304-1.357.281.342.706.734.898 1.19-.207.264-.476.297-.724.225zm-23.887-5.15c-.274.273-.114.459.071.299.544-.306-.017.413-.266.34.2 1.07 2.146.763 2.384 1.315-.523.748-1.083.92-1.614 1.053-.566-.99-1.459-1.018-1.006-2.065-.4-.19-.695.188-1.065-.04-.492-.384-.415-.873.096-1.448.458.114.909.162 1.4.546zm18.563 31.398c-.175 1.082-1.38-.104-1.08.68-.221-.418-.831-.65-1.773-1.082.283-.753.833.103 1.183-.111.27-.58-.497-.144-.68-.532.95-.048 1.644.31 2.35 1.045zm7.817 18.919c-.45-.595-.82-.276-1.253-.736-.012-.374.313-.79.128-1.178.405-.05.544 1.643 1.405.853.378.296.082.674-.28 1.06zm-69.437-23.21c-1.55-1.212.364-1.947.163-3.249-1.17-1.154-2.161-1.99-2.216-3.479 1.39-2.169 2.833-.74 4.21-.087-.284.442-.573.578-.917.55-.218 1.216.542 1.568.335 2.612-.268.032-.504-.212-1.1-.618-.209.5.187.93.217 1.436.336-.04.77.42 1.103-.164.306 1.324 1.676 2.455.67 3.9-.895-.338-1.873-.8-1.67-1.606-.676-.227-.339.277-.795.705zm14.52 9.391c-1.342-.622.545-1.4.353-1.856.468-.365 1.081.175 1.604-.026-.11.22-1.454.692-1.958 1.882zm49.034 38.216c.349.333.317 1.465 1.02 1.345.062.779-.24 1.944-1.592 2.35-.584-.578-1.177-.677-1.774-1.082-.25-1.474.768-2.933 2.346-2.613zm-53.32-36.562c-.806.954-4.269-.228-4.786-2.216.397-.665 1.228-1.417.75-1.973.484-.23 1.01-.124 1.41-.481 1.06.827 1.626 1.818 2.88 2.006-.044.757-1.538 2.514-.254 2.664zm-20.481-16.96c-1.248-.975-1.268.999-2.32 1.02.818.278 1.635.012 2.32-1.02zm41.769 62.638c.198-.235.401-.347.631-.401.189.324-.154.425-.4.632.085.106.129.217.061.341-.472.058-.965.221-1.378.75.85.238.726-.772.988-1.42.03.033.063.065.098.098zm23.232-8.324c.54-.066 1.07-.2 1.533-.325 1.825.938.551 2.257 1.298 3.328-1.114-.444-1.304-2.541-2.83-3.003zm-59.611-41.558c.396-.117.843-.377 1.297-.023-.14.257-.359.147-.536.374-.042.21-.055.383.066.539-.38.252-.39-.67-.827-.89zm1.23 18.47c.938.672 1.808 1.352 1.465 2.18-1.259.052-.732 1.56-1.844 1.97.044-.757-.655-.876-1.25-.427-.587-.885-1.077-1.817-1.77-2.724 1.038-1.016.413-1.931 1.47-2.505-.176-.32-.666-1.252-1.697-1.57-.007-.615.188-1.254.24-1.945-.656-.33-1.284-.15-1.585-.934-.1-.808.741-.09 1.109-.717.562-1.266-.721-1.416-.93-2.553-.853-.545-1.458.931-2.323.012-.549.546-1.007.431-1.186 1.205-.503-.759-.934-.364-1.376-.344-.705-.734.317-2.432 1.39-2.325.453-1.047-1.921-.892-1.43-1.91-.603-.166-.09.66-.684.563-.394-.978-.99-1.93-1.383-2.908.533-1.228 1.31-.743 1.84-1.73.856.852 2.665 1.655 2.646 2.615-.642.9-.732-.389-1.33-.247l-.62.794c.975.701 1.7.476 2.08 1.626-.722 1.08-1.153 1.475-.705 2.617.618.3.552-.239.802-.714.05.404.39.67.794.62 1.109-.717 3.2-.666 3.95-2.639 1.55 1.759 2.72 3.77.253 5.68.837.41 1.603.521 2.468 1.44 1.335-1.941 4.002-2.782 5.292-.068-.499.95-1.15 2.33.016 2.631-1.015-.183-1.918.817-3.016.508-.349-.334-.697-.667-.68-1.08-.466-.182-.826.512-1.33-.247-.359.694-.834.445-1.223 1.176.315.611 1.379 1.199.548 1.95zm6.35.306c-.126.084-.307.004-.425.155-.034.278.23.485-.044.758-.876.107-.714-.802-.898-1.19-.672-.464-.254.716-.876.108.334-.348.94-.423.499-.95.459.115.9.642 1.745 1.12zm40.01 35.031c.819.823.821 1.678 1.431 1.91-.41.837-1.782.8-1.655 2.119-.26-.447.057-.93-.03-1.364-.536.373-.58-.271-.872-.133-.306-.544.138-1.11-.063-1.633.458.114.85-.31 1.189-.899zm-.507 5.906c.435-.635.948-.356 1.415-.174-.526-.106.293.716-.28 1.06-.21-.042-.421-.085-.577.037-.408-.258-.277-.582-.558-.923zm1.232-.578c.113.089.194-.092.307-.003-.118.15-.194.092-.307.003zm-17.553-8.304c-1.258 1.453-1.412.48-2.336 1.586-.673-.465-1.353-.997-1.36-1.611-.446-.288-.88-.2-1.256.359.345-1.923 3.767-1.625 4.952-.334zm22.837 35.315c.383.6.552-.473.906.165-.184.158-.196.33-.112.456-.754-.048-1.167.715-1.671.502.502-.331.678-.556.877-1.123zm-33.878-23.111c.082.908-.567-.443-.38.487-.73.153-.204-1.064-1.023-1.342.535-.607.109-1.543 1.068-1.757l.681.532c-.271.27-.112.455-.413.762.379.296.544-.54.833-.676.48.556.834 1.194.94 1.76-.523.435-1.017.833-1.706.234zm65.398-87.433c-.929 2.047-3.699 1.149-3.377-.589.95-.825 2.614-.85 3.377.59zm-.044 7.44c-.56-.92-1.697-1.024-1.738-2.141.179-.463 1.096-1.013.843-1.391.535-.607.695.904 1.33.014.039.573-.182 1.245.94 1.76-.241.775-.57 1.664-1.375 1.758zM666.858 187.2c-.827-1.437-2-2.353-.53-4.312 1.73-.11 2.179 1.032 2.795 2.427-.984 1.18-1.35 1.26-2.265 1.885zm64.44 67.754c-.404-.497-.659-.093-1.063-.59.644-.823.29-1.46-.486-1.404 1.603-2.364 3.197.509 1.549 1.994zm-67.727-55.894c1.465.231 1.252 1.283 2.657 1.59-.065.862-.698 1.829-.793 2.73-.703.12-1.33.3-1.98.585-.64-1.597-.426-3.197.116-4.905zm7.338 9.714c-.36-.708-.027-1.057-1.05-1.307a6.85 6.85 0 0 1 .93-1.893c2.466.587 2.099 3.162.12 3.2zm-19.8 11.536c-.141.803 1.2 1.425-.018 2.361-2.06-1.183-3.13-.983-4.047-3.162.717-.84 1.133-2.464 2.228-2.462 1.516 1.49 3.404.71 1.837 3.263zm55.878 50.418c.332.198.557-.48.843-.378.597.406-.078 1.036.902 1.497-.111.766-1.603 1.428-1.049 2.044-1.022-.251-2.073-1.011-3.112-1.396.407-1.145 1.444-2.161 2.157-2.762.648.263-.187.707.26.995zm5.91 6.788c-.67.079-.714-.256-1.214-.707.308-.784-.229-.721.196-1.655.882.508.617 1.627 1.627 1.27.715.8-.951.282-.61 1.092zM622.032 233.5c-.046-1.422 2.092-4.393-.406-4.236.266.75.83 1.433-.12 2.258-.949-.5-.921-1.082-1.095-1.64 1.925-1.45-.16-3.38 2.375-5.377l.643.502c-.12.388-.203.806-.42 1.24.44-.019.838-.371 1.22-.314-.292.918.804 1.231 1.58 1.718-1.212 1.162.343 2.135-1.302 3.382.396.43.752.286 1.137.105-.143 1.275.92 1.864 1.504 2.44-.447.495-.925.483-1.369.74-.234-1.027-1.204-.097-1.706.234-.443-1.07-1.272-.632-2.04-1.052zm-3.468 13.542c.079.366.428.7.828.343-.709.907-1.136 3.559-2.96 4.022-.283-1.196-.62-1.155-1.74-1.36.571-1.198.673-1.484 1.732-2.606.618.3.399.738.987 1.076.758.044.722-1.08 1.153-1.475zm70.632 56.473c.136.528.227.178.681.532.086.67-.49 1.486.677 2.096-.452.19-.879.58-1.369.74-.651-.57-.46-1.204-1.514-1.727.492-.941.696-1.203 1.525-1.64zm-72.26-49.539c.58.27.404-.05.72-.533.51.52.066 1.086.296 1.571-.711.053-1.61-1.136-2.38-1.554.263-.648.68-.323.954-.596.55.308.061.779.41 1.112z" fill="#E1E6EB"/><path d="M701.143 522.677c.076-.585.904-.426 1.488-.509-.075.584-.902.426-1.488.51zm25.87-.201c.076-.584.904-.426 1.489-.51-.075.585-.903.428-1.488.51zm-19.398.648c1.221-1.95.737 1.643 0 0zm-29.848.73c.119-.628.986-.51.996-.008-.215.725-.438-.049-.996.008zm43.292.66c-.417.74-1.244 1.078-2.48 1.013.417-.741 1.244-1.08 2.48-1.014zm-44.769 1.341c-.138 2.456-2.248.379 0 0zm4.482.463c.148-.677 1.242-.423 1.985-.513-.147.677-1.242.422-1.985.513zm24.397 2.298c-.17.655-.869.79-.983 1.5-1.241-.192-.044-1.928.983-1.5zm-32.831.753c.402.26.811.513 1.495.486-.599 1.055-1.908 1.41-2.968 2.013l-.013-1.493c1 .162 1.557-.114 1.486-1.006zm27.864.28c.118-.626.986-.508.995-.007-.214.725-.437-.048-.995.007zm-58.206.95c.149-.676 1.242-.421 1.986-.512-.148.676-1.242.422-1.986.512zm52.737-.41c.34-1.77-.713 3.717 0 0zm-70.146 1.042l.995-.007.008.995-.996.008-.007-.996zm33.337.24c.713-1.654 1.253 1.93 0 0zm44.28-.344c1.723 1.272-2.55 1.222 0 0zm-26.859 1.204c1.723 1.273-2.55 1.223 0 0zm19.909.84c1.222-1.95.737 1.643 0 0zm4.474-.533c.445.384 1.128.527 1.993.483.166.876-2.78.91-1.993-.483zm-30.842.739c.583.073.425.903.509 1.488-.498.003-.996.008-1.493.01-.282-1.1.944-.715.984-1.498zm16.923.862c2.172-1.842 1.9 1.361 0 0zm31.351.753c.27-1.999-.397 2.945 0 0zm-49.752.386c-.427 2.376-2.01 3.614-4.446 4.015 2.581-1.268 1.7-2.91 4.446-4.015zm32.339-.251c.483 2.329-2.312.898 0 0zm-5.951 2.534c1.223-1.95.737 1.642 0 0zm-35.308 2.264c1.24.192.045 1.93-.983 1.5.17-.655.869-.79.983-1.5zm3.983.467c1.224-1.951.74 1.643 0 0zm-46.762.86c.12-.626.986-.51.995-.008-.214.726-.437-.047-.995.009zm25.377.3c.071-.136 1.064-.928 1.49-.508.345.34-1.953 1.386-1.49.509zm20.9.336c-.323.67-1.056.935-1.983 1.01.444-.87 1.099-1.924 1.983-1.01zm46.767-.363c1.659-1.216-1.19 1.678 0 0zm-17.41.633c1.84-1.752 2.536 1.336 0 0zm21.394-.167l.994-.007c.241 1.06-.703.952-1.484 1.007.092-.405.495-.501.49-1zm-28.837 2.712c.076-.583.903-.426 1.488-.51-.075.585-.904.427-1.488.51zm-22.388.174c.717.107.185 1.483 1.006 1.485-.55 1.602-1.424-.469-1.006-1.485zm-64.658 2.99c1.494-1.852 1.687 1.498 0 0zm112.443-.376c.118-.626.985-.51.995-.008-.215.726-.438-.047-.995.008zm-68.157 1.027c1.66-1.215-1.189 1.678 0 0zm37.82.7c.075-.582.903-.426 1.488-.508-.075.585-.903.426-1.488.508zm7.466.44c2.173-1.842 1.901 1.362 0 0zm-10.942.584c.076-.585.904-.426 1.488-.51-.075.583-.903.426-1.488.51zm-22.87 2.167c-1.572-1.628 1.2-3.103 0 0zm31.329-2.233c1.644.728-.835 1.411-.98 1.998-1.801-.884.679-1.566.98-1.998zm-91.031 2.697c-1.723-1.272 2.55-1.223 0 0zm80.097-1.12c.075-.584.903-.426 1.488-.51-.076.585-.903.428-1.488.51zm-17.41.633c.27-1.998-.397 2.946 0 0zM576 553.502c.358-.89.904-.08 1.493-.012-.357.888-.904.08-1.493.012zm101.992-.792c1.659-1.215-1.19 1.677 0 0zm-88.56.688c.004 2.041-2.686 3.289-4.461 2.025.402-1.745 2.272-2.043 4.462-2.025zm113.94.11c.713-1.654 1.254 1.93 0 0zm-63.177 1.486c1.224-1.95.738 1.643 0 0zm39.305-.305c.075-.584.903-.427 1.488-.51-.075.584-.903.426-1.488.51zm14.43.385c-2.328.483-.897-2.312 0 0zm-54.73-.072c-.26.401-.513.81-.486 1.496-.963.205-.744-2.26.487-1.496zm36.32-.282c.889.357.079.903.011 1.492-.888-.357-.079-.904-.012-1.492zm-1.987.512c.718.107.186 1.484 1.006 1.484-.549 1.603-1.423-.468-1.006-1.484zm3.988.964c.691-2.19 2.067 2.323.012 1.492-.111-.85.838-1.295-.012-1.492zm24.378-.189c1.223-1.95.738 1.643 0 0zm-39.296 1.3c.27-1.999-.397 2.946 0 0zm35.328.223c.27-1.998-.398 2.946 0 0zm-99.998 1.275c.27-1.999-.398 2.946 0 0zm-13.425 1.098c1.66-1.214-1.19 1.679 0 0zm-16.911.63c.075-.584.903-.427 1.488-.51-.075.584-.903.428-1.488.51zm19.896-.652c-.212.613-.628 1.026-1.485 1.006.213-.614.63-1.027 1.485-1.006zm8.462.432c-.146-.79 2.682-.719 1.497.486.189-.193-1.504-.521-1.497-.486zm68.67.959c.711-1.655 1.253 1.93 0 0zm31.347.254c1.24.192.044 1.928-.984 1.5.17-.655.87-.79.984-1.5zm-65.171 1.003l.995-.007.007.996-.995.008-.007-.997zm25.377.3c.03-.035-.038-.49-.004-.498 2.387-.439-2.337 3.217.004.499zm-2.981.522c.076-.583.903-.428 1.488-.51-.075.584-.903.427-1.488.51zm16.418-.128c.118-.627.985-.509.996-.007-.216.724-.439-.048-.996.007zm22.388-.173c.167-.602 1.32-.413 1.492-.011.46 1.071-1.813 1.166-1.492.011zm-18.397 1.635c-1.16 1.609-2.024-1.734 0 0zm16.423.37c.118-.627.985-.51.994-.008-.214.725-.436-.048-.994.007zm-35.32.772l.994-.008.007.995c-.33.004-.662.006-.994.008l-.007-.995zm37.317.207c.48-2.108 1.358 1.747 1.493-.012.422-.094.47.191.501.495l.007.994c-.89.071-1.053-.6-1.993-.48.302-.447.595-.897-.008-.997zm-31.838.746c1.223-1.95.738 1.642 0 0zm7.958-.56c.33-.004.663-.006.995-.008l.007.995c-.331.003-.664.005-.995.009l-.007-.997zm-5.458 2.032c.076-.584.904-.426 1.488-.51-.075.585-.903.427-1.488.51zm27.862-.216c.118-.627.985-.51.994-.008-.214.726-.436-.047-.994.008zm-40.793.814c.071-.136 1.063-.929 1.488-.51.347.343-1.952 1.388-1.488.51zm34.822-.768c-.213.614-.628 1.027-1.485 1.006.213-.613.628-1.026 1.485-1.006zm-24.363 2.18c.075-.584.904-.426 1.489-.509-.076.583-.904.426-1.49.509zm10.448-.081c1.66-1.215-1.19 1.677 0 0zm-6.449 2.538c.358-.89.904-.08 1.493-.012-.358.888-.904.08-1.493.012zm-4.97.536c1.222-1.95.737 1.643 0 0zm.015 1.99c1.223-1.95.738 1.642 0 0zm-1.99.016c1.036.27 1.06.768.509 1.488l-.996.008c.261-.402.513-.812.487-1.496zm6.479 1.441c.075-.583.904-.425 1.49-.509-.077.584-.904.428-1.49.51zm-8.947 1.065c1.659-1.215-1.19 1.679 0 0zm-23.369 2.171c.12-.626.986-.51.996-.008-.215.726-.438-.047-.996.008zm22.882-.675c-.29 2.042-1.359 1.007-2.977 1.02.496-.829 2.11-.558 2.977-1.02zm18.921 1.844c1.66-1.216-1.19 1.678 0 0zm-21.39.663l.997-.008c.001.332.004.664.007.996l-.996.008-.007-.996zm-65.146 3.988c.712-1.653 1.251 1.933 0 0zm58.224 1.539c-2.963.363-1.351-2.285 0 0zm.494-.503c.072-.135 1.063-.926 1.489-.508.346.343-1.953 1.388-1.49.508zm.52 2.983c.878-.166.91 2.78-.482 1.995.383-.446.527-1.128.483-1.995zm-6.459 1.045c.402.26.811.514 1.496.487-.091.403-.496.5-.49.998l-.995.009-.011-1.494zm1.542 6.457c.076-.584.905-.427 1.49-.51-.077.584-.905.427-1.49.51zm-40.788 1.312c2.283.314-.376 3.014 0 0zm39.805.188c.03-.036-.038-.49-.003-.497 2.385-.441-2.338 3.215.003.497zm-40.77 3.799c-1.032-1.291-3.822 1.542-2.468 2.507.494-.666.809-1.508 1.477-2 .125.761.82.065.992-.507zm32.856 2.234c.03-.036-.039-.493-.003-.498 2.385-.442-2.338 3.216.003.498zm-28.35 1.214c.712-1.655 1.252 1.932 0 0zm46.83-120.273c-.048.941-1.641.358-1.481 1.505-1.053-.146.508-1.732 1.481-1.505zm-12.365 9.55c2.343.441.802 1.562.521 2.98-1.02-.689.475-1.717-.521-2.98zm-8.948 1.065c-.36.467-.898.761-1.484 1.005-1.252-.202.82-1.077 1.484-1.005zm3.533 6.44c.304.025.59.07.502.494-.5.002-.589.408-.99.505-.002-.277-.408-.561-.498.003.884.915 1.54-.14 1.981-1.01-.196-.575-2.42-.556-.995.008zm94.039.264c-.838-1.948 1.291 2.643 0 0zm-92.037 1.213c-1.542-.633 1.424-.666.998.49-.42.952-.298-.536-.998-.49zm-36.291 3.765c-1.463-1.121.626-.943 1.488-.51-.04 1.763-1.653-1.044-1.488.51zm129.35-1.502c-.01.483-.606.39-.991.505-.345 1.354 2.344-.374 1.997.98 1.419.867-1.28-.433-2.487.019-.098-1.085.395-1.586 1.482-1.504zm-2.484.517c1.239.064.16 1.683.016 1.989-.89-1.506-1.53 1.37-1.99.016-1.058-.27 1.613-.527 1.974-2.005zm-105.924 6.793c.957-1.175-1.854 2.272 0 0zm100.004-.28c3.405.18-2.107-.639 0 0zm13.426-1.099c-.32.509-1.14.524-.983 1.5-1.242-.192-.045-1.927.983-1.5zm-24.864 1.686c-.92-1.583 2.2 2.569 0 0zm-35.81 1.77c1.52-2.577-.899 1.525 0 0zm-15.917.623c-1.627-.926 2.46 1.397 0 0zm40.318 2.174c1.887-.961-2.62 1.335 0 0zm29.851-.232c-2.64-1.296 1.901.931 0 0zm-140.28 3.576c1.702 1.04.198 1.444.023 2.986-.892.07-1.054-.6-1.995-.481.84-.709 2.512.421 1.972-2.505zm62.2 1.01c2.438-1.436-1.611.95 0 0zm62.195.015c-1.627-.924 2.458 1.399 0 0zm-22.882.675c1.754.836-1.151 1.1-1.482 1.505-1.485-.57 1.627-.632 1.482-1.505zm15.434 1.373c1.03-.565 1.051-.544.502.494-1.032.274-1.07-1.93-.502-.494zm-18.894 1.64c-.995.45.238 2.176.505.99-.302-.025-.59-.07-.5-.493.774.034.333-1.449-.005-.497zm-9.441 1.565c-1.264.267-1.923.864-1.998-.98 1.265-.266 1.923-.863 1.998.98zm-32.809 3.737c1.053.147-.51 1.733-1.481 1.506-.788-1.763 1.687-.314 1.481-1.506zm26.372.293c1.584-.92-2.57 2.2 0 0zm29.385 3.754c-1.229 2.405-3.05.612 0 0zm-34.325.764c-.32.508-1.14.522-.983 1.5-1.241-.194-.045-1.93.983-1.5zm15.446 2.864c-.64-2.715 3.192.064 0 0zm16.43 1.365c.888-.147 1.024.463.502.494-.747 1.857-1.405 1.21-.502-.494zM640.6 543.05c2.437-1.436-1.613.95 0 0zm47.26-.865c-.139 1.016-1.338.986-1.477 2.002-.842-.084.212-2.366 1.477-2.002zm-29.35.726c.467.361.761.899 1.006 1.485-.203 1.252-1.077-.82-1.006-1.485zm30.372 2.75c.759-2.357 2.46-.682 0 0zm-37.307 1.285c1.52-2.58-.898 1.524 0 0zm-71.6 6.029c.926-1.628-1.398 2.458 0 0zm-5.468.54c-2.64-1.296 1.9.93 0 0zm61.711 2.008c.374 1.355-.98 1.009-.98 1.998-.65.25-.236-2.468.98-1.998zm29.855.266c-1.299 1.237-2.894-1.413 0 0zm-78.095 2.596c.926-1.627-1.398 2.46 0 0zm78.13 1.88c1.521-2.579-.899 1.525 0 0zm10.46 1.413c-1.542-.634 1.423-.667.998.489-.42.953-.3-.535-.998-.49zm-51.727 2.39c.073 1.232-.603.851-.497.005.807-1.158 3.34.143.497-.004zm62.7 1.007c1.443.267-.758.782-.488 1.498-1.651-.475.55-.99.487-1.498zm-21.85 5.643c-1.626-.925 2.46 1.398 0 0zm-12.422 2.087c1.653.473-.548.986-.486 1.496-1.443-.268.758-.782.486-1.496zm7.987 3.42c.316-1.492 1.068.468 1.991-.015-.092.402-.496.501-.49.997l-.995.009c-.096-.42.19-.47.493-.501-.017-.483-.612-.381-.999-.49zm13.46 3.378c1.033-.273 1.07 1.933.502.495-1.03.564-1.05.544-.502-.495zm-7.408 7.023c2.436-1.436-1.612.951 0 0zm-55.155 9.385c2.437-1.436-1.612.949 0 0zm26.391 2.78c.89-.154.047 1.93-.983 1.5-.282-1.101.945-.715.983-1.5z" fill="#FFF"/><path fill="#FFDEE7" d="M296 318h248v164H296z"/><path d="M312.5 514a1.5 1.5 0 1 1-.001 3.001A1.5 1.5 0 0 1 312.5 514zm16 0a1.5 1.5 0 1 1-.001 3.001A1.5 1.5 0 0 1 328.5 514zm-8 0a1.5 1.5 0 1 1-.001 3.001A1.5 1.5 0 0 1 320.5 514zm16 0a1.5 1.5 0 1 1-.001 3.001A1.5 1.5 0 0 1 336.5 514zm16 0a1.5 1.5 0 1 1-.001 3.001A1.5 1.5 0 0 1 352.5 514zm-8 0a1.5 1.5 0 1 1-.001 3.001A1.5 1.5 0 0 1 344.5 514zm16 0a1.5 1.5 0 1 1-.001 3.001A1.5 1.5 0 0 1 360.5 514zm16 0a1.5 1.5 0 1 1-.001 3.001A1.5 1.5 0 0 1 376.5 514zm-8 0a1.5 1.5 0 1 1-.001 3.001A1.5 1.5 0 0 1 368.5 514zm16 0a1.5 1.5 0 1 1-.001 3.001A1.5 1.5 0 0 1 384.5 514zm16 0a1.5 1.5 0 1 1-.001 3.001A1.5 1.5 0 0 1 400.5 514zm-8 0a1.5 1.5 0 1 1-.001 3.001A1.5 1.5 0 0 1 392.5 514zm16 0a1.5 1.5 0 1 1-.001 3.001A1.5 1.5 0 0 1 408.5 514zm16 0a1.5 1.5 0 1 1-.001 3.001A1.5 1.5 0 0 1 424.5 514zm-8 0a1.5 1.5 0 1 1-.001 3.001A1.5 1.5 0 0 1 416.5 514zm16 0a1.5 1.5 0 1 1-.001 3.001A1.5 1.5 0 0 1 432.5 514zm16 0a1.5 1.5 0 1 1-.001 3.001A1.5 1.5 0 0 1 448.5 514zm-8 0a1.5 1.5 0 1 1-.001 3.001A1.5 1.5 0 0 1 440.5 514zm16 0a1.5 1.5 0 1 1-.001 3.001A1.5 1.5 0 0 1 456.5 514zm16 0a1.5 1.5 0 1 1-.001 3.001A1.5 1.5 0 0 1 472.5 514zm-8 0a1.5 1.5 0 1 1-.001 3.001A1.5 1.5 0 0 1 464.5 514zm16 0a1.5 1.5 0 1 1-.001 3.001A1.5 1.5 0 0 1 480.5 514zm16 0a1.5 1.5 0 1 1-.001 3.001A1.5 1.5 0 0 1 496.5 514zm-8 0a1.5 1.5 0 1 1-.001 3.001A1.5 1.5 0 0 1 488.5 514zm16 0a1.5 1.5 0 1 1-.001 3.001A1.5 1.5 0 0 1 504.5 514zm8 0a1.5 1.5 0 1 1-.001 3.001A1.5 1.5 0 0 1 512.5 514zm-68 8a1.5 1.5 0 1 1-.001 3.001A1.5 1.5 0 0 1 444.5 522zm-8 0a1.5 1.5 0 1 1-.001 3.001A1.5 1.5 0 0 1 436.5 522zm16 0a1.5 1.5 0 1 1-.001 3.001A1.5 1.5 0 0 1 452.5 522zm16 0a1.5 1.5 0 1 1-.001 3.001A1.5 1.5 0 0 1 468.5 522zm-8 0a1.5 1.5 0 1 1-.001 3.001A1.5 1.5 0 0 1 460.5 522zm16 0a1.5 1.5 0 1 1-.001 3.001A1.5 1.5 0 0 1 476.5 522zm16 0a1.5 1.5 0 1 1-.001 3.001A1.5 1.5 0 0 1 492.5 522zm-8 0a1.5 1.5 0 1 1-.001 3.001A1.5 1.5 0 0 1 484.5 522zm16 0a1.5 1.5 0 1 1-.001 3.001A1.5 1.5 0 0 1 500.5 522zm8 0a1.5 1.5 0 1 1-.001 3.001A1.5 1.5 0 0 1 508.5 522zm-192 0a1.5 1.5 0 1 1-.001 3.001A1.5 1.5 0 0 1 316.5 522zm16 0a1.5 1.5 0 1 1-.001 3.001A1.5 1.5 0 0 1 332.5 522zm-8 0a1.5 1.5 0 1 1-.001 3.001A1.5 1.5 0 0 1 324.5 522zm16 0a1.5 1.5 0 1 1-.001 3.001A1.5 1.5 0 0 1 340.5 522zm16 0a1.5 1.5 0 1 1-.001 3.001A1.5 1.5 0 0 1 356.5 522zm-8 0a1.5 1.5 0 1 1-.001 3.001A1.5 1.5 0 0 1 348.5 522zm16 0a1.5 1.5 0 1 1-.001 3.001A1.5 1.5 0 0 1 364.5 522zm16 0a1.5 1.5 0 1 1-.001 3.001A1.5 1.5 0 0 1 380.5 522zm-8 0a1.5 1.5 0 1 1-.001 3.001A1.5 1.5 0 0 1 372.5 522zm16 0a1.5 1.5 0 1 1-.001 3.001A1.5 1.5 0 0 1 388.5 522zm16 0a1.5 1.5 0 1 1-.001 3.001A1.5 1.5 0 0 1 404.5 522zm-8 0a1.5 1.5 0 1 1-.001 3.001A1.5 1.5 0 0 1 396.5 522zm16 0a1.5 1.5 0 1 1-.001 3.001A1.5 1.5 0 0 1 412.5 522zm16 0a1.5 1.5 0 1 1-.001 3.001A1.5 1.5 0 0 1 428.5 522zm-8 0a1.5 1.5 0 1 1-.001 3.001A1.5 1.5 0 0 1 420.5 522zm-108 8a1.5 1.5 0 1 1-.001 3.001A1.5 1.5 0 0 1 312.5 530zm16 0a1.5 1.5 0 1 1-.001 3.001A1.5 1.5 0 0 1 328.5 530zm-8 0a1.5 1.5 0 1 1-.001 3.001A1.5 1.5 0 0 1 320.5 530zm16 0a1.5 1.5 0 1 1-.001 3.001A1.5 1.5 0 0 1 336.5 530zm16 0a1.5 1.5 0 1 1-.001 3.001A1.5 1.5 0 0 1 352.5 530zm-8 0a1.5 1.5 0 1 1-.001 3.001A1.5 1.5 0 0 1 344.5 530zm16 0a1.5 1.5 0 1 1-.001 3.001A1.5 1.5 0 0 1 360.5 530zm16 0a1.5 1.5 0 1 1-.001 3.001A1.5 1.5 0 0 1 376.5 530zm-8 0a1.5 1.5 0 1 1-.001 3.001A1.5 1.5 0 0 1 368.5 530zm16 0a1.5 1.5 0 1 1-.001 3.001A1.5 1.5 0 0 1 384.5 530zm16 0a1.5 1.5 0 1 1-.001 3.001A1.5 1.5 0 0 1 400.5 530zm-8 0a1.5 1.5 0 1 1-.001 3.001A1.5 1.5 0 0 1 392.5 530zm16 0a1.5 1.5 0 1 1-.001 3.001A1.5 1.5 0 0 1 408.5 530zm16 0a1.5 1.5 0 1 1-.001 3.001A1.5 1.5 0 0 1 424.5 530zm-8 0a1.5 1.5 0 1 1-.001 3.001A1.5 1.5 0 0 1 416.5 530zm16 0a1.5 1.5 0 1 1-.001 3.001A1.5 1.5 0 0 1 432.5 530zm16 0a1.5 1.5 0 1 1-.001 3.001A1.5 1.5 0 0 1 448.5 530zm-8 0a1.5 1.5 0 1 1-.001 3.001A1.5 1.5 0 0 1 440.5 530zm16 0a1.5 1.5 0 1 1-.001 3.001A1.5 1.5 0 0 1 456.5 530zm16 0a1.5 1.5 0 1 1-.001 3.001A1.5 1.5 0 0 1 472.5 530zm-8 0a1.5 1.5 0 1 1-.001 3.001A1.5 1.5 0 0 1 464.5 530zm16 0a1.5 1.5 0 1 1-.001 3.001A1.5 1.5 0 0 1 480.5 530zm16 0a1.5 1.5 0 1 1-.001 3.001A1.5 1.5 0 0 1 496.5 530zm-8 0a1.5 1.5 0 1 1-.001 3.001A1.5 1.5 0 0 1 488.5 530zm16 0a1.5 1.5 0 1 1-.001 3.001A1.5 1.5 0 0 1 504.5 530zm8 0a1.5 1.5 0 1 1-.001 3.001A1.5 1.5 0 0 1 512.5 530zm-68 8a1.5 1.5 0 1 1-.001 3.001A1.5 1.5 0 0 1 444.5 538zm-8 0a1.5 1.5 0 1 1-.001 3.001A1.5 1.5 0 0 1 436.5 538zm16 0a1.5 1.5 0 1 1-.001 3.001A1.5 1.5 0 0 1 452.5 538zm16 0a1.5 1.5 0 1 1-.001 3.001A1.5 1.5 0 0 1 468.5 538zm-8 0a1.5 1.5 0 1 1-.001 3.001A1.5 1.5 0 0 1 460.5 538zm16 0a1.5 1.5 0 1 1-.001 3.001A1.5 1.5 0 0 1 476.5 538zm16 0a1.5 1.5 0 1 1-.001 3.001A1.5 1.5 0 0 1 492.5 538zm-8 0a1.5 1.5 0 1 1-.001 3.001A1.5 1.5 0 0 1 484.5 538zm16 0a1.5 1.5 0 1 1-.001 3.001A1.5 1.5 0 0 1 500.5 538zm8 0a1.5 1.5 0 1 1-.001 3.001A1.5 1.5 0 0 1 508.5 538zm-192 0a1.5 1.5 0 1 1-.001 3.001A1.5 1.5 0 0 1 316.5 538zm16 0a1.5 1.5 0 1 1-.001 3.001A1.5 1.5 0 0 1 332.5 538zm-8 0a1.5 1.5 0 1 1-.001 3.001A1.5 1.5 0 0 1 324.5 538zm16 0a1.5 1.5 0 1 1-.001 3.001A1.5 1.5 0 0 1 340.5 538zm16 0a1.5 1.5 0 1 1-.001 3.001A1.5 1.5 0 0 1 356.5 538zm-8 0a1.5 1.5 0 1 1-.001 3.001A1.5 1.5 0 0 1 348.5 538zm16 0a1.5 1.5 0 1 1-.001 3.001A1.5 1.5 0 0 1 364.5 538zm16 0a1.5 1.5 0 1 1-.001 3.001A1.5 1.5 0 0 1 380.5 538zm-8 0a1.5 1.5 0 1 1-.001 3.001A1.5 1.5 0 0 1 372.5 538zm16 0a1.5 1.5 0 1 1-.001 3.001A1.5 1.5 0 0 1 388.5 538zm16 0a1.5 1.5 0 1 1-.001 3.001A1.5 1.5 0 0 1 404.5 538zm-8 0a1.5 1.5 0 1 1-.001 3.001A1.5 1.5 0 0 1 396.5 538zm16 0a1.5 1.5 0 1 1-.001 3.001A1.5 1.5 0 0 1 412.5 538zm16 0a1.5 1.5 0 1 1-.001 3.001A1.5 1.5 0 0 1 428.5 538zm-8 0a1.5 1.5 0 1 1-.001 3.001A1.5 1.5 0 0 1 420.5 538zm-108 8a1.5 1.5 0 1 1-.001 3.001A1.5 1.5 0 0 1 312.5 546zm16 0a1.5 1.5 0 1 1-.001 3.001A1.5 1.5 0 0 1 328.5 546zm-8 0a1.5 1.5 0 1 1-.001 3.001A1.5 1.5 0 0 1 320.5 546zm16 0a1.5 1.5 0 1 1-.001 3.001A1.5 1.5 0 0 1 336.5 546zm16 0a1.5 1.5 0 1 1-.001 3.001A1.5 1.5 0 0 1 352.5 546zm-8 0a1.5 1.5 0 1 1-.001 3.001A1.5 1.5 0 0 1 344.5 546zm16 0a1.5 1.5 0 1 1-.001 3.001A1.5 1.5 0 0 1 360.5 546zm16 0a1.5 1.5 0 1 1-.001 3.001A1.5 1.5 0 0 1 376.5 546zm-8 0a1.5 1.5 0 1 1-.001 3.001A1.5 1.5 0 0 1 368.5 546zm16 0a1.5 1.5 0 1 1-.001 3.001A1.5 1.5 0 0 1 384.5 546zm16 0a1.5 1.5 0 1 1-.001 3.001A1.5 1.5 0 0 1 400.5 546zm-8 0a1.5 1.5 0 1 1-.001 3.001A1.5 1.5 0 0 1 392.5 546zm16 0a1.5 1.5 0 1 1-.001 3.001A1.5 1.5 0 0 1 408.5 546zm16 0a1.5 1.5 0 1 1-.001 3.001A1.5 1.5 0 0 1 424.5 546zm-8 0a1.5 1.5 0 1 1-.001 3.001A1.5 1.5 0 0 1 416.5 546zm16 0a1.5 1.5 0 1 1-.001 3.001A1.5 1.5 0 0 1 432.5 546zm16 0a1.5 1.5 0 1 1-.001 3.001A1.5 1.5 0 0 1 448.5 546zm-8 0a1.5 1.5 0 1 1-.001 3.001A1.5 1.5 0 0 1 440.5 546zm16 0a1.5 1.5 0 1 1-.001 3.001A1.5 1.5 0 0 1 456.5 546zm16 0a1.5 1.5 0 1 1-.001 3.001A1.5 1.5 0 0 1 472.5 546zm-8 0a1.5 1.5 0 1 1-.001 3.001A1.5 1.5 0 0 1 464.5 546zm16 0a1.5 1.5 0 1 1-.001 3.001A1.5 1.5 0 0 1 480.5 546zm16 0a1.5 1.5 0 1 1-.001 3.001A1.5 1.5 0 0 1 496.5 546zm-8 0a1.5 1.5 0 1 1-.001 3.001A1.5 1.5 0 0 1 488.5 546zm16 0a1.5 1.5 0 1 1-.001 3.001A1.5 1.5 0 0 1 504.5 546zm8 0a1.5 1.5 0 1 1-.001 3.001A1.5 1.5 0 0 1 512.5 546zm-68 8a1.5 1.5 0 1 1-.001 3.001A1.5 1.5 0 0 1 444.5 554zm-8 0a1.5 1.5 0 1 1-.001 3.001A1.5 1.5 0 0 1 436.5 554zm16 0a1.5 1.5 0 1 1-.001 3.001A1.5 1.5 0 0 1 452.5 554zm16 0a1.5 1.5 0 1 1-.001 3.001A1.5 1.5 0 0 1 468.5 554zm-8 0a1.5 1.5 0 1 1-.001 3.001A1.5 1.5 0 0 1 460.5 554zm16 0a1.5 1.5 0 1 1-.001 3.001A1.5 1.5 0 0 1 476.5 554zm16 0a1.5 1.5 0 1 1-.001 3.001A1.5 1.5 0 0 1 492.5 554zm-8 0a1.5 1.5 0 1 1-.001 3.001A1.5 1.5 0 0 1 484.5 554zm16 0a1.5 1.5 0 1 1-.001 3.001A1.5 1.5 0 0 1 500.5 554zm8 0a1.5 1.5 0 1 1-.001 3.001A1.5 1.5 0 0 1 508.5 554zm-192 0a1.5 1.5 0 1 1-.001 3.001A1.5 1.5 0 0 1 316.5 554zm16 0a1.5 1.5 0 1 1-.001 3.001A1.5 1.5 0 0 1 332.5 554zm-8 0a1.5 1.5 0 1 1-.001 3.001A1.5 1.5 0 0 1 324.5 554zm16 0a1.5 1.5 0 1 1-.001 3.001A1.5 1.5 0 0 1 340.5 554zm16 0a1.5 1.5 0 1 1-.001 3.001A1.5 1.5 0 0 1 356.5 554zm-8 0a1.5 1.5 0 1 1-.001 3.001A1.5 1.5 0 0 1 348.5 554zm16 0a1.5 1.5 0 1 1-.001 3.001A1.5 1.5 0 0 1 364.5 554zm16 0a1.5 1.5 0 1 1-.001 3.001A1.5 1.5 0 0 1 380.5 554zm-8 0a1.5 1.5 0 1 1-.001 3.001A1.5 1.5 0 0 1 372.5 554zm16 0a1.5 1.5 0 1 1-.001 3.001A1.5 1.5 0 0 1 388.5 554zm16 0a1.5 1.5 0 1 1-.001 3.001A1.5 1.5 0 0 1 404.5 554zm-8 0a1.5 1.5 0 1 1-.001 3.001A1.5 1.5 0 0 1 396.5 554zm16 0a1.5 1.5 0 1 1-.001 3.001A1.5 1.5 0 0 1 412.5 554zm16 0a1.5 1.5 0 1 1-.001 3.001A1.5 1.5 0 0 1 428.5 554zm-8 0a1.5 1.5 0 1 1-.001 3.001A1.5 1.5 0 0 1 420.5 554zm-108 8a1.5 1.5 0 1 1-.001 3.001A1.5 1.5 0 0 1 312.5 562zm16 0a1.5 1.5 0 1 1-.001 3.001A1.5 1.5 0 0 1 328.5 562zm-8 0a1.5 1.5 0 1 1-.001 3.001A1.5 1.5 0 0 1 320.5 562zm16 0a1.5 1.5 0 1 1-.001 3.001A1.5 1.5 0 0 1 336.5 562zm16 0a1.5 1.5 0 1 1-.001 3.001A1.5 1.5 0 0 1 352.5 562zm-8 0a1.5 1.5 0 1 1-.001 3.001A1.5 1.5 0 0 1 344.5 562zm16 0a1.5 1.5 0 1 1-.001 3.001A1.5 1.5 0 0 1 360.5 562zm16 0a1.5 1.5 0 1 1-.001 3.001A1.5 1.5 0 0 1 376.5 562zm-8 0a1.5 1.5 0 1 1-.001 3.001A1.5 1.5 0 0 1 368.5 562zm16 0a1.5 1.5 0 1 1-.001 3.001A1.5 1.5 0 0 1 384.5 562zm16 0a1.5 1.5 0 1 1-.001 3.001A1.5 1.5 0 0 1 400.5 562zm-8 0a1.5 1.5 0 1 1-.001 3.001A1.5 1.5 0 0 1 392.5 562zm16 0a1.5 1.5 0 1 1-.001 3.001A1.5 1.5 0 0 1 408.5 562zm16 0a1.5 1.5 0 1 1-.001 3.001A1.5 1.5 0 0 1 424.5 562zm-8 0a1.5 1.5 0 1 1-.001 3.001A1.5 1.5 0 0 1 416.5 562zm16 0a1.5 1.5 0 1 1-.001 3.001A1.5 1.5 0 0 1 432.5 562zm16 0a1.5 1.5 0 1 1-.001 3.001A1.5 1.5 0 0 1 448.5 562zm-8 0a1.5 1.5 0 1 1-.001 3.001A1.5 1.5 0 0 1 440.5 562zm16 0a1.5 1.5 0 1 1-.001 3.001A1.5 1.5 0 0 1 456.5 562zm16 0a1.5 1.5 0 1 1-.001 3.001A1.5 1.5 0 0 1 472.5 562zm-8 0a1.5 1.5 0 1 1-.001 3.001A1.5 1.5 0 0 1 464.5 562zm16 0a1.5 1.5 0 1 1-.001 3.001A1.5 1.5 0 0 1 480.5 562zm16 0a1.5 1.5 0 1 1-.001 3.001A1.5 1.5 0 0 1 496.5 562zm-8 0a1.5 1.5 0 1 1-.001 3.001A1.5 1.5 0 0 1 488.5 562zm16 0a1.5 1.5 0 1 1-.001 3.001A1.5 1.5 0 0 1 504.5 562zm8 0a1.5 1.5 0 1 1-.001 3.001A1.5 1.5 0 0 1 512.5 562zm-200 16a1.5 1.5 0 1 1-.001 3.001A1.5 1.5 0 0 1 312.5 578zm16 0a1.5 1.5 0 1 1-.001 3.001A1.5 1.5 0 0 1 328.5 578zm-8 0a1.5 1.5 0 1 1-.001 3.001A1.5 1.5 0 0 1 320.5 578zm16 0a1.5 1.5 0 1 1-.001 3.001A1.5 1.5 0 0 1 336.5 578zm16 0a1.5 1.5 0 1 1-.001 3.001A1.5 1.5 0 0 1 352.5 578zm-8 0a1.5 1.5 0 1 1-.001 3.001A1.5 1.5 0 0 1 344.5 578zm16 0a1.5 1.5 0 1 1-.001 3.001A1.5 1.5 0 0 1 360.5 578zm16 0a1.5 1.5 0 1 1-.001 3.001A1.5 1.5 0 0 1 376.5 578zm-8 0a1.5 1.5 0 1 1-.001 3.001A1.5 1.5 0 0 1 368.5 578zm16 0a1.5 1.5 0 1 1-.001 3.001A1.5 1.5 0 0 1 384.5 578zm16 0a1.5 1.5 0 1 1-.001 3.001A1.5 1.5 0 0 1 400.5 578zm-8 0a1.5 1.5 0 1 1-.001 3.001A1.5 1.5 0 0 1 392.5 578zm16 0a1.5 1.5 0 1 1-.001 3.001A1.5 1.5 0 0 1 408.5 578zm16 0a1.5 1.5 0 1 1-.001 3.001A1.5 1.5 0 0 1 424.5 578zm-8 0a1.5 1.5 0 1 1-.001 3.001A1.5 1.5 0 0 1 416.5 578zm16 0a1.5 1.5 0 1 1-.001 3.001A1.5 1.5 0 0 1 432.5 578zm16 0a1.5 1.5 0 1 1-.001 3.001A1.5 1.5 0 0 1 448.5 578zm-8 0a1.5 1.5 0 1 1-.001 3.001A1.5 1.5 0 0 1 440.5 578zm16 0a1.5 1.5 0 1 1-.001 3.001A1.5 1.5 0 0 1 456.5 578zm16 0a1.5 1.5 0 1 1-.001 3.001A1.5 1.5 0 0 1 472.5 578zm-8 0a1.5 1.5 0 1 1-.001 3.001A1.5 1.5 0 0 1 464.5 578zm16 0a1.5 1.5 0 1 1-.001 3.001A1.5 1.5 0 0 1 480.5 578zm16 0a1.5 1.5 0 1 1-.001 3.001A1.5 1.5 0 0 1 496.5 578zm-8 0a1.5 1.5 0 1 1-.001 3.001A1.5 1.5 0 0 1 488.5 578zm16 0a1.5 1.5 0 1 1-.001 3.001A1.5 1.5 0 0 1 504.5 578zm8 0a1.5 1.5 0 1 1-.001 3.001A1.5 1.5 0 0 1 512.5 578zm-68-8a1.5 1.5 0 1 1-.001 3.001A1.5 1.5 0 0 1 444.5 570zm-8 0a1.5 1.5 0 1 1-.001 3.001A1.5 1.5 0 0 1 436.5 570zm16 0a1.5 1.5 0 1 1-.001 3.001A1.5 1.5 0 0 1 452.5 570zm16 0a1.5 1.5 0 1 1-.001 3.001A1.5 1.5 0 0 1 468.5 570zm-8 0a1.5 1.5 0 1 1-.001 3.001A1.5 1.5 0 0 1 460.5 570zm16 0a1.5 1.5 0 1 1-.001 3.001A1.5 1.5 0 0 1 476.5 570zm16 0a1.5 1.5 0 1 1-.001 3.001A1.5 1.5 0 0 1 492.5 570zm-8 0a1.5 1.5 0 1 1-.001 3.001A1.5 1.5 0 0 1 484.5 570zm16 0a1.5 1.5 0 1 1-.001 3.001A1.5 1.5 0 0 1 500.5 570zm8 0a1.5 1.5 0 1 1-.001 3.001A1.5 1.5 0 0 1 508.5 570zm-192 0a1.5 1.5 0 1 1-.001 3.001A1.5 1.5 0 0 1 316.5 570zm16 0a1.5 1.5 0 1 1-.001 3.001A1.5 1.5 0 0 1 332.5 570zm-8 0a1.5 1.5 0 1 1-.001 3.001A1.5 1.5 0 0 1 324.5 570zm16 0a1.5 1.5 0 1 1-.001 3.001A1.5 1.5 0 0 1 340.5 570zm16 0a1.5 1.5 0 1 1-.001 3.001A1.5 1.5 0 0 1 356.5 570zm-8 0a1.5 1.5 0 1 1-.001 3.001A1.5 1.5 0 0 1 348.5 570zm16 0a1.5 1.5 0 1 1-.001 3.001A1.5 1.5 0 0 1 364.5 570zm16 0a1.5 1.5 0 1 1-.001 3.001A1.5 1.5 0 0 1 380.5 570zm-8 0a1.5 1.5 0 1 1-.001 3.001A1.5 1.5 0 0 1 372.5 570zm16 0a1.5 1.5 0 1 1-.001 3.001A1.5 1.5 0 0 1 388.5 570zm16 0a1.5 1.5 0 1 1-.001 3.001A1.5 1.5 0 0 1 404.5 570zm-8 0a1.5 1.5 0 1 1-.001 3.001A1.5 1.5 0 0 1 396.5 570zm16 0a1.5 1.5 0 1 1-.001 3.001A1.5 1.5 0 0 1 412.5 570zm16 0a1.5 1.5 0 1 1-.001 3.001A1.5 1.5 0 0 1 428.5 570zm-8 0a1.5 1.5 0 1 1-.001 3.001A1.5 1.5 0 0 1 420.5 570z" fill="#F47698"/></g></svg>