<svg width="1056" height="792" xmlns="http://www.w3.org/2000/svg"><g fill="none" fill-rule="evenodd"><path d="M645.423 236.946c-.557.388-1.135.402-1.687-.33.312-1.144 1.503-2.19 1.408-3.347.587-.286 1.866 1.016 1.995 1.224-.564.592-.169-.04-.569-.258-.915.92-1.556 1.78-1.147 2.711zm6.03-9.447c1.011-.745 2.016.614 2.29 1.54-1.06 1.186-1.877 1.226-2.577 1.813-.468-.22-1.265-.724-1.244-1.334.88-.887 2.132-.741 1.531-2.019zm20.203-15.05c-.519.287-.987.067-1.44-.56-.971.577-.181 1.284-.951 1.936-.671-.227-.99-.85-1.375-1.474.824-.243.73-1.47 1.79-1.67.618.803 1.256.995 1.895.202-.255.5-.138 1.048.081 1.565zm-14.294 10.702l.982 1.053c-.756.246-1.186.91-1.65 1.539-.828-.606-.924-.78-.963-1.596.538-.83 1.057-.133 1.63-.996zm-17.121 17.774l-1.826 1.703c-.542-.02-1.038-.41-1.534-.801.693-.383 1.666-1.029 1.93-1.8.469.22.97.475 1.43.898zm-8.983 6.067c.513-.153 1.05-.07 1.569.486-.316.294.213.58-.306.869-.842-.059-1.09-.607-1.263-1.355zm17.094-14.278c.648-.08 1.26-1.043 1.075-1.592-.67-.296-1.868.953-1.075 1.592zm3.168 1.433c.388.557.772.265 1.123.922.685-.18.597-.556 1.338-.394-.026.746-.148 1.319.856 1.762-1.028 1.22-1.867-.032-2.872 1.496-.806-1.217-2.21-1.878-2.534-3.281.716-.077 1.385.218 2.09-.505zm18.46-10.704c-1.355.87-2.242.975-2.563 2.39-2.152-1.604-4.375.798-6.5-1.552.156-.606.517-1.204.473-1.885 1.408-.46 3.165.79 4.053 1.602 1.144.311 1.472-1.307 2.523-1.237.056-.643-.362-1.303.375-1.99 1.071.445 1.363 1.813 1.639 2.672zm4.768-9.03c-.83-.539-.773-1.182-1.557-1.108-.664-.43.71-.858-.123-1.328.519-.288 1.001-.475 1.488-.797 1.139.447 2.4 1.306 2.705 2.268-.837.65-1.644.418-2.513.965zm-6.316 2.107c1.094-.234 2.327 1.44 2.565 2.399-.868.547-1.21 1.588-1.826 1.702-1.438-1.613-2.595-2.502-.74-4.101zm-21.017 24.76c-1.462.051-2.022 1.492-2.963 2.172-1.102.437-2.256-1.505-2.565-2.399.705-.722 2.131.245 1.673-1.232.653-.215 1.23.756 1.855 1.356.099-.88 1.074-1.593 1.93-1.8.555.664-.313 1.21.07 1.903zm7.479-12.06c1.298-.227 3.053-.879 3.759 1.285-.976.713-1.278.6-2.088 1.422-.266-1.13-1.443-1.477-1.671-2.708zm57.78-50.777l-.737.688c-.497-.251-.326-.28-.982-.772.437-.798 1.285-.874 1.66-1.809 1.064.437.656 1.337 1.793 1.64-.01.27-.321.43-.13.706-.545.12-1.072-.234-1.604-.453zm-6.838 4.695c.659-.42 1.21 1.016 1.85 1.068-.128.638-.422 1.238-.784 1.835-1.11-.979-.869-1.917-1.066-2.903zm-49.911 53.58c-.517-.766-1.067-.581-1.583-1.347.267-.84 1.446-1.545 2.097-1.692.426-.529-.279-.791-.643-1.042.044-.304.19-.57.606-.828.145.719 1.469.73 2.135 1.094.185.55.435 1.17.21 1.773-.388-.557-.772-.265-1.122-.922-.457.425.034.952.221 1.434-1.032 1.356-.639.793-1.921 1.53zM638.03 250.58c.247.688.79.707.806 1.217-.463.629-.961-.679-1.394-.932.171-.028.377-.089.588-.285zm27.114-20.826c-.225-.381-.466-.288-.73-.5-.168-1.026-.973-1.325-1.18-2.182 1.354-.87 3.204 1.607 1.91 2.682zm-4.748.894c1.065-1.321 2.166-3.66 3.5-1.032-.278.194-.573.863-.823.243-.384.292.42.592.512.9-1.07.473-2.139.945-3.189-.11zM644.893 245c.872 1.287-.563 2.494-.437 3.755-.861.343-1.694-.127-2.592-.668-.549-1.785 3.073-1.421 2.31-2.942.242-.094.47.152.719-.145zm27.956-27.252c.51.968 1.134.583 1.7.908-.798.482-1.586.692-2.306-.08.381-.225.051-.508.606-.828zm.426 7.86c-4.011-2.824 1.328-3.996 3.128-2.065-.133.912-1.299 1.211-1.944 1.223-.667.622.563 1.378-.647 1.98 1.493.053 2.645 2.063 1.075 3.265-1.37-.625-1.835-2.883-2.761-3.595.306-.023.673.16.999-.406.072-.134.01-.272.15-.403zm-7.78 2.61c2.073-2 4.786.064 4.41 2.055-1.468.254-3.478-.563-4.41-2.056zm-15.241 19.2c-.63.52.608 1.073-.19 1.555-1.078-.241-1.682-1.451-2.203-2.08.839-2.62 3.04-1.457 4.654-.993.622.667-1.03 1.289-.41 2.023-.28.194-.64-.192-1 .407-.599-.36-.327-.351-.851-.913zm-7.062 6.388c-1.518-.291-.413-1.78-1.421-2.088.61.022 1.076-.675.65-1.132 1.16-.163 2.407 1.103 2.542 2.093-.903.58-1.034.44-1.771 1.127zm15.515-12.15c-1.116.845-1.407 1.378-2.368 1.684-.68-.94-1.324-.997-1.974-1.835.866-.479.7-1.572 1.374-2.397 1.067.58 1.936 1.935 2.968 2.549zm1.328-7.271c1.598-.047 1.12-1.897 2.422-2.26.143.787.863 1.56 1.684 2.369-.209.129-.248.297-.185.435-.389.428-.733.552-1.058.133-.285.397.178.753-.311 1.144-.896-.609-2.524-.666-2.552-1.821zm50.794-46.166c.537.928-.821 1.935.645 2.451 1.155-.168.31-2.693-.645-2.451zm6.932-6.178c.977.907 1.506 1.193 1.498 2.24-.694.452-1.612-.25-1.93.956-.962-.468-.908-.973-1.383-1.764.6-.624 1.196-1.18 1.815-1.432zm-40.412 37.928c-.072-.851 1.042-.642 1.51-1.407.014.578-.178 1.216-.944 1.733-.161-.243-.39-.49-.566-.326zm-12.628 15.198c1.124-1.048 1.711-2.318 2.944-1.63.739 1.215-.235 1.86.92 2.817-1.327 1.04-2.608-.193-3.864-1.187zm-17.598 16.623c1.09-1.082 2.169-.84 3.242-.464.543 1.004-.82 3.062-2.179 3.083-.608-1.075-.275-1.844-1.063-2.619zm26.487-21.195c-1.217.807-2.1-1.126-.919-1.9.543.02 1.022.885 1.244 1.334-.278.194-.15.403-.325.566zm-18.82 17.832c-.87-.37-1.228-.824-1.506-1.615.966-.442.604-.76 1.205-1.452 1.547.461 1.427 1.951.3 3.067zm7.723-10.558c.723.705.835 1.388 1.389 2.052-.496.594-.964.374-1.479.526-.411-.863-.72-1.757.09-2.578zm-20.06 20.236c-.553.321-.227.601-.607.826.745.8.758-.383.607-.826zm34.736-30.33c1.03.68 2.08.751 3.158.993-.534 1.68-1.987 1.459-2.703 2.52-.48-.865-1.031-.613-1.57-.768-.497-1.307.331-1.686 1.115-2.745zm-8.426 13.25c.025.239-.323.498-.162.741-1.252.84-3.308.394-3.583-1.45.398-.699.774.198 1.188.008.522-.355-.547-.868.452-1.274.54 1.071 1.211 1.298 2.105 1.975zm-17.897 17.405c-.85.99-1.611-.532-2.066.811-.814-.028-1.534-.8-2.301-1.201.683-1.097.89-2.143 2.272-1.857.053 1.395 1.705.773 2.095 2.247zm73.074-68.798c-.672.757-1.347-.108-2.014.514-.348-.585-.753-.597-1.112-.911.51-.93.955-.242 1.485-.8.25-.365-.613-.728-.432-1.027.961.468 1.298 1.322 2.073 2.224zm-49.971 46.911c-1.075.608-2.092-.412-3.158-.993.407-.97 1.4-2.158 2.4-1.648.412.863.62 1.72.758 2.641zm10.903-12.322c-.784.074-1.528-.02-2.295-.42.821-.175.154-.538.887-1.09.475.017 1.391 1 1.408 1.51zm-.135-1.981l.457-.426c.393.421-.13.777.23 1.163-.385.36-.726-.569-.687-.737zm-40.372 42.454c-1.05.07-1.612.594-2.409 1.077-.094-.172-.262-.21-.4-.147-.666-1.067 1.264-1.178.363-2.286l.491-.458c1.013.03 1.299-.367 2.2-.948 1.146.946-.917 1.83-.245 2.762zm34.951-29.956c.082.58-.311 1.143-.366 1.719-.961.306-1.906.137-2.844-1.22 1.014-.814 1.295-2.06 2.368-1.683.118-.438-.58-.904-.666-1.348.213-.265.412-.122.553-.253.626.532.441.967.593 1.481.436-.8.705-.722 1.446-.56.496.39-.028.814.231 1.162-.421.393-.922 1.123-1.315.702zm-31.829 30.623c-.972-.198-1.169-1.183-2.238-1.485 1.312-.704 2.142-4.53 3.84-2.217-.332.7-.632 1.434.353 2.139-.645.082-1.258 1.043-1.955 1.563zm25.154-26.358a1.323 1.323 0 0 1-.017-.983c1.067-.404 1.375 1.475 1.494 1.954-.17.028-.41.054-.587.285-.152-.182-.32-.371-.474-.57-.296.609-.759 1.167-.24 1.787-.636.725-1.235.364-1.782.481-.456-.56-.776-1.114-1.13-1.703.7-.587 1.39-.903 2.098-1.693.213.307.426.356.638.442zm-18.322 19.653c-.197.774.69.67.83 1.523-1.42-.185-2.592-.668-3.377-2.495 1.463-1.036 3.264-2.06 4.21.011-.537.83-1.057.133-1.663.96zm41.394-42.016c.26.349-.43.664-.171 1.013-.412.121-1.018-.036-.969-.476.356-.463.751-.11 1.14-.537zm-34.781 33.074c.557-.388.734.366.959.747-.466-.288-1.477.458-.478 1.036-.592.421-1 .407-.616 1.1-.838.65-2.351.223-2.7-.502.181-.3.38-.157.543.019-.909-2.172 2.3-1.686 2.292-2.4zm8.061-3.936c-.685.18-1.328.124-2.002-.035.07-1.05 1.386-2.737 2.337-.802-.145.267-.157.606-.335.837zm-17.767 14.412c-.286.398-.52.288-.763.45-.028-.172-.053-.41-.285-.588l.492-.458.556.596zm8.312-.118c-.993-.714-2.495-1.48-3.048-.242-.647-.906.57-1.712-.246-2.658 2.403-1.716 3.731-.854 5.4.936.11.751-1.116 1.829-1.803 1.092-.281.262.217.585-.303.872zm31.08-31.018c-1.231 1.213-1.16-.822-2.136-1.094.506-.865.277-2.096 1.41-2.43.177.754 1.452 1.206 2.095 2.247-.452.29-.09.608-.606.828-.571-.19-.943-.237-1.123-.922-.491.458.444.898.36 1.37zm-35.546 32.835c1.39 2.97-2.454 4.126-3.707 2.078-1.508-2.532 2.408-1.852 3.707-2.078zm12.63-9.848c-.633 2.559-3.06.097-4.522 1.132.086-.54.445-1.07.157-1.59.484-.255 1.743-.313.65-1.132 1.28-.669 2.483.901 3.715 1.59zm4.402-8.494c.764.468.382 1.677 1.779 2.541-.553 1.237-.843.786-1.931 1.8-.596-.428-.379-.828-1.008-1.291-.626-.531-.667.622-1.172.502-.662-.498.948-.884.085-1.457 1.195-.196.915-1.904 2.247-2.095zm5.827-5.572c1.617-.59 1.31 1.404 2.226 2.387-.92 1.054-1.74.245-2.653 1.096-.419-.66-.899-.541-1.289-1.03.047-.372.262-.704.206-1.046.314-.227.58-.081.873.302.833-.514.176-1.148.637-1.71zm4.063-3.57c.36-2.5 2.534-1.575 3.916-.304-.089.608-.143 1.183-.333 1.754-1.443.493-2.521.252-3.583-1.45zm13.739-12.625c.227-.671.595-1.474 1.324-.973.695.534-.052 1.493-.768 1.57l-.556-.597zm-50.56 47.42c.803-.617 1.445-.632 1.956-1.563 1.09.607 2.746 1.467 2.972 2.554-.942-.095-1.893.856-2.773.053-.28.262-.324.497-.165.738-1.16-.54-1.425-.684-1.99-1.781zm64.477-56.89c-.79.277-1.064.336-1.5 1.135-.827-.606-.81-1.08-1.679-1.519.892-.24 1.694.128 2.61-.791.63.395.413.795.57 1.174zm13.004-12.03c-.818 1.024-2.044.413-2.095 1.695-.28-.583-.28-.583-.843-.903.295-.6 1.367-1.21 1.121-1.825.621-.32 1.717.153 1.817 1.034zm3.534-4.944c.694-.452 1.023-1.084 1.088-1.86 1.037.268 2.722 1.23 3.243 1.718-1.396.263-2.204 1.86-3.37 1.454.683.662.683 1.506 1.217 2.502-1.288.097-1.32-1.627-2.084-1.954.338-.834.592-1.266-.094-1.86zm-64.57 61.871c-.33-.283-.22-.517-.38-.76.521-.356 1.066-.405 1.619-.657.413.796-.775.788-1.239 1.417zm2.728 1.738c-.558-.53-1.158.095-1.733-.944.069-.982 1.882-1.36.822-2.145.312-.159.616-.114.927-.273.542 1.004 1.132.65 1.7.908-.538.83-.737 1.673-1.716 2.454zm6.521-7.221c-.622.318.248.688.1 1.022-.905.648-1.525-.087-2.121-.515-.491-1.512 2.686-2.046 2.156-3.389 1.069-.472 1.426.967 2.116 1.636-1.119.912-1.233 1.282-2.25 1.246zm-17.33 19.16c-.721.283-1.353.028-2.071.243-.386-1.329-.345-2.341.875-3.284 1.19.643 1.374 1.966 1.196 3.041zm5.505-5.464c-.889.173-1.747-.536-2.58-1.007-.041-.748.63-1.506 1.538-2.222 2.007-.1 1.592 2.06 1.042 3.23zm9.476-11.54l.878-.819c.73.501.306.962-.322 1.415l-.556-.596zm7.153-7.335c.42-.393.771.264 1.172-.503.453.627.636 1.245.072 1.837-.765-.469-.526-1.48-1.004-.443-.227-.314-.353-.59-.24-.891zm-15.726 24.758c-1.991.61-5.284-1.373-3.688-3.321.742.161 1.462-.051 2.22-.364.636 1.244 1.806 1.795 2.074 2.857-.517.22-.187.503-.606.828zm8.922-14.295c-.156-2.35 2.075-.098 3.26-1.924.458.491.1 1.022-.324 1.483.552.732 1.12.99 1.714 1.486-.524.423-.03.882-.826 1.296-.639-.192-.828-.607-1.263-.792-.25.365-.092.677-.171 1.013-1.173.503-2.353-1.678-2.86-2.715.175-.163.336.08.47.153zm44.805-41.153c1.48-.526 2.652 1.858 1.934 2.988-1.348-.319-1.393 1.955-2.792 1.159-.009-.714-.633-1.313-1.398-1.78.22-.469.036-1.018.497-1.58.524-.423 1.399-.189 1.448.356.25-.364.468-.764.311-1.143zm-47.287 48.782c-.5.73-.945-.169-1.434.222-.826.31.587.7-.17 1.012-1.252-.145-2.031-1.191-2.566-2.399.782-.991 1.152-1.861 2.282-2.127.703 1.247 1.496.901 2.23 1.266-.598.625.192 1.331-.342 2.026zm23.489-26.21c.951.95 1.662 1.993 2.118 2.553-.852 1.057-1.584.623-2.391 1.376-.436.8 1.096 1.669 1.203 2.488-.554.32-.379.156-.772.72-.23-.246-.564-.393-.802-.368-.161-1.228-1.169-2.52-1.056-3.806-.517-.766-1.104.504-1.59-.158.143-2.168 1.68-2.42 3.29-2.806zm-12.745 15.18c-.768-.4-2.267-1.233-2.095-2.246.91-.783 1.83-.853 2.358-1.412 1.35 1.236 2.392 3.48-.263 3.659zm7.515-6.275c-1.095.234-2.841 1.599-3.364.052-.473-.084-1.016.882-1.489.798.17-.946.79-2.18 1.88-2.278-.125-2.246 2.662-.383 3.275.556-.384.292-.496.594-.302.872zm24.668-23.162c-.622.318-1.256-.01-1.456.832-1.48-.391-2.396-2.36-.454-3.514.397.286.921.847 1.665.941.049.545.367 1.168.245 1.74zm-5.335 5.199c-.646.996-1.743.313-1.883-.541-.4-.218-.875.75-1.36 1.005-.425-.456.1-.88-.666-1.348.298-.737 1.458-.9 1.388-1.82.286-.397.569.258.882.032.332 1.2.93 1.56 1.64 2.672zm-51.28 47.28c-.124.57-.7.587-.608.826-.996-.435-1.13-1.283-2.097-1.616.184-1.21 1.053-.982 1.93-1.8.635.188 1.22.745 1.863.73-.647-.694.114-1.989 1.121-1.824.394.282.01.575.505.893 1.725-.894 3.543-.705 4.134 1.407-1.01.747-.635 1.5-.938 2.302-1.055.206-2.56-1.055-3.102-1.848-.629-.323-.418 1.17-1.018.105-.437.798-.37.8-.807 1.597-.321-.415-.645-.762-.983-.772zm42.049-41.734c-.512-.9 1.011-1.73 1.278-2.57 1.254.077.865 1.49 2.072 1.94-1.135.402-2.203-1.096-3.35.63zm33.329-29.096c-.052.438-.135.84-.76 1.227-.46-.284-1.417-.886-2.318-.305-.36-.315-.484-.589-.54-.86.642-.86 1.19-.202 1.768-1.13.632.255 1.237.34 1.85 1.068zm4.612-6.808c.802.227.826.464 1.439 1.191-.63.522-1.088 1.015-1.38 1.547-.932-.365-.953-.67-1.85-1.068.011-.27.53-.559.036-.877.67-.69 1.441.279 1.755-.793zm-12.492 12.312l-.557-.597c-.727.416-.11 1.219-.922 1.123-.984-.986.906-1.633 1.529-1.95.661.498.645.973-.05 1.424zm-72.348 70.985c-.661.487-.34-.787-1.018.105-.572-.895-1.125-.574-1.673-1.232.191-.569.629-.522 1.064-1.252.858.498 1.765 1.471 1.627 2.379zm18.905-6.916c-.668.525-.882.827-1.835 1.468-1.247-.281-1.962-1.19-2.951-2.039.596-2.784 3.123-1.897 4.552-.042a2.131 2.131 0 0 1-.054-.845c.94-.68 1.841-.208 2.807-.65 1.45 1.274.488 2.565.139 3.809-1.066.147-2.144-.692-2.658-1.701zm33.29-44.343c.465.288.022 1.291.675 1.076-.023-.306.16-1.658-.675-1.076zm.376 4.615c-.55.184-1.09.097-1.614-.464-.02-.375.4-.767.38-1.142.924-.205 1.024.817 1.234 1.606zm18.05-19.64c.536.222 1.605.735 1.646 1.483-1.022 1.085-2.021.507-3.015-.207.017-.475.835-.582 1.37-1.277zm-8.757 17.887c-1.523.83-3.044 1.592-4.513.861-.648 1.064-.931 1.394-2.13 1.658-.518-.697.49-1.375.107-2.068-.966-.543-1.17-1.535-1.543-2.5.992-.202 1.688 2.233 2.856 1.867.705-2.693 3.81-3.094 4.798-.274 1.457.084 2.67-1.571 3.847-2.21 1.335 1.643.16 3.199-1.458 4.772-.973-.34-1.038-1.395-1.964-2.106zm-2.986-6.161c.493.459.072.852.668 1.28-1.992 2.58-3.53-1.04-.668-1.28zm7.741-5.058c-.599.624-1.141.605-1.78 1.398-.293-.384-.592-.564-.873-.302-.425-.457-.105-.887-.362-1.303 1.004-.543 2.56-1.337 3.015.207zm-49.779 48.06c-.84.718-1.708.28-2.524-.666.013-1.324 1.33-1.108 2.193-1.52.327.352.18.686.643 1.042-.288.465-.613-.938-.968-.475.116.547.2 1.06.656 1.619zm5.512-9.43c-.035 1.018.74.23 1.135.584-.438.868-.976 1.698-1.816 1.43-.208.13-.134.913.285.588-.143 1.184-1.444.493-2.035-.071.61-.964 1.222-1.927 2.431-2.53zm17.797-15.824c-.087.54-.242 1.078.08 1.565-.535.762-1.026.236-1.62.724-.538-1.14.059-2.68 1.54-2.29zm-5.987 6.532c.53.359.145.719.678 1.009-.447.154-.868.547-1.284-.18.416-.258.054-.576.606-.829zm32.93-23.973c-.538 1.815-2.885 1.903-4.25 1.142-.212-2.69 2.646-2.862 4.25-1.142zm-41.232 35.668c.198-2.744 3.552-1.54 4.791.914-1.128.199-1.862.818-2.696 1.333-.72-.773-1.122-1.907-2.095-2.247zm18.376-18.725c.784-.074 1.065-.336 1.194-1.113 1.027-.236 2.526 1.583 2.661 2.572-.587.285-1.167.367-1.705.212-.211 1.182-1.346 1.584-2.23.636-.21-.789.29-1.518.08-2.307zm26.538-19.986c-3.9-1.155-1.032-5.47 1.56-2.833.045 1.598-1.375 1.413-1.56 2.833zm-28.57 26.664c-.625.385-.401.767-.923 1.122-.942-.237-1.942.17-2.917-.102-.53-.358-.112-.683-.643-1.041.33-.702 1.994-.678 1.04-1.56.489-.39 1.006-.61 1.488-.797 1.195.789.984 1.97 1.954 2.378zm35.947-36.118c1.995 2.21-2.545 3.817-2.653 1.096.599-.624 1.196-1.18 1.748-1.433.528.426.233 1.095.905.337zM661.232 280.1c-1.471 1.307-3.402 3.952-5.419 2-.524.425.235.886-.221 1.312-.586.286-1.267.401-1.85-.224.357-.462.646-.927.327-1.409.416-.258.818-.178 1.193-.269.103-1.72 1.75-2.346 2.728-3.128.65.628.186 1.256.937 1.92.407-.056.283-1.174 1.204-1.383.435.114.858.498 1.288.747 1.126-1.115 2.152-.577 3.218-1.052.027.17.052.406.281.582-.065.775-.891.311-1.39.972.14.714.582 1.47-.492 2.147-.935-.298-2.08-1.244-1.804-2.215zm23.839-22.545c-1.049 1.832-3.19 2.844-4.548.894.47-.832.487-2.292 1.82-2.551.56.529 1.016 1.088 1.303 1.608.405.082.939-.613 1.425.05zm14.749-17.9c.08-.336-.077-.715-.133-1.057.374-.02.69-.315 1.032-.371 1.98 1.631-.729 2.385-.709 3.745-.867-.438-1.185-1.06-1.494-1.954.422-.393.857-.208 1.304-.362zm32.67-27.933c-.866.548-2.4.874-2.762-.217.94-.682 1.874-1.228 2.787-.39-.076.2-.151.4-.024.607zm-54.899 76.936c.409-.153.832-.39 1.267-.64.529.426.48.866.667 1.348.57.19 1.2-.331 1.75-.516.561.461.715.908.972 1.325.997-.34 1.999-1.799 2.989-1.934.956.815 1.234 1.606 1.376 2.392-.968.51-1.337 3.281-3.444 2.359-.26.636-1.58 1.473-2.185.33.458-.493 1.186-.909 1.17-1.419-.84-.267-2.162.638-2.63 1.403-1.108-.619-2.752-1.586-3.366-2.599.059.207.171.415.365.623-1.693-.76-2.56.633-2.995 2.208-.97-.265-1.614-1.872-2.214-2.093-.742-.022-1.52.834-2.165.071-.321.43.81.869.656 1.337-.702.655-1.302.434-1.942 1.226-1.171-.271-1.703-1.334-2.202-2.362.496-.593.71-1.702 1.628-1.843.426.316 1.085.741 1.393 1.493.475-.053 1.134-1.317 1.93-1.8.43.249.86.498 1.278 1.017.81.024 1.566-1.135 2.316-.471.419-.326.265-.702.211-1.041.521-.356.953.67 1.372.344-.157-1.153.58-1.84 1.728-1.806.259.278-.224.534.202.85-.041.076-.084.141-.127.198zm-.646.388c-.226.048-.457.072-.68.25-.048.242-.116.494-.146.751.32-.4 1.104-.472.826-1.001zm-.452-3.09c1.144-1.355 2.304-3.397 4.418-.164-.112 1.286-1.5 1.136-2.115 2.235-.83.136-1.945-1.695-2.344-1.965-.12.323-.2.648-.124.987-.868.547-1.294.09-1.5 1.136-1.422-.118-2.395-1.442-3.131-2.724 1.154-.945 1.383-.7 2.436-1.681.841 1.184 1.787.368 2.668 1.383-.08.27-.204.532-.308.793zm61.461-81.297l.551.59c-.07.91-1.71 1.335-1.744.523.25-.364.478-.966 1.193-1.113zm-85.884 80.945c.68.73.786 1.476.624 2.147-.864.48-1.14-.237-1.78.555-.766-.26-.145-.579-.799-1.139.935-.546 1.056-1.05 1.955-1.563zm42.991-35.52c-.386.36.278.791.231 1.163-.966 1.427-3.443 4.261-4.209.906.473-.9 1.304-.362 1.325-.972.23-.74-.933-1.493-.635-2.23 1.092-.166 2.165 1.196 3.288 1.134zm22.708-22.047c.388.557-.038 1.085-.429 1.58-.71-.058-1.38-.353-1.995-1.223.805-.686 1.622-.725 2.424-.357zm-36.455 36.923c-.662.486-1.24-.485-1.864-1.084.2-.842.69-2.218 1.812-2.28 1.045 1.19.329 2.253.052 3.364zm-8.154 4.592c.606-.828 1.28-.668 1.935-.951.007.781-.326 1.55-.998 2.309-.222-.45-.376-.897-.937-1.358zm26.22-22.785c-.013.34-.364.667-.748.959-.332-.215-.71-.059-1.036-.478.162-.741 1.271-1.382 1.783-.48zm4.576-6.09c.185-.435-.072-.852.452-1.275.23.246.454.627.697.466.182.617-.845.853-1.149.809zm-16.425 16.334c-.262.704.292 1.368-.375 1.99-.407-.014-.767-.4-1.179-.279-.19-.414-.107-.819-.229-1.23.59-.353 1.159-.096 1.783-.481zm36.723-34.45l.556.596c-.47.833-.884.037-1.294.09-.327-.35.567-.659.738-.687zm-46.3 43.164c-.15-.582 1.15-.877.922-1.122.781-.007.198 1.127-.193 1.623-.236-.042-.468-.22-.73-.5zm-16.134 17.412c-.176.164-.213.264-.119.436-.624.387-1.09-.607-.972-1.042.386-.36.735.224 1.091.606zm53.787-50.745c.908-.716 3.02.071 4.379 1.036-1.176 2.54-4.14 2.81-4.69.108.416-.258.826-1.296.311-1.144zm7.297-2.257c-1.165-.686-1.44-1.544-1.779-2.541 1.076-.676 2.169.144 3.315-.597.32.554.632.395.992.781-.183 1.352-1.421 1.785-2.528 2.357zm-13.39 9.413c.12-1.49 1.737-3.064 2.834-2.38 2.463 1.444-.576 5.787-2.834 2.38zm-28.715 31.518c-.739-1.214-1.81-1.66-1.933-2.988.669-.69 1.335-.327 2.03-.778 1.165.686.743 2.063 1.824 2.237-.073 1.118-1.247.703-1.921 1.529zm-10.11 9.945c-1.191 2.03-3.135 1.283-4.636-.468-.028-.17.32-.43.127-.708.72-.213 1.663.024 1.968-.917 1.178.28 1.637.77 2.542 2.093zm4.012-8.083c.757 1.656 2.138.04 3.289 1.133l-1.018.95c-.05.44.58.903.937 1.357-1.001.474-2.005.032-3.065 1.217-1.984-.578-3.395-3.922-.455-3.514.726-.348-.313-.758.312-1.143zm33.388-30.434c.718-.145 1.24-.5 1.334-1.244-.783-.91-1.92.544-1.334 1.244zm-15.957 14.603c.454-.358-.451-.695.206-1.046.931-.409 1.82.403 2.732.537-.561.524-.105 1.083-.227 1.656-1.297 1.143-3.3 1.107-4.014-.785.023-.679.851-.073 1.303-.362zm11.558-11.493c.833-1.5 3.409-1.342 4.201.282-1.114.776-2.16.57-3.24 1.381-.864-.573-.098-1.09-.961-1.663zm-18.378 17.074c.545.936 1.188.007 1.75-.517.225.382.466.288.732.434.042.748.454.627.666 1.347-.43.665-.856.208-1.293.091-.216.332.112.683-.478 1.036-.636-.26-1.23-.756-1.829-1.117.253-.432-.276-.858.452-1.274zm13.399-8.801c-.59-.632-1.181-1.196-1.363-1.814.964-1.359 2.3-1.686 3.61-.282-.707.79-1.554.727-2.247 2.096zm-42.259 39.17c-.486.324.886.669.365 1.025-.357.462-.764-.327-1.113-.067-.688-.527.413-1.035-.41-1.566.513-.153.988-.207 1.52-.833.821.599 1.725.795 2.565.92-.262.635-1.444.633-1.825 1.703.443-.933-.402-.924-1.102-1.181zm86.791-82.442c.027.17.087.374.281.583-.459.493-.796.483-1.147-.034.25-.364.561-.524.866-.549zm-32.31 31.788c1.439-1.342 1.89 1.323 3.311 1.44.213 1.706-2.735 1.5-2.581 2.933-.838.65-1.65.553-2.428-.493.257-.568.468-.764 1.053-.982.272-.975.983-1.901.644-2.898zm17.965-16.495c.32.555.505 1.105.656 1.62-.205.06-.411.12-.587.285a22.704 22.704 0 0 0-.657-1.62c.18-.299.377-.088.588-.285zm-12.316 12.118c.95.033 1.84.778 1.67 1.79-1.033 1.357-2.08 1.218-3.075 1.49-.664-1.416.143-2.17 1.405-3.28zm4.715-3.618c.398-.7.27-.908 1.054-.982-.054.575 1.066.58.972 1.324-.692.384-1.368.292-2.026-.342zm20.514-18.734c.38.62-.72 1.127-.07 1.755-.689.317-1.496.225-1.73-.66.774-.788.89-1.156 1.8-1.095zm-65.682 64.78c-.078 2.24-4.373 2.7-4.21-.01 1.017.035 1.326-1.041 2.201-1.792.98.137 1.031 1.599 2.01 1.803zm52.516-51.563c-.349.26-.657-.634-1.013-.171-.157.605 1.188.992 1.013.17zm-67.358 62.412c.397.215.77.192 1.137.304.03-.742.286-.397.913-.851-.198.703-.36 1.374-.657 2.04-.359-.314-.764-.326-1.112-.91-.659.42-.338.834.083 1.286-.694.452-1.201-.374-1.241-1.05.526-.492.548-.187.877-.819zm25.875-22.803c-.466.697.292 1.369-.342 2.026-.529-.426-1.079-.241-1.593-1.074-.007-.782.943-.749.66-1.404.457-.425.878.167 1.275.452zm2.442-4.812c.7-.587 1.416-1.649 2.075-1.082.255-.5-.2-1.06.768-1.57.828.607.196 1.196.788 1.76l-1.79 1.67c-.623-.668-1.61.385-1.841-.778zm-9.837 13.02c-.77.653-1.403-.66-1.452-1.204l.456-.426c.692.601 1.331.794.996 1.63zM664.1 289.496l1.053-.982c.127.207.294.245.432.182.213.58-.114 1.145-.675 1.669-.575.016-.286-.448-.81-.869zm22.643-16.323c.73-.484 2.11-1.115 2.306.08.979-.78 1.912-1.257 2.817-.92.465 1.273.476 2.903-1.168 3.321-.657-.634-2.241-.995-1.625-2.094-.548.117-1.102.437-1.643.35.597.428.311.826.807 1.217-1.772 1.127-4.17 1.722-4.583-1.043.475.016.992-.203 1.489-.797-.384-.693-.868-.438-1.287-1.098.273-1.96 2.244-.057 2.887.984zm33.457-34.204c.42-3.28 2.831-1.328 4.527-.284-1.089 1.015-1.891 1.632-2.694 2.25-.94-.305-1.11-1.262-1.833-1.966zm20.89-16.793c1.072-.61.052-1.282-.059-1.893 1.202-.47 1.693 1.604 2.225 1.823-.905 2.337-3.962 1.875-4.026-.728.932-.479 1.266.443 1.86.798zm-51.105 45.232c1.267-2.231 3.3.795 4.021 1.567-.582.15-1.18.706-1.74.245.31 1.81-2.008 1.084-2.918-.102.382-.225.787-1.127 1.184-.842.35-.26-.42-.592-.547-.868zm27.087-20.15c-.631-.395-1.294.092-1.85-.505-.901.512-1.058 1.118-2.12 1.386-.545-1.92 1.16-3.05 2.643-4.696.536.222 1.078.241 1.59.157.447.83.25 1.605.8 2.405-.658.351-.539.83-1.063 1.254zm18.613-19.535c-.801 1.534-1.954.509-3.08.64-.747-.944.306-1.926 1.26-2.028.592.564 1.195.789 1.82 1.388zm-40.204 34.75c1.207-.535 4.225-.395 3.267 1.745-1.076.675-3.633-.025-3.267-1.745zm8.793-6.651c.52.697 1.079.241 1.593 1.074-1.268.33-2.055 1.457-3.012 1.627-.558-.53.038-1.086-.656-1.62.707-.79 1.373-.427 2.075-1.081zm6.035-6.159c.554-.32 1.087-.03 1.614.464-.757 1.23-1.784 1.466-2.065 2.713-.692-.602-.502-1.172-.752-1.792.484-.255.975.272 1.434-.222.115-.37-.55-.8-.231-1.163zm24.497-18.167c-.587-.7-1.34-.523-1.548-1.379 1.408-.46 1.787 1.353 2.858 1.798-1.341 1.448-2.879 2.684-4.104.808.887-1.09 1.645-.418 2.459-.39.52-.287.054-.575.335-.837zm11.523-10.022c-.219-.446 1.048-.847.491-1.303.39-.427.813-.043 1.137.304-.267.77-1 1.322-1.628.999zm-29.62 33.879c.092-.323.419-.565.842-.704.526.494.474 1.001-.05 1.425-.236.025-.46-.28-.7-.133-.01.418-.18.84-.526 1.208-.46.493-1.355-.115-1.491.865-.353-.59-.725-.637-1.123-.923-.256-1.4.981-1.833 1.536-3.138.788.282 1.312.808 1.513 1.4zm24.822-28.374c-.767.584-.681 1.029-1.346 1.583-.385-.625-.802-.368-1.122-.922.662-.486.445-1.071 1.04-1.56.51-.016.975.272 1.428.899zm-26.518 25.244c-.23-.246-.051-.478-.381-.76.889-.174.641-.861.8-1.535 1.042-.643 2.663.602 2.082 1.669-.826.31-1.622.724-2.501.626zm8.322-5.757c-.426.529-.789.21-1.15.81-1.154-.958-2.796-1.593-1.086-2.926.47.153.973.34 1.415.322.421.592.164 1.16.82 1.794zm-38.65 35.219c-.6-.293-1.571-.7-1.374-1.474.891-.241 1.78-.414 2.646.092-1.16.163-.211 1.181-1.271 1.382zm10.465-12.859c.543.019.183-.367.738-.687.67 1.212 1.534.8 1.727 2.064-1.212.67-2.51-.088-2.465-1.377zm-5.765 6.302c.248.688-.08 1.322.102 1.94-.592.42-1.195.196-1.787-.368.328-.634 1.03-1.289 1.685-1.572zm40.26-32.11c-.95 1.937-2.88 2.752-4.501 2.492-.713-1.96.41-3.008 2.493-4.294.43 1.305.685 1.79 2.009 1.802zm2.544-3.188c-1.4-2.698.788-4.081 1.812-2.28.194.279.36.386.72.773l-1.79 1.67c-.262-.282-.534-.291-.742-.163zm-9.745 10.056c.424-.46.136-.98.932-1.394 1.16.822-.668 1.607-.221 2.438-1.947 1.29-3.33.02-4.743 1.6-.144-1.703 1.27-3.284 2.896-4.144.449.763.825.674 1.136 1.5zm-34.961 34.417c-.623 1.303-.308 2.978-2.037 3.869-2.038-.003-2.992-1.87-2.762-3.595.597-.556 1.16-.163 1.772-1.126 1.008.306 1.981.646 3.027.852zm10.284-9.518c-1.239 1.418-2.73.38-3.44-.731.117-3.324 4.145-1.96 3.44.731zm46.728-47.444c.475-.054 1.777-.488 1.369-1.277.618-.252 1.172.271 1.72.93-.26.566-.316 1.138-.103 1.719-.55.254-.902.581-1.194 1.113-.572-.895-1.914-1.138-1.792-2.485zm-53.292 54.424c-1.315-.283-1.993-1.292-1.78-2.54.242-.094.48-.12.742.16.047-.371-.549-.8-.299-1.164 1.512-.49 2.91.305 4.41.154-1.565 1.066-.964 1.358-1.138 2.44-.664.553-1.291.022-1.935.95zm47.42-47.995c1.634.839 3.232-.192 2.943-1.629-.945-.169-3.75-.572-2.944 1.63zm-35.063 34.945c-.84-.267-1.599-1.856-2.406-1.103.298-1.722 4.337-.698 2.406 1.103zm-44.704 40.453c.243-.162.462.284.691.46-.25.364-.518.288-.726.417-.292-.312.394-.562.035-.877zm8.957-6.956c1.452 1.698-1.667 2.788-2.657 1.374.87.228 1.752-1.57 2.657-1.374zm-7.197 6.711c-.043.235.518 1.4.95.738.246-.23-.685-1.44-.95-.738zm59.862-56.776c.727.569 3.195 1.878 2.761 3.595l-.561.523c-1.224-.96-2.56-1.617-2.701-3.388.246-.23.662-.486.501-.73zm31.084-24.168c-.589.355-1.161.304-1.688-.05.767-.585.867-1.393 1.545-2.284.283.515.745.799.764 1.17-.65.218-.53.56-.621 1.164zm-.047-2.457l-.105.099c-.224-.311-.265-.988-.575-.828l.68.73zm-59.568 76.957c.647-1.325 1.905-1.485 2.09-2.995.64 1.109 1.145 2.213 1.381 3.24-1.135 1.387-2.15.299-3.242.464-.023-.138-.046-.277-.176-.456.008.05.015.1.02.149-.636.725-1.252.84-1.871.104-.417.257-.054.576-.607.828-.968-.475-2.596-1.517-2.66-2.572 1.572-2.889 4.514-.936 5.065 1.238zm22.092-43.48c-.8.55.521 1.614 1.027.749-.26-.349-.505-.12-.742-.162.108-.166.316-.294.153-.47-.14.131-.274.058-.438-.117zm19.366-13.721c-.478.051-.964-.611-1.474-.595-.538-1.14 1.908-2.107 1.028-3.19.892-.241.908 1.254 1.85.506.068.987-1.256 1.96-1.404 3.279zm-7.866 6.709c-.74-.23-1.12-.99-1.539-1.65.614-1.031 1.723-1.672 2.953-1.9.552.732.596 1.413.4 2.187-.798.482-1.339.395-1.814 1.363zm-54.78 51.596c-.138-.78.702-1.499.429-2.284 1.658-.896 2.09.13 2.975 1.642-.659.42-1.331.332-1.944 1.294-.502-.117-.97-.266-1.46-.652zm18.405-19.96c.842-.785 2.587.804 2.551 1.822-.262.704-1.009.678-1.64 1.267l-1.277-1.369c.426-.529.244-1.146.366-1.72zm7.178-2.556c-.77-.332-2.16-.415-2.42-1.68a8.757 8.757 0 0 1 2.531-1.508c.952.95 1.338.59 1.399 1.78-.857.208-.742.824-1.51 1.408zm24.366-25.24c.388.556-.478 1.036.385 1.61-.784 1.058-1.549.59-2.306-.081.042-1.222.896-1.362 1.92-1.53zm17.313-16.002c.063-.847-.82.107-1.266-.724.667-.622 1.268-.33 1.898.134l-.632.59zm6.705-6.516c-.421.393-.816.04-1.144-.312l.597-.556c.433.253.702.33.547.868zm-52.497 51.01c.81-.82-1.131-1.635-1.69-1.179.509.969 1.143.312 1.69 1.18zm49.608-48.37c-.147-.65.863-.411 1.193-1.113-.93-1.56-2.279 1.075-1.193 1.113zm-27.81 25.845c.34.012.667.363.959.747-.63.521-1.203.4-1.415-.321l.456-.426zm-22.036 20.549c.683-.112 1.381-1.616 2.022-.507-.218.4-.805.685-1.203 1.385-.51.016-.187-.482-.819-.878zm-25.198 26.334c-.624.387-.413 1.035-1.018.95-.316-.55-.06-1.05.467-1.54l.55.59zm85.177-76.065c-1.336.467-.953 1.02-1.674 2.146-2.262-.033-2.673-2.444-.585-3.935 1.04.2 1.52.855 2.26 1.79zm-14.47 15.013c-1.661-1.077-.758-2.642-1.73-3.966 1.025-1.153 2.007-.1 3.034-.336.217.585.273.927.842 1.184-.351.328-.227.672-.747.96.012-.34-.194-.28-.393-.422-1.116.844-.74 1.74-1.007 2.58zm-9.742 8.285c-.384 2.262-4.122 1.35-3.91-.816.802-.617 1.576-.42 2.381-1.105.47.152.533 1.275 1.53 1.92zm6.164-4.755c-1.074.608-1.872 1.09-2.387 2.227.486.662.933.508 1.417 1.238-1.408.46-.252 3.32-2.617 2.965-.46-.424-.21-.789-.841-1.184.395-.632.962-1.291 1.423-1.852.283-.33-.044-.681-.44-1.035 1.543-1.372-1.088-2.856.622-4.19.725.637 1.56.055 2.342.049-.021.61.264 1.198.481 1.782zm9.774-10.888c-.622-.667-1.612-.532-1.408-1.51.56-.456.967-.441 1.194-1.113.849.98 1.755-.652 2.557.7-.611.964-1.536 1.17-2.343 1.923zm-46.926 43.697c.833.47.76-.381 1.629-.928.476.933-.504 1.782-.537 2.732-.758.313-1.535.184-2.361.495-2.964-.715-.522-4.501 1.463-3.006-.042.237-.355.463-.194.707zm4.687-2.623c-.617-.803-1.165-.686-1.408-1.51.567-.66.658-1.335 1.26-2.028 1.076.31 1.887 1.39 1.92 2.41-.577.932-1.166.3-1.772 1.128zm20.243-18.18c-1.527-.02-3.004 1.423-4.051-.686 1.312-.633 1.324-.972 2.282-2.128.96.68 1.772 1.76 1.77 2.813zm1.592-4.505l-.426-.456c-.018-.442.606-.828 1.063-1.254.556.597-.312 1.144-.637 1.71zm-50.6 48.17c3.313 2.496-2.255 4.83-2.516 1.243.832-.516 1.65-.695 2.517-1.243zm-6.946 7.05c.348-.26.46-.494.165-.739.548-.186 1.69.827.69 1.304-.282-.515-.601-.153-.855-.566zm60.32-52.842c.442.966-1.024 1.153-1.834 1.974-1.408-.525-.156-2.349.843-2.756.021-.61-.261-1.265-.951-1.935 1.567-.149 2.57 1.279 3.955 2.482l-.457.425c-.529.56-1.013-.17-1.555-.19zm16.293-15.798c-.529-.426-.514-.833-.807-1.217.384-.292.76-.381 1.173-.503-.232.807.17-.028.687.738-.014.407-.646.996-1.053.982zm-35.152 35.148c-.81-.164-2.25-.724-2.57-1.279.795-.413 1.644-.418 2.496-1.475.442.967.647 1.89.074 2.754zm43.37-42.96c-.53-.358-.367-.182-.687-.737l.632-.59c.493.46.512.902.055 1.327zm-13.548 12.634c-.349.26-.676-.091-1.004-.442l.492-.458c.362.318-.02.542.512.9zm-36.241 35.469l-.982-1.054c.426-.528.793-.345 1.172-.502.323.487.372 1.032-.19 1.556zm-21.81 22.951c-.61.894-1.192-.575-1.381-.919.453-.358.858-.346 1.277.173-.646.082-.46.493.105.746zm64.395-57.776c-.791.278-1.488-.188-2.17-1.06.648-1.065 1.392-1.956 2.15-2.269.93.576.243 1.809 1.258 1.912-.115.37-1.34.462-1.238 1.417zm-16.9 15.95c-.211.196-.249.296-.185.434-.735.62-1.453.765-2.242.975-1.445-1.409.298-2.707.788-4.082.512.9 1.024 1.802 1.639 2.672zm21.322-22.881c.654.702 1.359-.02 2.056-.54.55.8 1.12.99 1.743.673.224.381-.976.713-.04 1.153-.485.255-.897.376-1.358.937-.968-.475-1.96-.272-2.853-.948-.155-.447-.005-.85.452-1.275zm6.948-4.547c-.192-.276-.354-.45-.562-.32-.073-.712.994-2.032 1.847-2.243l.81.869c-.473.83-1.234 1.28-2.095 1.694zm-25.688 22.168c.74-.755 1.514-1.543 2.26-1.517.72.772 1.423 1.102 2.14 1.942-1.022 1.085-1.918.477-2.817.92-.521-.629-1.047-1.123-1.583-1.345zm-45.488 48.36c-1.136-1.147-.904-1.04-2.214-2.091.316-1.14.654-1.974 1.977-2.104.189 1.188 1.428 1.461 1.887 2.657-.672.757-1.345.67-1.65 1.539zm68.797-69.655l1.193-1.113c-.012.339.154.446.402.15.019.442-1.217 1.79-1.595.963zm-51.404 51.713c-.793-.639-2.042-.852-2.376-1.985l1.474-1.375c.777.13 2.36 1.475 2.226 2.387-.657.351-.842.786-1.324.973zm-24.672 22.51c-.073-.712 1.442-1.41.559-2.145.327-.565.637.12 1.031-.443.305.82.365 1.024 1.218 1.658-.748.957-.66 1.264-1.836 1.972l-.972-1.042zm10.153-11.924c.552-.253.215.652.818.877-.21.197-.421.393-.293.601-.376.089-.64-.124-1-.51-.16-.311.734-.62.475-.968zm-14.599 18.29c-1.153-.743-.213-1.424-.926-2.189 1.05-.07.572.896 1.523 1.633l-.597.557zm-1.742.54c-.42-.451-.234-.885-.386-1.329.24-.094.443-.088.702.19-.656.352.646.762-.316 1.14zm79.35-71.382c-.992-.782-1.632 1.98-2.764.345.415-1.174 2.726-1.23 3.957-1.458-.167.877-1.116-.141-1.194 1.113zm-61.22 55.56c.792-.277-.345-1.777-.84-1.183.083.512.661.498.84 1.184zm40.286-37.569c.23-.739.152-1.455 1.128-2.168.407.014.828.606 1.254 1.063-.094.744-1.072.54-.487 1.307-.625.386-1.264.194-1.895-.202zm6.432-6.735c1.03-.304.672-.758 1.379-1.548.353.59.76.604 1.09.887-.356.463-.312 1.144-1.052 1.899-.744-.094-1.448-.356-1.417-1.238zm25.743-22.162c-.213-.58 1.531-1.103.913-1.696-1.085-.741-1.685 1.571-.913 1.696zM698.08 296.61c.02-.61.786-1.127.365-1.719.248-.297.447-.154.763-.449.276.859.145.719.982 1.053-.061.78-1.337 2.297-2.11 1.115zm42.568-37.3c1.244.349.877-.819 1.464-1.104 2.304 1.133.792 3.594-1.114 2.746-.388-.557-.166-1.093-.35-1.642zm6.898-5.959c.245-.23.288-.465.161-.742.857-.207 1.167 1.603 2.01 1.803-.249.297-.516.152-.764.448-.165-1.092-.62-.734-1.407-1.509zm-1.244 1.403l.632-.589c.15.583 1.146 1.229.21 1.773-.36-.386-.889-.812-.842-1.184zm8.995-7.129c.612.939 1.56 1.04 1.363 1.814-1.182.774-2.288.362-3.474-.699.695-.45 1.392.015 2.11-1.115zm-20.93 18.696c.326-.566 1.355-.87 1.194-1.113.978.204 1.033 1.53 1.985 1.496-.15.402-.3.804-.583 1.134-.418-.66-.76-.604-1.22-.043-.705-.262-.955-.882-1.376-1.474zm-47.737 46.44c.689.526 1.485.043 1.183-.844 1.088-.17 2.068.67 1.99 1.782-.554.321-1.075-.167-1.65.694-.419-.52-1.253-.78-1.523-1.633zm9.832-8.54l-.688-.738c.454-.357.974-.645 1.425.05-.323.498-.147.335-.737.688zm3.563-2.213c-.348.26-.288.465-.465.697.432.253.908-.716 1.392-.97-.347 2.161-1.947 1.29-3.418.628.451-.29.898-.445 1.357-.938.355.522.786-.142 1.134.583zm-18.875 17.798c.041-1.012 2.128-.815 1.65-1.539.85-.143 1.663 1.502.926 2.19-.624-.458-.435-.96-1.09-1.452-.69.318-.133.773-.619 1.097-.278-.65-.624.387-.867-.296zm71.994-65.71c-.992.203-1.07 1.457-1.129 2.168.878.167 2.46-1.374 1.129-2.168zm-17.974 16.531c.486-.322 1.385.218 1.438.628l-.456.425c-.554-.664-.767-.4-.982-1.053zm-41.787 43.604c-1.055-.64.22-1.244-.094-1.86.767-.586 1.28.105 1.288.747-.95.107-.616 1.028-1.194 1.113zm43.26-36.13c-1.803 1.093-3.036.404-3.442-1.58.906-.647 1.745-.38 2.623-.214.624.6-.008 1.189.82 1.795zm5.453-5.824c-2.243-4.8-3.648 2.352 0 0zm4.143-4.202c.782-.992 2.02-1.424 1.552-2.63-1.497-.9-3.198 1.146-1.552 2.63zm13.308-12.356c-.725.348-1.972.067-2.144-.822.533-.695 1.822.335 1.595-.964.695-.45 1.465-.118 1.743.673-.3.804-1.776.277-1.194 1.113zm5.037-7.21c.676.092.452.696 1.158.89-.045.304-.225.604-.641.861-.529-.426-.716-.908-.973-1.325l.456-.425zm-11.468 10.557c.526.494.881 1.016 1.1 1.533-.416.257-.76.381-1.171.503-.12-.48.304-.94-.561-1.446l.632-.59zm10.869-4.06c-.372-.047-.796.414-1.189-.007.281-.262.188-.503.501-.73l.688.737zm-29.011 28.797c-.576-.054-1.071-.445-1.289-1.03.515-.152 1.034-.439 1.479-.525.564.393-.124.64.407.999-.155.538-.89.172-.597.556zm17.814-16.829c-.419.325-.772-.264-1.132-.65l.456-.426c.328.351.145.718.676 1.076zm-13.894 10.955c.281-.262.515-.152.763-.45.332.216.64 1.11 1.001.511.26.349-.056.644-.443 1.004-.465-.288-1.34-.523-1.32-1.065zm3.98-.226c-.536-.222.175-1.148-.548-.868-.09-.309.09-.608.302-.872.185.55 1.113 1.193.245 1.74zm1.314-.653c.707-.79 1.412 1.021 2.165-.071.349.584.9.33.843.903-1.04.645-2.125 1.592-3.043.045.383-.293.362-.597.035-.877zm19.823-17.375c.243-.162.58-.152.856-.279.526.354.378.687.702 1.035-.354.394-.705.722-1.042.712-.516-.624.386-1.205-.516-1.468zm-12.132 13.249c-.367-.112-.778.01-1.158-.609.583-.219 1.201-.47 1.738-.387-.148.333.008.642-.58.996zm.795-1.28c.132.071.259.278.4.147-.193-.276-.379.157-.614.117.07-.066.04-.168.214-.264zm-15.484 17.763c.225-.533 1.159-.236.878-.818.375-.09.759.462 1.126.574-.505-.049-1.029.375-1.628.999.01-.27-.149-.511-.376-.755zm7.269-5.128l-.584-.625c.451-.29.867-.548 1.215.036l-.631.59zm25.967-18.344c-.77.653-1.987-1.005-1.86-1.643.214-.263.443-.088.619-.251.618.592 1.098 1.248 1.241 1.894zm-6.462 5.169c-.291.532-.58.152-.867.548-.162-.173.114-1.145.608-.826l.26.278zm-15.248 18.909c.577-.084 1.044.91 1.579.216-.4-.147-1.582-.993-1.58-.216zm.076 2.215l.55.59c-.455.426-.874.751-1.287.097l.737-.687zm-4.471 6.105c-.58.151-.675-.865-.224-1.156.394.282.518.556.54.86-.205.062-.443.09-.316.296zm30.997-25.294c1.131.439 2.894 1.133 3.618-.062-1.15-.81-3.278-1.685-3.618.062zm16.378-11.37c-1.069.542-1.406-.312-2.26-.946.492-.458.141-.975.903-1.425.745.799 1.795 1.573 1.357 2.37zm-26.829 23.05c-.246-.615-.051-1.25.513-1.842 1.077.944 2.284.338 2.962 1.98-1.196.336-2.29-1.048-3.475-.137zm-11.087 13.132c-.756-.53-1.082-.809-1.684-1.806.702-.655 1.36-.23 2.046-.48.31.685.972 1.042 1.253 1.625-.483.255-1.65-.15-1.615.661zm-4.572 4.835l-.55-.59c.115-.368 1.085-.948 1.592-.122-.35.327-.648.15-1.042.712zm-99.544-96.233c.624.458.2.918.656 1.337-.319.362-.564-.253-.843-.058-.162-.174.254-.432.468-.696-.235-.04-.905-.196-.281-.583zm8.529 11.617c.64.124 1.26-.126 1.935-.951.224.381-.466.697-.207 1.046.681-.045.372.047 1.004.442.852-1.057 1.835-1.973 3.002-1.355.285.587-.04 1.153-.401 1.752-.44-.05-.947-.101-1.425-.05-.196.774-.494 1.51-1.54 2.29-.919-.916.876-1.736.092-2.646-.71-.06-.69.315-1.184.841-.727-.568-1.183-.143-1.565.082-.73-.501-.678-1.01-1.136-1.5.381-.225.835-.583 1.315-.702.23.246.22.517.11.751zm-8.824 22.788c.227.313.435.185.306-.024-.217-.585.405.082.295.316 1.088-.03 1.089-2 1.671-2.149.657.634.74 1.215.788 1.76-1.067.404-1.233 1.281-2.197.67-.25.365.077.716-.206 1.046-.457.425-.927.273-1.416-.321.185-.435.303-.873.759-1.298zm33.915-13.423c1.041.342-.318 1.348.503 1.173-.447.154-.772.72-1.346 1.583-.7-.398.232-.807.075-1.186-.53-.359-.22.467-.632.589.101-.948.565-1.577 1.4-2.159zm19.909-4.76c-.658.35-.4.767-.922 1.122-.372-.047-.732-.433-1.144-.312.014-.407 1.708-.28 1.063-1.253.35-.327.678.024 1.003.443zm-33.786 64.95c-1.44 1.342-1.866-.663-3.184-.669-1.323.974-2.303 1.823-3.783 1.644-1.924-1.712-.288-2.913.573-4.171.392.35.48.656.4.991 1.166.407 1.633-.289 2.632.079-.01.27-.289.464-.783.99.462.284.948-.04 1.453.009.013-.337.535-.693.01-1.114 1.356-.095 2.687-1.272 3.956-.052-.472.83-1.083 1.724-1.847 1.398-.33.632.222.378.573.895zm11.547-12.87c-.824 1.227-1.298-.76-1.778-.64-.288-.52.342-1.041.225-1.589.2.143.456 1.545 1.553 2.228zm45.415-42.454c.384-.292 1.497-.084 1.488-.797.78.061 1.883.541 2.072 1.94-.662.486-.852 1.057-1.346 1.583-1.495.016-2.776-1.217-2.214-2.726zm-44.452 46.945c.816.945-.894 4.18-2.938 4.38-.594-.496-1.207-1.435-1.832-1.049-.151-.515.036-1.018-.254-1.47.983-.916 2.05-1.32 2.432-2.53.741.162 2.242 1.913 2.592.669zm-19.955 17.575c-1.159 1.08.788 1.409.644 2.451.403-.765.268-1.613-.644-2.45zm68.4-31.456c-.2-.233-.28-.45-.297-.686.35-.136.396.219.562.494.117-.068.234-.093.346-.007-.016.475.068.987.526 1.479.368-.802-.65-.838-1.249-1.199.037-.024.075-.052.112-.08zm-4.587-24.248c.019-.543-.03-1.088-.081-1.566 1.212-1.655 2.316-.19 3.49-.76-.613 1.03-2.714.89-3.409 2.326zm-50.372 52.376c-.053-.41-.24-.892.181-1.284.232.177.089.376.285.587.201.075.37.115.543.019.19.414-.723.28-1.009.678zm18.436 1.674c.81-.82 1.618-1.574 2.382-1.106-.145 1.252 1.427.967 1.658 2.13-.741-.162-.969.51-.618 1.167-.966.442-1.963.78-2.967 1.323-.842-1.184-1.843-.71-2.245-1.845-.344.124-1.34.463-1.816 1.431-.608-.089-1.21-.382-1.883-.54-.428.595-.349 1.243-1.17 1.419-.814-.029.026-.747-.535-1.208-1.163-.754-1.512.49-2.667.518-.672.758.691 1.587-.352 2.298.453.627.268 1.062 1.005 1.36-.828.378-.506.864-.555 1.304-.835.582-2.353-.693-2.079-1.736-.964-.611-1.182 1.758-2.11 1.114-.258.569.638.193.448.763-1.027.236-2.061.676-3.088.911-1.13-.718-.528-1.41-1.422-2.087.976-.713 2.053-2.374 2.998-2.205.788.775-.498.662-.452 1.275l.688.737c.844-.853.735-1.604 1.93-1.8.954.882 1.277 1.369 2.475 1.105.393-.564-.15-.583-.58-.903a.696.696 0 0 0 .737-.688c-.535-1.207-.157-3.266-1.989-4.314 1.98-1.256 4.15-2.097 5.65.638.536-.762.765-1.501 1.809-2.212-1.71-1.622-2.122-4.387.76-5.237.86.641 2.121 1.5 2.602.396-.34.973.506 2.022.029 3.058-.384.292-.768.584-1.173.502-.253.433.377.896-.452 1.275.63.463.309.894.97 1.392.653-.215 1.4-1.173 2.012-.235zm1.296-6.224c.063.138-.045.304.086.444.27.078.515-.152.742.162-.031.882-.904.58-1.315.701-.564.592.666.363-.031.882-.292-.384-.271-.994-.86-.641.184-.435.774-.788 1.378-1.548zm40.858-34.037c.94-.68 1.785-.549 2.11-1.115.763.536.512 1.886 1.834 1.966-.482.187-.91-.201-1.352-.183.285.587-.358.53-.267.84-.585.217-1.076-.31-1.624-.193.185-.435-.172-.889-.7-1.315zm5.754 1.425c-.56-.53-.203-.992.05-1.425-.188.503.753-.177 1.003.443-.075.2-.15.402-.054.575-.319.363-.618.182-1 .407zm-.378-1.307c.105-.099-.06-.206.044-.305.131.14.061.206-.044.305zm-10.948 16.038c1.239 1.47.254 1.469 1.201 2.555-.564.591-1.196 1.18-1.804 1.091-.354.396-.335.838.158 1.296-1.845-.641-1.016-3.975.445-4.942zm38.453-17.032c.653-.285-.38-.62.305-.87.127.207.294.246.432.182-.165.739.524 1.266.235 1.73-.249-.548-.443-.756-.972-1.042zm-28.126 29.845c.91.061-.527.491.42.452.039.744-1.082.035-1.484.8-.516-.623-1.507-.348-1.569-1.33l.632-.589c.224.31.432.182.688.527.352-.327-.448-.621-.537-.928.624-.387 1.31-.637 1.885-.653.348.584.664 1.134-.035 1.721zm-76.126-78.27c1.876 1.238.556 3.833-1.11 3.243-.667-1.067-.432-2.715 1.11-3.243zm7.341 1.207c-.996.41-1.277 1.516-2.387 1.382-.429-.25-.828-1.24-1.241-1.05-.516-.623 1.001-.545.221-1.31.573.05 1.202.373 1.885-.654.729.36 1.555.823 1.522 1.632zm-31.438 40.738c-1.55.591-2.638 1.606-4.342-.151.162-1.727 1.36-1.99 2.834-2.38 1.012 1.155 1.033 1.53 1.508 2.531zm77-53.048c-.554.322-.195.636-.748.958-.713-.764-1.399-.515-1.464.26-2.084-1.953 1.002-3.077 2.212-1.218zm-65.8 58.15c.456-1.41 1.462-1.036 1.984-2.376.842.199 1.698.976 2.573 1.21.01.714.088 1.362.268 2.047-1.677.383-3.223-.078-4.825-.881zm10.741-5.728c-.755.245-1.048-.139-1.455.832a6.85 6.85 0 0 1-1.724-1.215c.965-2.344 3.452-1.578 3.18.383zm8.297 21.36c.771.265 1.595-.962 2.33.388-1.492 1.85-1.462 2.937-3.757 3.503-.718-.84-2.257-1.506-2.083-2.586 1.708-1.265 1.234-3.252 3.51-1.304zm58.538-47.303c.248-.297-.386-.624-.24-.891.493-.526 1.01.24 1.619-.657.739.23 1.16 1.807 1.854 1.356-.407.97-1.322 1.89-1.866 2.855-1.066-.58-1.908-1.765-2.39-2.562.361-.6.67.295 1.023-.1zm7.63-4.775c-.028.675-.365.665-.889 1.089-.726-.427-.748.113-1.604-.453.64-.792 1.704-.355 1.51-1.408.902-.581.13.984.982.772zm-57.688 82.861c-1.412-.177-4.012-2.754-4.247-.261.783-.146 1.544-.596 2.211.47-.643.86-1.212.742-1.79.826-1.131-2.128-3.364-.37-4.94-3.187l.596-.556c.365.18.764.326 1.158.608.052-.437-.234-.885-.118-1.253.86.43 1.342-.602 1.944-1.293.958 1.38 2.163-.004 3.137 1.815.486-.323.4-.697.281-1.106 1.237.34 1.985-.617 2.646-1.104.419.52.332.99.516 1.468-1.05.07-.284 1.174-.036 1.722-1.126.27-.823 1.158-1.358 1.851zm12.832 5.544c.375-.02.759-.313.469-.765.785.843 3.337 1.68 3.51 3.553-1.226.093-1.238.432-1.615 1.506-1.095-.752-1.361-.897-2.304-2.118.394-.564.791-.278 1.217-.807.162-.741-.954-.882-1.277-1.369zm66.828-60.929c.543-.051.21-.196.632-.589.675.02 1.39.717 2.176-.34.116.476.435.958.516 1.467-.664.555-1.261.267-1.942 1.226-.853-.633-1.08-.876-1.382-1.764zm-60.233 63.622c.358-.531.014-.407-.414-.796.592-.42 1.083.106 1.598-.046-.059.711-1.374 1.412-1.908 2.107-.598-.36-.212-.72-.439-1.034.391-.496.78.061 1.163-.231z" fill="#E1E6EB"/><path fill="#898BF5" d="M478 355h250v240H478z"/><path d="M721.143 552.677c.076-.585.904-.426 1.488-.509-.075.584-.902.426-1.488.51zm25.87-.201c.076-.584.904-.426 1.489-.51-.075.585-.903.428-1.488.51zm-19.398.648c1.221-1.95.737 1.643 0 0zm-29.848.73c.119-.628.986-.51.996-.008-.215.725-.438-.049-.996.008zm43.292.66c-.417.74-1.244 1.078-2.48 1.013.417-.741 1.244-1.08 2.48-1.014zm-44.769 1.341c-.138 2.456-2.248.379 0 0zm4.482.463c.148-.677 1.242-.423 1.985-.513-.147.677-1.242.422-1.985.513zm24.397 2.298c-.17.655-.869.79-.983 1.5-1.241-.192-.044-1.928.983-1.5zm-32.831.753c.402.26.811.513 1.495.486-.599 1.055-1.908 1.41-2.968 2.013l-.013-1.493c1 .162 1.557-.114 1.486-1.006zm27.864.28c.118-.626.986-.508.995-.007-.214.725-.437-.048-.995.007zm-58.206.95c.149-.676 1.242-.421 1.986-.512-.148.676-1.242.422-1.986.512zm52.737-.41c.34-1.77-.713 3.717 0 0zm-70.146 1.042l.995-.007.008.995-.996.008-.007-.996zm33.337.24c.713-1.654 1.253 1.93 0 0zm44.28-.344c1.723 1.272-2.55 1.222 0 0zm-26.859 1.204c1.723 1.273-2.55 1.223 0 0zm19.909.84c1.222-1.95.737 1.643 0 0zm4.474-.533c.445.384 1.128.527 1.993.483.166.876-2.78.91-1.993-.483zm-30.842.739c.583.073.425.903.509 1.488-.498.003-.996.008-1.493.01-.282-1.1.944-.715.984-1.498zm16.923.862c2.172-1.842 1.9 1.361 0 0zm31.351.753c.27-1.999-.397 2.945 0 0zm-49.752.386c-.427 2.376-2.01 3.614-4.446 4.015 2.581-1.268 1.7-2.91 4.446-4.015zm32.339-.251c.483 2.329-2.312.898 0 0zm-5.951 2.534c1.223-1.95.737 1.642 0 0zm-35.308 2.264c1.24.192.045 1.93-.983 1.5.17-.655.869-.79.983-1.5zm3.983.467c1.224-1.951.74 1.643 0 0zm-46.762.86c.12-.626.986-.51.995-.008-.214.726-.437-.047-.995.009zm25.377.3c.071-.136 1.064-.928 1.49-.508.345.34-1.953 1.386-1.49.509zm20.9.336c-.323.67-1.056.935-1.983 1.01.444-.87 1.099-1.924 1.983-1.01zm46.767-.363c1.659-1.216-1.19 1.678 0 0zm-17.41.633c1.84-1.752 2.536 1.336 0 0zm21.394-.167l.994-.007c.241 1.06-.703.952-1.484 1.007.092-.405.495-.501.49-1zm-28.837 2.712c.076-.583.903-.426 1.488-.51-.075.585-.904.427-1.488.51zm-22.388.174c.717.107.185 1.483 1.006 1.485-.55 1.602-1.424-.469-1.006-1.485zm-64.658 2.99c1.494-1.852 1.687 1.498 0 0zm112.443-.376c.118-.626.985-.51.995-.008-.215.726-.438-.047-.995.008zm-68.157 1.027c1.66-1.215-1.189 1.678 0 0zm37.82.7c.075-.582.903-.426 1.488-.508-.075.585-.903.426-1.488.508zm7.466.44c2.173-1.842 1.901 1.362 0 0zm-10.942.584c.076-.585.904-.426 1.488-.51-.075.583-.903.426-1.488.51zm-22.87 2.167c-1.572-1.628 1.2-3.103 0 0zm31.329-2.233c1.644.728-.835 1.411-.98 1.998-1.801-.884.679-1.566.98-1.998zm-91.031 2.697c-1.723-1.272 2.55-1.223 0 0zm80.097-1.12c.075-.584.903-.426 1.488-.51-.076.585-.903.428-1.488.51zm-17.41.633c.27-1.998-.397 2.946 0 0zM596 583.502c.358-.89.904-.08 1.493-.012-.357.888-.904.08-1.493.012zm101.992-.792c1.659-1.215-1.19 1.677 0 0zm-88.56.688c.004 2.041-2.686 3.289-4.461 2.025.402-1.745 2.272-2.043 4.462-2.025zm113.94.11c.713-1.654 1.254 1.93 0 0zm-63.177 1.486c1.224-1.95.738 1.643 0 0zm39.305-.305c.075-.584.903-.427 1.488-.51-.075.584-.903.426-1.488.51zm14.43.385c-2.328.483-.897-2.312 0 0zm-54.73-.072c-.26.401-.513.81-.486 1.496-.963.205-.744-2.26.487-1.496zm36.32-.282c.889.357.079.903.011 1.492-.888-.357-.079-.904-.012-1.492zm-1.987.512c.718.107.186 1.484 1.006 1.484-.549 1.603-1.423-.468-1.006-1.484zm3.988.964c.691-2.19 2.067 2.323.012 1.492-.111-.85.838-1.295-.012-1.492zm24.378-.189c1.223-1.95.738 1.643 0 0zm-39.296 1.3c.27-1.999-.397 2.946 0 0zm35.328.223c.27-1.998-.398 2.946 0 0zm-99.998 1.275c.27-1.999-.398 2.946 0 0zm-13.425 1.098c1.66-1.214-1.19 1.679 0 0zm-16.911.63c.075-.584.903-.427 1.488-.51-.075.584-.903.428-1.488.51zm19.896-.652c-.212.613-.628 1.026-1.485 1.006.213-.614.63-1.027 1.485-1.006zm8.462.432c-.146-.79 2.682-.719 1.497.486.189-.193-1.504-.521-1.497-.486zm68.67.959c.711-1.655 1.253 1.93 0 0zm31.347.254c1.24.192.044 1.928-.984 1.5.17-.655.87-.79.984-1.5zm-65.171 1.003l.995-.007.007.996-.995.008-.007-.997zm25.377.3c.03-.035-.038-.49-.004-.498 2.387-.439-2.337 3.217.004.499zm-2.981.522c.076-.583.903-.428 1.488-.51-.075.584-.903.427-1.488.51zm16.418-.128c.118-.627.985-.509.996-.007-.216.724-.439-.048-.996.007zm22.388-.173c.167-.602 1.32-.413 1.492-.011.46 1.071-1.813 1.166-1.492.011zm-18.397 1.635c-1.16 1.609-2.024-1.734 0 0zm16.423.37c.118-.627.985-.51.994-.008-.214.725-.436-.048-.994.007zm-35.32.772l.994-.008.007.995c-.33.004-.662.006-.994.008l-.007-.995zm37.317.207c.48-2.108 1.358 1.747 1.493-.012.422-.094.47.191.501.495l.007.994c-.89.071-1.053-.6-1.993-.48.302-.447.595-.897-.008-.997zm-31.838.746c1.223-1.95.738 1.642 0 0zm7.958-.56c.33-.004.663-.006.995-.008l.007.995c-.331.003-.664.005-.995.009l-.007-.997zm-5.458 2.032c.076-.584.904-.426 1.488-.51-.075.585-.903.427-1.488.51zm27.862-.216c.118-.627.985-.51.994-.008-.214.726-.436-.047-.994.008zm-40.793.814c.071-.136 1.063-.929 1.488-.51.347.343-1.952 1.388-1.488.51zm34.822-.768c-.213.614-.628 1.027-1.485 1.006.213-.613.628-1.026 1.485-1.006zm-24.363 2.18c.075-.584.904-.426 1.489-.509-.076.583-.904.426-1.49.509zm10.448-.081c1.66-1.215-1.19 1.677 0 0zm-6.449 2.538c.358-.89.904-.08 1.493-.012-.358.888-.904.08-1.493.012zm-4.97.536c1.222-1.95.737 1.643 0 0zm.015 1.99c1.223-1.95.738 1.642 0 0zm-1.99.016c1.036.27 1.06.768.509 1.488l-.996.008c.261-.402.513-.812.487-1.496zm6.479 1.441c.075-.583.904-.425 1.49-.509-.077.584-.904.428-1.49.51zm-8.947 1.065c1.659-1.215-1.19 1.679 0 0zm-23.369 2.171c.12-.626.986-.51.996-.008-.215.726-.438-.047-.996.008zm22.882-.675c-.29 2.042-1.359 1.007-2.977 1.02.496-.829 2.11-.558 2.977-1.02zm18.921 1.844c1.66-1.216-1.19 1.678 0 0zm-21.39.663l.997-.008c.001.332.004.664.007.996l-.996.008-.007-.996zm-65.146 3.988c.712-1.653 1.251 1.933 0 0zm58.224 1.539c-2.963.363-1.351-2.285 0 0zm.494-.503c.072-.135 1.063-.926 1.489-.508.346.343-1.953 1.388-1.49.508zm.52 2.983c.878-.166.91 2.78-.482 1.995.383-.446.527-1.128.483-1.995zm-6.459 1.045c.402.26.811.514 1.496.487-.091.403-.496.5-.49.998l-.995.009-.011-1.494zm1.542 6.457c.076-.584.905-.427 1.49-.51-.077.584-.905.427-1.49.51zm-40.788 1.312c2.283.314-.376 3.014 0 0zm39.805.188c.03-.036-.038-.49-.003-.497 2.385-.441-2.338 3.215.003.497zm-40.77 3.799c-1.032-1.291-3.822 1.542-2.468 2.507.494-.666.809-1.508 1.477-2 .125.761.82.065.992-.507zm32.856 2.234c.03-.036-.039-.493-.003-.498 2.385-.442-2.338 3.216.003.498zm-28.35 1.214c.712-1.655 1.252 1.932 0 0zm46.83-120.273c-.048.941-1.641.358-1.481 1.505-1.053-.146.508-1.732 1.481-1.505zm-12.365 9.55c2.343.441.802 1.562.521 2.98-1.02-.689.475-1.717-.521-2.98zm-8.948 1.065c-.36.467-.898.761-1.484 1.005-1.252-.202.82-1.077 1.484-1.005zm3.533 6.44c.304.025.59.07.502.494-.5.002-.589.408-.99.505-.002-.277-.408-.561-.498.003.884.915 1.54-.14 1.981-1.01-.196-.575-2.42-.556-.995.008zm94.039.264c-.838-1.948 1.291 2.643 0 0zm-92.037 1.213c-1.542-.633 1.424-.666.998.49-.42.952-.298-.536-.998-.49zm-36.291 3.765c-1.463-1.121.626-.943 1.488-.51-.04 1.763-1.653-1.044-1.488.51zm129.35-1.502c-.01.483-.606.39-.991.505-.345 1.354 2.344-.374 1.997.98 1.419.867-1.28-.433-2.487.019-.098-1.085.395-1.586 1.482-1.504zm-2.484.517c1.239.064.16 1.683.016 1.989-.89-1.506-1.53 1.37-1.99.016-1.058-.27 1.613-.527 1.974-2.005zm-105.924 6.793c.957-1.175-1.854 2.272 0 0zm100.004-.28c3.405.18-2.107-.639 0 0zm13.426-1.099c-.32.509-1.14.524-.983 1.5-1.242-.192-.045-1.927.983-1.5zm-24.864 1.686c-.92-1.583 2.2 2.569 0 0zm-35.81 1.77c1.52-2.577-.899 1.525 0 0zm-15.917.623c-1.627-.926 2.46 1.397 0 0zm40.318 2.174c1.887-.961-2.62 1.335 0 0zm29.851-.232c-2.64-1.296 1.901.931 0 0zm-140.28 3.576c1.702 1.04.198 1.444.023 2.986-.892.07-1.054-.6-1.995-.481.84-.709 2.512.421 1.972-2.505zm62.2 1.01c2.438-1.436-1.611.95 0 0zm62.195.015c-1.627-.924 2.458 1.399 0 0zm-22.882.675c1.754.836-1.151 1.1-1.482 1.505-1.485-.57 1.627-.632 1.482-1.505zm15.434 1.373c1.03-.565 1.051-.544.502.494-1.032.274-1.07-1.93-.502-.494zm-18.894 1.64c-.995.45.238 2.176.505.99-.302-.025-.59-.07-.5-.493.774.034.333-1.449-.005-.497zm-9.441 1.565c-1.264.267-1.923.864-1.998-.98 1.265-.266 1.923-.863 1.998.98zm-32.809 3.737c1.053.147-.51 1.733-1.481 1.506-.788-1.763 1.687-.314 1.481-1.506zm26.372.293c1.584-.92-2.57 2.2 0 0zm29.385 3.754c-1.229 2.405-3.05.612 0 0zm-34.325.764c-.32.508-1.14.522-.983 1.5-1.241-.194-.045-1.93.983-1.5zm15.446 2.864c-.64-2.715 3.192.064 0 0zm16.43 1.365c.888-.147 1.024.463.502.494-.747 1.857-1.405 1.21-.502-.494zM660.6 573.05c2.437-1.436-1.613.95 0 0zm47.26-.865c-.139 1.016-1.338.986-1.477 2.002-.842-.084.212-2.366 1.477-2.002zm-29.35.726c.467.361.761.899 1.006 1.485-.203 1.252-1.077-.82-1.006-1.485zm30.372 2.75c.759-2.357 2.46-.682 0 0zm-37.307 1.285c1.52-2.58-.898 1.524 0 0zm-71.6 6.029c.926-1.628-1.398 2.458 0 0zm-5.468.54c-2.64-1.296 1.9.93 0 0zm61.711 2.008c.374 1.355-.98 1.009-.98 1.998-.65.25-.236-2.468.98-1.998zm29.855.266c-1.299 1.237-2.894-1.413 0 0zm-78.095 2.596c.926-1.627-1.398 2.46 0 0zm78.13 1.88c1.521-2.579-.899 1.525 0 0zm10.46 1.413c-1.542-.634 1.423-.667.998.489-.42.953-.3-.535-.998-.49zm-51.727 2.39c.073 1.232-.603.851-.497.005.807-1.158 3.34.143.497-.004zm62.7 1.007c1.443.267-.758.782-.488 1.498-1.651-.475.55-.99.487-1.498zm-21.85 5.643c-1.626-.925 2.46 1.398 0 0zm-12.422 2.087c1.653.473-.548.986-.486 1.496-1.443-.268.758-.782.486-1.496zm7.987 3.42c.316-1.492 1.068.468 1.991-.015-.092.402-.496.501-.49.997l-.995.009c-.096-.42.19-.47.493-.501-.017-.483-.612-.381-.999-.49zm13.46 3.378c1.033-.273 1.07 1.933.502.495-1.03.564-1.05.544-.502-.495zm-7.408 7.023c2.436-1.436-1.612.951 0 0zm-55.155 9.385c2.437-1.436-1.612.949 0 0zm26.391 2.78c.89-.154.047 1.93-.983 1.5-.282-1.101.945-.715.983-1.5z" fill="#FFF"/><path fill="#E6E6FD" d="M296 319h248v164H296z"/><path d="M358.56 460.907a1.5 1.5 0 1 1-1.028 2.82 1.5 1.5 0 0 1 1.028-2.82zm15.035 5.472a1.5 1.5 0 1 1-1.028 2.82 1.5 1.5 0 0 1 1.028-2.82zm-7.518-2.736a1.5 1.5 0 1 1-1.027 2.82 1.5 1.5 0 0 1 1.027-2.82zm15.035 5.472a1.5 1.5 0 1 1-1.027 2.82 1.5 1.5 0 0 1 1.027-2.82zm15.035 5.473a1.5 1.5 0 1 1-1.027 2.82 1.5 1.5 0 0 1 1.027-2.82zm-7.517-2.737a1.5 1.5 0 1 1-1.028 2.82 1.5 1.5 0 0 1 1.028-2.82zm15.035 5.473a1.5 1.5 0 1 1-1.027 2.82 1.5 1.5 0 0 1 1.027-2.82zm15.035 5.472a1.5 1.5 0 1 1-1.027 2.82 1.5 1.5 0 0 1 1.027-2.82zm-7.517-2.736a1.5 1.5 0 1 1-1.028 2.82 1.5 1.5 0 0 1 1.028-2.82zm15.035 5.472a1.5 1.5 0 1 1-1.028 2.82 1.5 1.5 0 0 1 1.028-2.82zm15.035 5.473a1.5 1.5 0 1 1-1.028 2.82 1.5 1.5 0 0 1 1.028-2.82zm-7.518-2.737a1.5 1.5 0 1 1-1.027 2.82 1.5 1.5 0 0 1 1.027-2.82zm15.035 5.473a1.5 1.5 0 1 1-1.027 2.82 1.5 1.5 0 0 1 1.027-2.82zm15.035 5.472a1.5 1.5 0 1 1-1.027 2.82 1.5 1.5 0 0 1 1.027-2.82zm-7.517-2.736a1.5 1.5 0 1 1-1.028 2.82 1.5 1.5 0 0 1 1.028-2.82zm-96.706-26.685a1.5 1.5 0 1 1-1.027 2.82 1.5 1.5 0 0 1 1.027-2.82zm15.035 5.473a1.5 1.5 0 1 1-1.027 2.82 1.5 1.5 0 0 1 1.027-2.82zm-7.517-2.736a1.5 1.5 0 1 1-1.028 2.82 1.5 1.5 0 0 1 1.028-2.82zM382.135 478a1.5 1.5 0 1 1-1.027 2.82 1.5 1.5 0 0 1 1.027-2.82zm15.035 5.472a1.5 1.5 0 1 1-1.027 2.82 1.5 1.5 0 0 1 1.027-2.82zm-7.517-2.736a1.5 1.5 0 1 1-1.028 2.82 1.5 1.5 0 0 1 1.028-2.82zm15.035 5.472a1.5 1.5 0 1 1-1.028 2.82 1.5 1.5 0 0 1 1.028-2.82zm15.035 5.473a1.5 1.5 0 1 1-1.028 2.82 1.5 1.5 0 0 1 1.028-2.82zm-7.518-2.736a1.5 1.5 0 1 1-1.027 2.82 1.5 1.5 0 0 1 1.027-2.82zm15.035 5.472a1.5 1.5 0 1 1-1.027 2.82 1.5 1.5 0 0 1 1.027-2.82zm15.035 5.472a1.5 1.5 0 1 1-1.027 2.82 1.5 1.5 0 0 1 1.027-2.82zm-7.517-2.736a1.5 1.5 0 1 1-1.028 2.82 1.5 1.5 0 0 1 1.028-2.82zm15.035 5.472a1.5 1.5 0 1 1-1.028 2.82 1.5 1.5 0 0 1 1.028-2.82zm15.035 5.473a1.5 1.5 0 1 1-1.028 2.82 1.5 1.5 0 0 1 1.028-2.82zm-7.518-2.736a1.5 1.5 0 1 1-1.027 2.82 1.5 1.5 0 0 1 1.027-2.82zm-104.223-29.421a1.5 1.5 0 1 1-1.027 2.82 1.5 1.5 0 0 1 1.027-2.82zm15.036 5.472a1.5 1.5 0 1 1-1.028 2.82 1.5 1.5 0 0 1 1.028-2.82zm-7.518-2.736a1.5 1.5 0 1 1-1.027 2.82 1.5 1.5 0 0 1 1.027-2.82zm15.035 5.472a1.5 1.5 0 1 1-1.027 2.82 1.5 1.5 0 0 1 1.027-2.82zm15.035 5.473a1.5 1.5 0 1 1-1.027 2.82 1.5 1.5 0 0 1 1.027-2.82zm-7.517-2.736a1.5 1.5 0 1 1-1.028 2.82 1.5 1.5 0 0 1 1.028-2.82zm15.035 5.472a1.5 1.5 0 1 1-1.028 2.82 1.5 1.5 0 0 1 1.028-2.82zm15.035 5.472a1.5 1.5 0 1 1-1.028 2.82 1.5 1.5 0 0 1 1.028-2.82zm-7.518-2.736a1.5 1.5 0 1 1-1.027 2.82 1.5 1.5 0 0 1 1.027-2.82zm15.035 5.472a1.5 1.5 0 1 1-1.027 2.82 1.5 1.5 0 0 1 1.027-2.82zm15.035 5.473a1.5 1.5 0 1 1-1.027 2.82 1.5 1.5 0 0 1 1.027-2.82zm-7.517-2.736a1.5 1.5 0 1 1-1.028 2.82 1.5 1.5 0 0 1 1.028-2.82zm15.035 5.472a1.5 1.5 0 1 1-1.028 2.82 1.5 1.5 0 0 1 1.028-2.82zm15.035 5.472a1.5 1.5 0 1 1-1.027 2.82 1.5 1.5 0 0 1 1.027-2.82zm-7.518-2.736a1.5 1.5 0 1 1-1.027 2.82 1.5 1.5 0 0 1 1.027-2.82zm-96.705-26.684a1.5 1.5 0 1 1-1.027 2.82 1.5 1.5 0 0 1 1.027-2.82zm15.035 5.472a1.5 1.5 0 1 1-1.027 2.82 1.5 1.5 0 0 1 1.027-2.82zm-7.517-2.736a1.5 1.5 0 1 1-1.028 2.82 1.5 1.5 0 0 1 1.028-2.82zm15.035 5.472a1.5 1.5 0 1 1-1.028 2.82 1.5 1.5 0 0 1 1.028-2.82zm15.035 5.472a1.5 1.5 0 1 1-1.028 2.82 1.5 1.5 0 0 1 1.028-2.82zm-7.518-2.736a1.5 1.5 0 1 1-1.027 2.82 1.5 1.5 0 0 1 1.027-2.82zm15.035 5.472a1.5 1.5 0 1 1-1.027 2.82 1.5 1.5 0 0 1 1.027-2.82zm15.035 5.473a1.5 1.5 0 1 1-1.027 2.82 1.5 1.5 0 0 1 1.027-2.82zm-7.517-2.736a1.5 1.5 0 1 1-1.028 2.82 1.5 1.5 0 0 1 1.028-2.82zm15.035 5.472a1.5 1.5 0 1 1-1.028 2.82 1.5 1.5 0 0 1 1.028-2.82zm15.035 5.472a1.5 1.5 0 1 1-1.027 2.82 1.5 1.5 0 0 1 1.027-2.82zm-7.518-2.736a1.5 1.5 0 1 1-1.027 2.82 1.5 1.5 0 0 1 1.027-2.82zm15.036 5.472a1.5 1.5 0 1 1-1.028 2.82 1.5 1.5 0 0 1 1.028-2.82zm15.035 5.473a1.5 1.5 0 1 1-1.028 2.82 1.5 1.5 0 0 1 1.028-2.82zm-7.518-2.736a1.5 1.5 0 1 1-1.027 2.82 1.5 1.5 0 0 1 1.027-2.82zm-104.223-29.421a1.5 1.5 0 1 1-1.027 2.82 1.5 1.5 0 0 1 1.027-2.82zm15.035 5.472a1.5 1.5 0 1 1-1.027 2.82 1.5 1.5 0 0 1 1.027-2.82zm-7.517-2.736a1.5 1.5 0 1 1-1.028 2.82 1.5 1.5 0 0 1 1.028-2.82zm15.035 5.472a1.5 1.5 0 1 1-1.028 2.82 1.5 1.5 0 0 1 1.028-2.82zm15.035 5.473a1.5 1.5 0 1 1-1.028 2.82 1.5 1.5 0 0 1 1.028-2.82zm-7.518-2.736a1.5 1.5 0 1 1-1.027 2.82 1.5 1.5 0 0 1 1.027-2.82zm15.035 5.472a1.5 1.5 0 1 1-1.027 2.82 1.5 1.5 0 0 1 1.027-2.82zm15.035 5.472a1.5 1.5 0 1 1-1.027 2.82 1.5 1.5 0 0 1 1.027-2.82zm-7.517-2.736a1.5 1.5 0 1 1-1.028 2.82 1.5 1.5 0 0 1 1.028-2.82zm15.035 5.472a1.5 1.5 0 1 1-1.027 2.82 1.5 1.5 0 0 1 1.027-2.82zm15.035 5.473a1.5 1.5 0 1 1-1.027 2.82 1.5 1.5 0 0 1 1.027-2.82zm-7.517-2.736a1.5 1.5 0 1 1-1.028 2.82 1.5 1.5 0 0 1 1.028-2.82zm15.035 5.472a1.5 1.5 0 1 1-1.028 2.82 1.5 1.5 0 0 1 1.028-2.82zm15.035 5.472a1.5 1.5 0 1 1-1.028 2.82 1.5 1.5 0 0 1 1.028-2.82zm-7.518-2.736a1.5 1.5 0 1 1-1.027 2.82 1.5 1.5 0 0 1 1.027-2.82zm-96.705-26.684a1.5 1.5 0 1 1-1.028 2.82 1.5 1.5 0 0 1 1.028-2.82zm15.035 5.472a1.5 1.5 0 1 1-1.028 2.82 1.5 1.5 0 0 1 1.028-2.82zm-7.518-2.736a1.5 1.5 0 1 1-1.027 2.82 1.5 1.5 0 0 1 1.027-2.82zm15.035 5.472a1.5 1.5 0 1 1-1.027 2.82 1.5 1.5 0 0 1 1.027-2.82zm15.035 5.472a1.5 1.5 0 1 1-1.027 2.82 1.5 1.5 0 0 1 1.027-2.82zm-7.517-2.736a1.5 1.5 0 1 1-1.028 2.82 1.5 1.5 0 0 1 1.028-2.82zm15.035 5.473a1.5 1.5 0 1 1-1.028 2.82 1.5 1.5 0 0 1 1.028-2.82zm15.035 5.472a1.5 1.5 0 1 1-1.027 2.82 1.5 1.5 0 0 1 1.027-2.82zm-7.518-2.736a1.5 1.5 0 1 1-1.027 2.82 1.5 1.5 0 0 1 1.027-2.82zm15.036 5.472a1.5 1.5 0 1 1-1.028 2.82 1.5 1.5 0 0 1 1.028-2.82zm15.035 5.472a1.5 1.5 0 1 1-1.028 2.82 1.5 1.5 0 0 1 1.028-2.82zm-7.518-2.736a1.5 1.5 0 1 1-1.027 2.82 1.5 1.5 0 0 1 1.027-2.82zm15.035 5.473a1.5 1.5 0 1 1-1.027 2.82 1.5 1.5 0 0 1 1.027-2.82zm15.035 5.472a1.5 1.5 0 1 1-1.027 2.82 1.5 1.5 0 0 1 1.027-2.82zm-7.517-2.736a1.5 1.5 0 1 1-1.028 2.82 1.5 1.5 0 0 1 1.028-2.82zm-104.223-29.42a1.5 1.5 0 1 1-1.028 2.819 1.5 1.5 0 0 1 1.028-2.82zm15.035 5.471a1.5 1.5 0 1 1-1.028 2.82 1.5 1.5 0 0 1 1.028-2.82zm-7.518-2.736a1.5 1.5 0 1 1-1.027 2.82 1.5 1.5 0 0 1 1.027-2.82zm15.035 5.473a1.5 1.5 0 1 1-1.027 2.82 1.5 1.5 0 0 1 1.027-2.82zm15.035 5.472a1.5 1.5 0 1 1-1.027 2.82 1.5 1.5 0 0 1 1.027-2.82zm-7.517-2.736a1.5 1.5 0 1 1-1.028 2.82 1.5 1.5 0 0 1 1.028-2.82zm15.035 5.472a1.5 1.5 0 1 1-1.027 2.82 1.5 1.5 0 0 1 1.027-2.82zm15.035 5.472a1.5 1.5 0 1 1-1.027 2.82 1.5 1.5 0 0 1 1.027-2.82zm-7.517-2.736a1.5 1.5 0 1 1-1.028 2.82 1.5 1.5 0 0 1 1.028-2.82zm15.035 5.473a1.5 1.5 0 1 1-1.028 2.82 1.5 1.5 0 0 1 1.028-2.82zm15.035 5.472a1.5 1.5 0 1 1-1.028 2.82 1.5 1.5 0 0 1 1.028-2.82zm-7.518-2.736a1.5 1.5 0 1 1-1.027 2.82 1.5 1.5 0 0 1 1.027-2.82zm15.035 5.472a1.5 1.5 0 1 1-1.027 2.82 1.5 1.5 0 0 1 1.027-2.82zm15.035 5.472a1.5 1.5 0 1 1-1.027 2.82 1.5 1.5 0 0 1 1.027-2.82zm-7.517-2.736a1.5 1.5 0 1 1-1.028 2.82 1.5 1.5 0 0 1 1.028-2.82zm-96.706-26.684a1.5 1.5 0 1 1-1.027 2.82 1.5 1.5 0 0 1 1.027-2.82zm15.035 5.472a1.5 1.5 0 1 1-1.027 2.82 1.5 1.5 0 0 1 1.027-2.82zm-7.517-2.736a1.5 1.5 0 1 1-1.028 2.82 1.5 1.5 0 0 1 1.028-2.82zm15.035 5.472a1.5 1.5 0 1 1-1.027 2.82 1.5 1.5 0 0 1 1.027-2.82zm15.035 5.472a1.5 1.5 0 1 1-1.027 2.82 1.5 1.5 0 0 1 1.027-2.82zm-7.517-2.736a1.5 1.5 0 1 1-1.028 2.82 1.5 1.5 0 0 1 1.028-2.82zm15.035 5.473a1.5 1.5 0 1 1-1.028 2.82 1.5 1.5 0 0 1 1.028-2.82zm15.035 5.472a1.5 1.5 0 1 1-1.028 2.82 1.5 1.5 0 0 1 1.028-2.82zm-7.518-2.736a1.5 1.5 0 1 1-1.027 2.82 1.5 1.5 0 0 1 1.027-2.82zm15.035 5.472a1.5 1.5 0 1 1-1.027 2.82 1.5 1.5 0 0 1 1.027-2.82zm15.035 5.472a1.5 1.5 0 1 1-1.027 2.82 1.5 1.5 0 0 1 1.027-2.82zm-7.517-2.736a1.5 1.5 0 1 1-1.028 2.82 1.5 1.5 0 0 1 1.028-2.82zm15.035 5.473a1.5 1.5 0 1 1-1.028 2.82 1.5 1.5 0 0 1 1.028-2.82zm15.035 5.472a1.5 1.5 0 1 1-1.028 2.82 1.5 1.5 0 0 1 1.028-2.82zm-7.518-2.736a1.5 1.5 0 1 1-1.027 2.82 1.5 1.5 0 0 1 1.027-2.82zm-104.223-29.42a1.5 1.5 0 1 1-1.027 2.819 1.5 1.5 0 0 1 1.027-2.82zm15.036 5.471a1.5 1.5 0 1 1-1.028 2.82 1.5 1.5 0 0 1 1.028-2.82zm-7.518-2.736a1.5 1.5 0 1 1-1.027 2.82 1.5 1.5 0 0 1 1.027-2.82zm15.035 5.473a1.5 1.5 0 1 1-1.027 2.82 1.5 1.5 0 0 1 1.027-2.82zm15.035 5.472a1.5 1.5 0 1 1-1.027 2.82 1.5 1.5 0 0 1 1.027-2.82zm-7.517-2.736a1.5 1.5 0 1 1-1.028 2.82 1.5 1.5 0 0 1 1.028-2.82zm15.035 5.472a1.5 1.5 0 1 1-1.028 2.82 1.5 1.5 0 0 1 1.028-2.82zm15.035 5.472a1.5 1.5 0 1 1-1.028 2.82 1.5 1.5 0 0 1 1.028-2.82zm-7.518-2.736a1.5 1.5 0 1 1-1.027 2.82 1.5 1.5 0 0 1 1.027-2.82zm15.035 5.473a1.5 1.5 0 1 1-1.027 2.82 1.5 1.5 0 0 1 1.027-2.82zm15.035 5.472a1.5 1.5 0 1 1-1.027 2.82 1.5 1.5 0 0 1 1.027-2.82zm-7.517-2.736a1.5 1.5 0 1 1-1.028 2.82 1.5 1.5 0 0 1 1.028-2.82zm15.035 5.472a1.5 1.5 0 1 1-1.028 2.82 1.5 1.5 0 0 1 1.028-2.82zm15.035 5.472a1.5 1.5 0 1 1-1.027 2.82 1.5 1.5 0 0 1 1.027-2.82zm-7.518-2.736a1.5 1.5 0 1 1-1.027 2.82 1.5 1.5 0 0 1 1.027-2.82zm-96.705-26.684a1.5 1.5 0 1 1-1.027 2.82 1.5 1.5 0 0 1 1.027-2.82zm15.035 5.472a1.5 1.5 0 1 1-1.027 2.82 1.5 1.5 0 0 1 1.027-2.82zm-7.517-2.736a1.5 1.5 0 1 1-1.028 2.82 1.5 1.5 0 0 1 1.028-2.82zm15.035 5.472a1.5 1.5 0 1 1-1.028 2.82 1.5 1.5 0 0 1 1.028-2.82zm15.035 5.473a1.5 1.5 0 1 1-1.028 2.82 1.5 1.5 0 0 1 1.028-2.82zm-7.518-2.737a1.5 1.5 0 1 1-1.027 2.82 1.5 1.5 0 0 1 1.027-2.82zm15.035 5.473a1.5 1.5 0 1 1-1.027 2.82 1.5 1.5 0 0 1 1.027-2.82zm15.035 5.472a1.5 1.5 0 1 1-1.027 2.82 1.5 1.5 0 0 1 1.027-2.82zm-7.517-2.736a1.5 1.5 0 1 1-1.028 2.82 1.5 1.5 0 0 1 1.028-2.82zm15.035 5.472a1.5 1.5 0 1 1-1.028 2.82 1.5 1.5 0 0 1 1.028-2.82zm15.035 5.473a1.5 1.5 0 1 1-1.027 2.82 1.5 1.5 0 0 1 1.027-2.82zm-7.518-2.737a1.5 1.5 0 1 1-1.027 2.82 1.5 1.5 0 0 1 1.027-2.82zm15.036 5.473a1.5 1.5 0 1 1-1.028 2.82 1.5 1.5 0 0 1 1.028-2.82zm15.035 5.472a1.5 1.5 0 1 1-1.028 2.82 1.5 1.5 0 0 1 1.028-2.82zm-7.518-2.736a1.5 1.5 0 1 1-1.027 2.82 1.5 1.5 0 0 1 1.027-2.82zm-104.223-29.42a1.5 1.5 0 1 1-1.027 2.819 1.5 1.5 0 0 1 1.027-2.82zm15.035 5.472a1.5 1.5 0 1 1-1.027 2.82 1.5 1.5 0 0 1 1.027-2.82zm-7.517-2.737a1.5 1.5 0 1 1-1.028 2.82 1.5 1.5 0 0 1 1.028-2.82zm15.035 5.473a1.5 1.5 0 1 1-1.028 2.82 1.5 1.5 0 0 1 1.028-2.82zm15.035 5.472a1.5 1.5 0 1 1-1.028 2.82 1.5 1.5 0 0 1 1.028-2.82zm-7.518-2.736a1.5 1.5 0 1 1-1.027 2.82 1.5 1.5 0 0 1 1.027-2.82zm15.035 5.472a1.5 1.5 0 1 1-1.027 2.82 1.5 1.5 0 0 1 1.027-2.82zm15.035 5.473a1.5 1.5 0 1 1-1.027 2.82 1.5 1.5 0 0 1 1.027-2.82zm-7.517-2.737a1.5 1.5 0 1 1-1.028 2.82 1.5 1.5 0 0 1 1.028-2.82zm15.035 5.473a1.5 1.5 0 1 1-1.027 2.82 1.5 1.5 0 0 1 1.027-2.82zm15.035 5.472a1.5 1.5 0 1 1-1.027 2.82 1.5 1.5 0 0 1 1.027-2.82zm-7.517-2.736a1.5 1.5 0 1 1-1.028 2.82 1.5 1.5 0 0 1 1.028-2.82zm15.035 5.472a1.5 1.5 0 1 1-1.028 2.82 1.5 1.5 0 0 1 1.028-2.82zm15.035 5.472a1.5 1.5 0 1 1-1.028 2.82 1.5 1.5 0 0 1 1.028-2.82zm-7.518-2.736a1.5 1.5 0 1 1-1.027 2.82 1.5 1.5 0 0 1 1.027-2.82zm-96.705-26.684a1.5 1.5 0 1 1-1.028 2.82 1.5 1.5 0 0 1 1.028-2.82zm15.035 5.472a1.5 1.5 0 1 1-1.028 2.82 1.5 1.5 0 0 1 1.028-2.82zm-7.518-2.736a1.5 1.5 0 1 1-1.027 2.82 1.5 1.5 0 0 1 1.027-2.82zm15.035 5.472a1.5 1.5 0 1 1-1.027 2.82 1.5 1.5 0 0 1 1.027-2.82zm15.035 5.473a1.5 1.5 0 1 1-1.027 2.82 1.5 1.5 0 0 1 1.027-2.82zm-7.517-2.737a1.5 1.5 0 1 1-1.028 2.82 1.5 1.5 0 0 1 1.028-2.82zm15.035 5.473a1.5 1.5 0 1 1-1.027 2.82 1.5 1.5 0 0 1 1.027-2.82zm15.035 5.472a1.5 1.5 0 1 1-1.027 2.82 1.5 1.5 0 0 1 1.027-2.82zm-7.517-2.736a1.5 1.5 0 1 1-1.028 2.82 1.5 1.5 0 0 1 1.028-2.82zm15.035 5.472a1.5 1.5 0 1 1-1.028 2.82 1.5 1.5 0 0 1 1.028-2.82zm15.035 5.473a1.5 1.5 0 1 1-1.028 2.82 1.5 1.5 0 0 1 1.028-2.82zm-7.518-2.737a1.5 1.5 0 1 1-1.027 2.82 1.5 1.5 0 0 1 1.027-2.82zm15.035 5.473a1.5 1.5 0 1 1-1.027 2.82 1.5 1.5 0 0 1 1.027-2.82zm15.035 5.472a1.5 1.5 0 1 1-1.027 2.82 1.5 1.5 0 0 1 1.027-2.82zm-7.517-2.736a1.5 1.5 0 1 1-1.028 2.82 1.5 1.5 0 0 1 1.028-2.82z" fill="#585BF2" opacity=".8"/></g></svg>