<svg width="1792" height="1004" xmlns="http://www.w3.org/2000/svg"><g fill="none" fill-rule="evenodd"><path fill="#E6E6FD" d="M416 545h240v240H416z"/><path d="M1201.5 567a1.5 1.5 0 1 1-.001 3.001 1.5 1.5 0 0 1 .001-3.001zm16 0a1.5 1.5 0 1 1-.001 3.001 1.5 1.5 0 0 1 .001-3.001zm-8 0a1.5 1.5 0 1 1-.001 3.001 1.5 1.5 0 0 1 .001-3.001zm16 0a1.5 1.5 0 1 1-.001 3.001 1.5 1.5 0 0 1 .001-3.001zm16 0a1.5 1.5 0 1 1-.001 3.001 1.5 1.5 0 0 1 .001-3.001zm-8 0a1.5 1.5 0 1 1-.001 3.001 1.5 1.5 0 0 1 .001-3.001zm16 0a1.5 1.5 0 1 1-.001 3.001 1.5 1.5 0 0 1 .001-3.001zm16 0a1.5 1.5 0 1 1-.001 3.001 1.5 1.5 0 0 1 .001-3.001zm-8 0a1.5 1.5 0 1 1-.001 3.001 1.5 1.5 0 0 1 .001-3.001zm16 0a1.5 1.5 0 1 1-.001 3.001 1.5 1.5 0 0 1 .001-3.001zm16 0a1.5 1.5 0 1 1-.001 3.001 1.5 1.5 0 0 1 .001-3.001zm-8 0a1.5 1.5 0 1 1-.001 3.001 1.5 1.5 0 0 1 .001-3.001zm16 0a1.5 1.5 0 1 1-.001 3.001 1.5 1.5 0 0 1 .001-3.001zm16 0a1.5 1.5 0 1 1-.001 3.001 1.5 1.5 0 0 1 .001-3.001zm-8 0a1.5 1.5 0 1 1-.001 3.001 1.5 1.5 0 0 1 .001-3.001zm16 0a1.5 1.5 0 1 1-.001 3.001 1.5 1.5 0 0 1 .001-3.001zm16 0a1.5 1.5 0 1 1-.001 3.001 1.5 1.5 0 0 1 .001-3.001zm-8 0a1.5 1.5 0 1 1-.001 3.001 1.5 1.5 0 0 1 .001-3.001zm16 0a1.5 1.5 0 1 1-.001 3.001 1.5 1.5 0 0 1 .001-3.001zm16 0a1.5 1.5 0 1 1-.001 3.001 1.5 1.5 0 0 1 .001-3.001zm-8 0a1.5 1.5 0 1 1-.001 3.001 1.5 1.5 0 0 1 .001-3.001zm16 0a1.5 1.5 0 1 1-.001 3.001 1.5 1.5 0 0 1 .001-3.001zm16 0a1.5 1.5 0 1 1-.001 3.001 1.5 1.5 0 0 1 .001-3.001zm-8 0a1.5 1.5 0 1 1-.001 3.001 1.5 1.5 0 0 1 .001-3.001zm16 0a1.5 1.5 0 1 1-.001 3.001 1.5 1.5 0 0 1 .001-3.001zm8 0a1.5 1.5 0 1 1-.001 3.001 1.5 1.5 0 0 1 .001-3.001zm-68 8a1.5 1.5 0 1 1-.001 3.001 1.5 1.5 0 0 1 .001-3.001zm-8 0a1.5 1.5 0 1 1-.001 3.001 1.5 1.5 0 0 1 .001-3.001zm16 0a1.5 1.5 0 1 1-.001 3.001 1.5 1.5 0 0 1 .001-3.001zm16 0a1.5 1.5 0 1 1-.001 3.001 1.5 1.5 0 0 1 .001-3.001zm-8 0a1.5 1.5 0 1 1-.001 3.001 1.5 1.5 0 0 1 .001-3.001zm16 0a1.5 1.5 0 1 1-.001 3.001 1.5 1.5 0 0 1 .001-3.001zm16 0a1.5 1.5 0 1 1-.001 3.001 1.5 1.5 0 0 1 .001-3.001zm-8 0a1.5 1.5 0 1 1-.001 3.001 1.5 1.5 0 0 1 .001-3.001zm16 0a1.5 1.5 0 1 1-.001 3.001 1.5 1.5 0 0 1 .001-3.001zm8 0a1.5 1.5 0 1 1-.001 3.001 1.5 1.5 0 0 1 .001-3.001zm-192 0a1.5 1.5 0 1 1-.001 3.001 1.5 1.5 0 0 1 .001-3.001zm16 0a1.5 1.5 0 1 1-.001 3.001 1.5 1.5 0 0 1 .001-3.001zm-8 0a1.5 1.5 0 1 1-.001 3.001 1.5 1.5 0 0 1 .001-3.001zm16 0a1.5 1.5 0 1 1-.001 3.001 1.5 1.5 0 0 1 .001-3.001zm16 0a1.5 1.5 0 1 1-.001 3.001 1.5 1.5 0 0 1 .001-3.001zm-8 0a1.5 1.5 0 1 1-.001 3.001 1.5 1.5 0 0 1 .001-3.001zm16 0a1.5 1.5 0 1 1-.001 3.001 1.5 1.5 0 0 1 .001-3.001zm16 0a1.5 1.5 0 1 1-.001 3.001 1.5 1.5 0 0 1 .001-3.001zm-8 0a1.5 1.5 0 1 1-.001 3.001 1.5 1.5 0 0 1 .001-3.001zm16 0a1.5 1.5 0 1 1-.001 3.001 1.5 1.5 0 0 1 .001-3.001zm16 0a1.5 1.5 0 1 1-.001 3.001 1.5 1.5 0 0 1 .001-3.001zm-8 0a1.5 1.5 0 1 1-.001 3.001 1.5 1.5 0 0 1 .001-3.001zm16 0a1.5 1.5 0 1 1-.001 3.001 1.5 1.5 0 0 1 .001-3.001zm16 0a1.5 1.5 0 1 1-.001 3.001 1.5 1.5 0 0 1 .001-3.001zm-8 0a1.5 1.5 0 1 1-.001 3.001 1.5 1.5 0 0 1 .001-3.001zm-108 8a1.5 1.5 0 1 1-.001 3.001 1.5 1.5 0 0 1 .001-3.001zm16 0a1.5 1.5 0 1 1-.001 3.001 1.5 1.5 0 0 1 .001-3.001zm-8 0a1.5 1.5 0 1 1-.001 3.001 1.5 1.5 0 0 1 .001-3.001zm16 0a1.5 1.5 0 1 1-.001 3.001 1.5 1.5 0 0 1 .001-3.001zm16 0a1.5 1.5 0 1 1-.001 3.001 1.5 1.5 0 0 1 .001-3.001zm-8 0a1.5 1.5 0 1 1-.001 3.001 1.5 1.5 0 0 1 .001-3.001zm16 0a1.5 1.5 0 1 1-.001 3.001 1.5 1.5 0 0 1 .001-3.001zm16 0a1.5 1.5 0 1 1-.001 3.001 1.5 1.5 0 0 1 .001-3.001zm-8 0a1.5 1.5 0 1 1-.001 3.001 1.5 1.5 0 0 1 .001-3.001zm16 0a1.5 1.5 0 1 1-.001 3.001 1.5 1.5 0 0 1 .001-3.001zm16 0a1.5 1.5 0 1 1-.001 3.001 1.5 1.5 0 0 1 .001-3.001zm-8 0a1.5 1.5 0 1 1-.001 3.001 1.5 1.5 0 0 1 .001-3.001zm16 0a1.5 1.5 0 1 1-.001 3.001 1.5 1.5 0 0 1 .001-3.001zm16 0a1.5 1.5 0 1 1-.001 3.001 1.5 1.5 0 0 1 .001-3.001zm-8 0a1.5 1.5 0 1 1-.001 3.001 1.5 1.5 0 0 1 .001-3.001zm16 0a1.5 1.5 0 1 1-.001 3.001 1.5 1.5 0 0 1 .001-3.001zm16 0a1.5 1.5 0 1 1-.001 3.001 1.5 1.5 0 0 1 .001-3.001zm-8 0a1.5 1.5 0 1 1-.001 3.001 1.5 1.5 0 0 1 .001-3.001zm16 0a1.5 1.5 0 1 1-.001 3.001 1.5 1.5 0 0 1 .001-3.001zm16 0a1.5 1.5 0 1 1-.001 3.001 1.5 1.5 0 0 1 .001-3.001zm-8 0a1.5 1.5 0 1 1-.001 3.001 1.5 1.5 0 0 1 .001-3.001zm16 0a1.5 1.5 0 1 1-.001 3.001 1.5 1.5 0 0 1 .001-3.001zm16 0a1.5 1.5 0 1 1-.001 3.001 1.5 1.5 0 0 1 .001-3.001zm-8 0a1.5 1.5 0 1 1-.001 3.001 1.5 1.5 0 0 1 .001-3.001zm16 0a1.5 1.5 0 1 1-.001 3.001 1.5 1.5 0 0 1 .001-3.001zm8 0a1.5 1.5 0 1 1-.001 3.001 1.5 1.5 0 0 1 .001-3.001zm-68 8a1.5 1.5 0 1 1-.001 3.001 1.5 1.5 0 0 1 .001-3.001zm-8 0a1.5 1.5 0 1 1-.001 3.001 1.5 1.5 0 0 1 .001-3.001zm16 0a1.5 1.5 0 1 1-.001 3.001 1.5 1.5 0 0 1 .001-3.001zm16 0a1.5 1.5 0 1 1-.001 3.001 1.5 1.5 0 0 1 .001-3.001zm-8 0a1.5 1.5 0 1 1-.001 3.001 1.5 1.5 0 0 1 .001-3.001zm16 0a1.5 1.5 0 1 1-.001 3.001 1.5 1.5 0 0 1 .001-3.001zm16 0a1.5 1.5 0 1 1-.001 3.001 1.5 1.5 0 0 1 .001-3.001zm-8 0a1.5 1.5 0 1 1-.001 3.001 1.5 1.5 0 0 1 .001-3.001zm16 0a1.5 1.5 0 1 1-.001 3.001 1.5 1.5 0 0 1 .001-3.001zm8 0a1.5 1.5 0 1 1-.001 3.001 1.5 1.5 0 0 1 .001-3.001zm-192 0a1.5 1.5 0 1 1-.001 3.001 1.5 1.5 0 0 1 .001-3.001zm16 0a1.5 1.5 0 1 1-.001 3.001 1.5 1.5 0 0 1 .001-3.001zm-8 0a1.5 1.5 0 1 1-.001 3.001 1.5 1.5 0 0 1 .001-3.001zm16 0a1.5 1.5 0 1 1-.001 3.001 1.5 1.5 0 0 1 .001-3.001zm16 0a1.5 1.5 0 1 1-.001 3.001 1.5 1.5 0 0 1 .001-3.001zm-8 0a1.5 1.5 0 1 1-.001 3.001 1.5 1.5 0 0 1 .001-3.001zm16 0a1.5 1.5 0 1 1-.001 3.001 1.5 1.5 0 0 1 .001-3.001zm16 0a1.5 1.5 0 1 1-.001 3.001 1.5 1.5 0 0 1 .001-3.001zm-8 0a1.5 1.5 0 1 1-.001 3.001 1.5 1.5 0 0 1 .001-3.001zm16 0a1.5 1.5 0 1 1-.001 3.001 1.5 1.5 0 0 1 .001-3.001zm16 0a1.5 1.5 0 1 1-.001 3.001 1.5 1.5 0 0 1 .001-3.001zm-8 0a1.5 1.5 0 1 1-.001 3.001 1.5 1.5 0 0 1 .001-3.001zm16 0a1.5 1.5 0 1 1-.001 3.001 1.5 1.5 0 0 1 .001-3.001zm16 0a1.5 1.5 0 1 1-.001 3.001 1.5 1.5 0 0 1 .001-3.001zm-8 0a1.5 1.5 0 1 1-.001 3.001 1.5 1.5 0 0 1 .001-3.001zm-108 8a1.5 1.5 0 1 1-.001 3.001 1.5 1.5 0 0 1 .001-3.001zm16 0a1.5 1.5 0 1 1-.001 3.001 1.5 1.5 0 0 1 .001-3.001zm-8 0a1.5 1.5 0 1 1-.001 3.001 1.5 1.5 0 0 1 .001-3.001zm16 0a1.5 1.5 0 1 1-.001 3.001 1.5 1.5 0 0 1 .001-3.001zm16 0a1.5 1.5 0 1 1-.001 3.001 1.5 1.5 0 0 1 .001-3.001zm-8 0a1.5 1.5 0 1 1-.001 3.001 1.5 1.5 0 0 1 .001-3.001zm16 0a1.5 1.5 0 1 1-.001 3.001 1.5 1.5 0 0 1 .001-3.001zm16 0a1.5 1.5 0 1 1-.001 3.001 1.5 1.5 0 0 1 .001-3.001zm-8 0a1.5 1.5 0 1 1-.001 3.001 1.5 1.5 0 0 1 .001-3.001zm16 0a1.5 1.5 0 1 1-.001 3.001 1.5 1.5 0 0 1 .001-3.001zm16 0a1.5 1.5 0 1 1-.001 3.001 1.5 1.5 0 0 1 .001-3.001zm-8 0a1.5 1.5 0 1 1-.001 3.001 1.5 1.5 0 0 1 .001-3.001zm16 0a1.5 1.5 0 1 1-.001 3.001 1.5 1.5 0 0 1 .001-3.001zm16 0a1.5 1.5 0 1 1-.001 3.001 1.5 1.5 0 0 1 .001-3.001zm-8 0a1.5 1.5 0 1 1-.001 3.001 1.5 1.5 0 0 1 .001-3.001zm16 0a1.5 1.5 0 1 1-.001 3.001 1.5 1.5 0 0 1 .001-3.001zm16 0a1.5 1.5 0 1 1-.001 3.001 1.5 1.5 0 0 1 .001-3.001zm-8 0a1.5 1.5 0 1 1-.001 3.001 1.5 1.5 0 0 1 .001-3.001zm16 0a1.5 1.5 0 1 1-.001 3.001 1.5 1.5 0 0 1 .001-3.001zm16 0a1.5 1.5 0 1 1-.001 3.001 1.5 1.5 0 0 1 .001-3.001zm-8 0a1.5 1.5 0 1 1-.001 3.001 1.5 1.5 0 0 1 .001-3.001zm16 0a1.5 1.5 0 1 1-.001 3.001 1.5 1.5 0 0 1 .001-3.001zm16 0a1.5 1.5 0 1 1-.001 3.001 1.5 1.5 0 0 1 .001-3.001zm-8 0a1.5 1.5 0 1 1-.001 3.001 1.5 1.5 0 0 1 .001-3.001zm16 0a1.5 1.5 0 1 1-.001 3.001 1.5 1.5 0 0 1 .001-3.001zm8 0a1.5 1.5 0 1 1-.001 3.001 1.5 1.5 0 0 1 .001-3.001zm-68 8a1.5 1.5 0 1 1-.001 3.001 1.5 1.5 0 0 1 .001-3.001zm-8 0a1.5 1.5 0 1 1-.001 3.001 1.5 1.5 0 0 1 .001-3.001zm16 0a1.5 1.5 0 1 1-.001 3.001 1.5 1.5 0 0 1 .001-3.001zm16 0a1.5 1.5 0 1 1-.001 3.001 1.5 1.5 0 0 1 .001-3.001zm-8 0a1.5 1.5 0 1 1-.001 3.001 1.5 1.5 0 0 1 .001-3.001zm16 0a1.5 1.5 0 1 1-.001 3.001 1.5 1.5 0 0 1 .001-3.001zm16 0a1.5 1.5 0 1 1-.001 3.001 1.5 1.5 0 0 1 .001-3.001zm-8 0a1.5 1.5 0 1 1-.001 3.001 1.5 1.5 0 0 1 .001-3.001zm16 0a1.5 1.5 0 1 1-.001 3.001 1.5 1.5 0 0 1 .001-3.001zm8 0a1.5 1.5 0 1 1-.001 3.001 1.5 1.5 0 0 1 .001-3.001zm-192 0a1.5 1.5 0 1 1-.001 3.001 1.5 1.5 0 0 1 .001-3.001zm16 0a1.5 1.5 0 1 1-.001 3.001 1.5 1.5 0 0 1 .001-3.001zm-8 0a1.5 1.5 0 1 1-.001 3.001 1.5 1.5 0 0 1 .001-3.001zm16 0a1.5 1.5 0 1 1-.001 3.001 1.5 1.5 0 0 1 .001-3.001zm16 0a1.5 1.5 0 1 1-.001 3.001 1.5 1.5 0 0 1 .001-3.001zm-8 0a1.5 1.5 0 1 1-.001 3.001 1.5 1.5 0 0 1 .001-3.001zm16 0a1.5 1.5 0 1 1-.001 3.001 1.5 1.5 0 0 1 .001-3.001zm16 0a1.5 1.5 0 1 1-.001 3.001 1.5 1.5 0 0 1 .001-3.001zm-8 0a1.5 1.5 0 1 1-.001 3.001 1.5 1.5 0 0 1 .001-3.001zm16 0a1.5 1.5 0 1 1-.001 3.001 1.5 1.5 0 0 1 .001-3.001zm16 0a1.5 1.5 0 1 1-.001 3.001 1.5 1.5 0 0 1 .001-3.001zm-8 0a1.5 1.5 0 1 1-.001 3.001 1.5 1.5 0 0 1 .001-3.001zm16 0a1.5 1.5 0 1 1-.001 3.001 1.5 1.5 0 0 1 .001-3.001zm16 0a1.5 1.5 0 1 1-.001 3.001 1.5 1.5 0 0 1 .001-3.001zm-8 0a1.5 1.5 0 1 1-.001 3.001 1.5 1.5 0 0 1 .001-3.001zm-108 8a1.5 1.5 0 1 1-.001 3.001 1.5 1.5 0 0 1 .001-3.001zm16 0a1.5 1.5 0 1 1-.001 3.001 1.5 1.5 0 0 1 .001-3.001zm-8 0a1.5 1.5 0 1 1-.001 3.001 1.5 1.5 0 0 1 .001-3.001zm16 0a1.5 1.5 0 1 1-.001 3.001 1.5 1.5 0 0 1 .001-3.001zm16 0a1.5 1.5 0 1 1-.001 3.001 1.5 1.5 0 0 1 .001-3.001zm-8 0a1.5 1.5 0 1 1-.001 3.001 1.5 1.5 0 0 1 .001-3.001zm16 0a1.5 1.5 0 1 1-.001 3.001 1.5 1.5 0 0 1 .001-3.001zm16 0a1.5 1.5 0 1 1-.001 3.001 1.5 1.5 0 0 1 .001-3.001zm-8 0a1.5 1.5 0 1 1-.001 3.001 1.5 1.5 0 0 1 .001-3.001zm16 0a1.5 1.5 0 1 1-.001 3.001 1.5 1.5 0 0 1 .001-3.001zm16 0a1.5 1.5 0 1 1-.001 3.001 1.5 1.5 0 0 1 .001-3.001zm-8 0a1.5 1.5 0 1 1-.001 3.001 1.5 1.5 0 0 1 .001-3.001zm16 0a1.5 1.5 0 1 1-.001 3.001 1.5 1.5 0 0 1 .001-3.001zm16 0a1.5 1.5 0 1 1-.001 3.001 1.5 1.5 0 0 1 .001-3.001zm-8 0a1.5 1.5 0 1 1-.001 3.001 1.5 1.5 0 0 1 .001-3.001zm16 0a1.5 1.5 0 1 1-.001 3.001 1.5 1.5 0 0 1 .001-3.001zm16 0a1.5 1.5 0 1 1-.001 3.001 1.5 1.5 0 0 1 .001-3.001zm-8 0a1.5 1.5 0 1 1-.001 3.001 1.5 1.5 0 0 1 .001-3.001zm16 0a1.5 1.5 0 1 1-.001 3.001 1.5 1.5 0 0 1 .001-3.001zm16 0a1.5 1.5 0 1 1-.001 3.001 1.5 1.5 0 0 1 .001-3.001zm-8 0a1.5 1.5 0 1 1-.001 3.001 1.5 1.5 0 0 1 .001-3.001zm16 0a1.5 1.5 0 1 1-.001 3.001 1.5 1.5 0 0 1 .001-3.001zm16 0a1.5 1.5 0 1 1-.001 3.001 1.5 1.5 0 0 1 .001-3.001zm-8 0a1.5 1.5 0 1 1-.001 3.001 1.5 1.5 0 0 1 .001-3.001zm16 0a1.5 1.5 0 1 1-.001 3.001 1.5 1.5 0 0 1 .001-3.001zm8 0a1.5 1.5 0 1 1-.001 3.001 1.5 1.5 0 0 1 .001-3.001zm-200 16a1.5 1.5 0 1 1-.001 3.001 1.5 1.5 0 0 1 .001-3.001zm16 0a1.5 1.5 0 1 1-.001 3.001 1.5 1.5 0 0 1 .001-3.001zm-8 0a1.5 1.5 0 1 1-.001 3.001 1.5 1.5 0 0 1 .001-3.001zm16 0a1.5 1.5 0 1 1-.001 3.001 1.5 1.5 0 0 1 .001-3.001zm16 0a1.5 1.5 0 1 1-.001 3.001 1.5 1.5 0 0 1 .001-3.001zm-8 0a1.5 1.5 0 1 1-.001 3.001 1.5 1.5 0 0 1 .001-3.001zm16 0a1.5 1.5 0 1 1-.001 3.001 1.5 1.5 0 0 1 .001-3.001zm16 0a1.5 1.5 0 1 1-.001 3.001 1.5 1.5 0 0 1 .001-3.001zm-8 0a1.5 1.5 0 1 1-.001 3.001 1.5 1.5 0 0 1 .001-3.001zm16 0a1.5 1.5 0 1 1-.001 3.001 1.5 1.5 0 0 1 .001-3.001zm16 0a1.5 1.5 0 1 1-.001 3.001 1.5 1.5 0 0 1 .001-3.001zm-8 0a1.5 1.5 0 1 1-.001 3.001 1.5 1.5 0 0 1 .001-3.001zm16 0a1.5 1.5 0 1 1-.001 3.001 1.5 1.5 0 0 1 .001-3.001zm16 0a1.5 1.5 0 1 1-.001 3.001 1.5 1.5 0 0 1 .001-3.001zm-8 0a1.5 1.5 0 1 1-.001 3.001 1.5 1.5 0 0 1 .001-3.001zm16 0a1.5 1.5 0 1 1-.001 3.001 1.5 1.5 0 0 1 .001-3.001zm16 0a1.5 1.5 0 1 1-.001 3.001 1.5 1.5 0 0 1 .001-3.001zm-8 0a1.5 1.5 0 1 1-.001 3.001 1.5 1.5 0 0 1 .001-3.001zm16 0a1.5 1.5 0 1 1-.001 3.001 1.5 1.5 0 0 1 .001-3.001zm16 0a1.5 1.5 0 1 1-.001 3.001 1.5 1.5 0 0 1 .001-3.001zm-8 0a1.5 1.5 0 1 1-.001 3.001 1.5 1.5 0 0 1 .001-3.001zm16 0a1.5 1.5 0 1 1-.001 3.001 1.5 1.5 0 0 1 .001-3.001zm16 0a1.5 1.5 0 1 1-.001 3.001 1.5 1.5 0 0 1 .001-3.001zm-8 0a1.5 1.5 0 1 1-.001 3.001 1.5 1.5 0 0 1 .001-3.001zm16 0a1.5 1.5 0 1 1-.001 3.001 1.5 1.5 0 0 1 .001-3.001zm8 0a1.5 1.5 0 1 1-.001 3.001 1.5 1.5 0 0 1 .001-3.001zm-68-8a1.5 1.5 0 1 1-.001 3.001 1.5 1.5 0 0 1 .001-3.001zm-8 0a1.5 1.5 0 1 1-.001 3.001 1.5 1.5 0 0 1 .001-3.001zm16 0a1.5 1.5 0 1 1-.001 3.001 1.5 1.5 0 0 1 .001-3.001zm16 0a1.5 1.5 0 1 1-.001 3.001 1.5 1.5 0 0 1 .001-3.001zm-8 0a1.5 1.5 0 1 1-.001 3.001 1.5 1.5 0 0 1 .001-3.001zm16 0a1.5 1.5 0 1 1-.001 3.001 1.5 1.5 0 0 1 .001-3.001zm16 0a1.5 1.5 0 1 1-.001 3.001 1.5 1.5 0 0 1 .001-3.001zm-8 0a1.5 1.5 0 1 1-.001 3.001 1.5 1.5 0 0 1 .001-3.001zm16 0a1.5 1.5 0 1 1-.001 3.001 1.5 1.5 0 0 1 .001-3.001zm8 0a1.5 1.5 0 1 1-.001 3.001 1.5 1.5 0 0 1 .001-3.001zm-192 0a1.5 1.5 0 1 1-.001 3.001 1.5 1.5 0 0 1 .001-3.001zm16 0a1.5 1.5 0 1 1-.001 3.001 1.5 1.5 0 0 1 .001-3.001zm-8 0a1.5 1.5 0 1 1-.001 3.001 1.5 1.5 0 0 1 .001-3.001zm16 0a1.5 1.5 0 1 1-.001 3.001 1.5 1.5 0 0 1 .001-3.001zm16 0a1.5 1.5 0 1 1-.001 3.001 1.5 1.5 0 0 1 .001-3.001zm-8 0a1.5 1.5 0 1 1-.001 3.001 1.5 1.5 0 0 1 .001-3.001zm16 0a1.5 1.5 0 1 1-.001 3.001 1.5 1.5 0 0 1 .001-3.001zm16 0a1.5 1.5 0 1 1-.001 3.001 1.5 1.5 0 0 1 .001-3.001zm-8 0a1.5 1.5 0 1 1-.001 3.001 1.5 1.5 0 0 1 .001-3.001zm16 0a1.5 1.5 0 1 1-.001 3.001 1.5 1.5 0 0 1 .001-3.001zm16 0a1.5 1.5 0 1 1-.001 3.001 1.5 1.5 0 0 1 .001-3.001zm-8 0a1.5 1.5 0 1 1-.001 3.001 1.5 1.5 0 0 1 .001-3.001zm16 0a1.5 1.5 0 1 1-.001 3.001 1.5 1.5 0 0 1 .001-3.001zm16 0a1.5 1.5 0 1 1-.001 3.001 1.5 1.5 0 0 1 .001-3.001zm-8 0a1.5 1.5 0 1 1-.001 3.001 1.5 1.5 0 0 1 .001-3.001z" fill="#F47698"/></g></svg>